<svg width="124" height="20" viewBox="0 0 124 20" fill="none" xmlns="http://www.w3.org/2000/svg">
<path d="M10.3052 10.4683C10.2382 10.5185 10.1671 10.5729 10.0918 10.6315C10.0164 10.6901 9.9662 10.7655 9.94108 10.8575C9.92434 10.9496 9.89923 11.0542 9.86575 11.1714C9.83227 11.2803 9.75693 11.3556 9.63974 11.3974C9.58115 11.4142 9.43048 11.4351 9.18773 11.4602C8.94499 11.477 8.66457 11.4979 8.34649 11.523C8.02841 11.5481 7.69359 11.569 7.34203 11.5858C6.99883 11.6025 6.69331 11.6067 6.42545 11.5983C6.20782 11.5983 5.94414 11.6067 5.63443 11.6234C5.36658 11.6402 5.03175 11.6653 4.62997 11.6988C4.23655 11.7239 3.77198 11.7699 3.23627 11.8369C3.21116 12.314 3.19442 12.8121 3.18605 13.331C3.17767 13.8416 3.1693 14.3481 3.16093 14.8503C3.15256 15.3525 3.14838 15.8338 3.14838 16.2942C3.14838 16.7462 3.14838 17.1438 3.14838 17.487V18.6673C3.16512 18.8263 3.14001 19.0021 3.07304 19.1946C3.01445 19.3788 2.914 19.496 2.7717 19.5462C2.63777 19.588 2.52477 19.6299 2.4327 19.6717C2.34899 19.722 2.25691 19.7554 2.15647 19.7722C2.10624 19.7806 2.03509 19.7847 1.94302 19.7847C1.85931 19.7847 1.77142 19.7764 1.67935 19.7596C1.59564 19.7429 1.51612 19.7094 1.44078 19.6592C1.37382 19.609 1.32778 19.5378 1.30267 19.4457C1.26919 19.3453 1.23152 19.249 1.18967 19.1569C1.15619 19.0565 1.1227 18.9142 1.08922 18.73C1.05574 18.5375 1.02226 18.278 0.988774 17.9516C0.955292 17.6251 0.93018 17.1899 0.913439 16.6458C0.896698 16.2105 0.900883 15.6622 0.925995 15.001C0.959477 14.3397 1.00133 13.6324 1.05155 12.879C1.11015 12.1257 1.17293 11.3598 1.23989 10.5813C1.31523 9.79448 1.38638 9.06206 1.45334 8.38404C1.5203 7.70603 1.5789 7.11172 1.62912 6.60111C1.67935 6.09051 1.71701 5.72639 1.74212 5.50875C1.75887 5.34134 1.77561 5.16975 1.79235 4.99396C1.80909 4.84329 1.82583 4.68007 1.84257 4.50429C1.85931 4.32851 1.87605 4.15691 1.89279 3.9895C1.74212 3.9895 1.58727 3.9895 1.42823 3.9895C1.27756 3.9895 1.17711 3.98113 1.12689 3.96439C1.00133 3.94765 0.879957 3.91416 0.762769 3.86394C0.645581 3.81372 0.540949 3.75931 0.448873 3.70071C0.356797 3.63375 0.277277 3.56678 0.210312 3.49982C0.143348 3.43286 0.10568 3.36589 0.0973099 3.29893C0.0889393 3.2487 0.0931246 3.20267 0.109866 3.16081C0.126607 3.11896 0.151718 3.08548 0.185201 3.06037C0.218683 3.02688 0.273092 3.00177 0.348427 2.98503C0.298203 2.84273 0.289833 2.74229 0.323315 2.68369C0.331685 2.65021 0.348427 2.62928 0.373538 2.62091C0.423762 2.60417 0.490726 2.58324 0.574432 2.55813C0.666508 2.52465 0.737657 2.48698 0.787881 2.44513C0.804622 2.42002 0.838104 2.39072 0.888327 2.35724C0.946921 2.32376 1.00552 2.29446 1.06411 2.26935C1.1227 2.23587 1.17711 2.20657 1.22733 2.18146C1.28593 2.15635 1.32778 2.13961 1.35289 2.13123C1.36963 2.12286 1.45334 2.10612 1.60401 2.08101C1.76305 2.04753 1.95557 2.01405 2.18158 1.98056C2.41595 1.93871 2.66707 1.89686 2.93493 1.85501C3.21116 1.81315 3.47483 1.77967 3.72595 1.75456C3.90173 1.73782 4.19888 1.72108 4.61741 1.70434C5.04431 1.67922 5.5298 1.6583 6.07389 1.64156C6.61797 1.61645 7.18717 1.5997 7.78148 1.59133C8.37579 1.57459 8.93243 1.56622 9.45141 1.56622C9.90342 1.56622 10.2968 1.57459 10.6317 1.59133C10.9665 1.5997 11.2009 1.62063 11.3348 1.65411C11.5357 1.69597 11.6947 1.742 11.8119 1.79223C11.9375 1.83408 12.0337 1.87593 12.1007 1.91779C12.1677 1.95964 12.2095 2.00149 12.2262 2.04334C12.2514 2.07683 12.2597 2.09775 12.2514 2.10612C12.2514 2.12286 12.2472 2.14379 12.2388 2.1689C12.2221 2.21913 12.2011 2.26098 12.176 2.29446C12.2597 2.34468 12.31 2.39491 12.3267 2.44513C12.3351 2.47861 12.3392 2.50372 12.3392 2.52047C12.3309 2.55395 12.3141 2.60836 12.289 2.68369C12.2723 2.75903 12.2555 2.84273 12.2388 2.93481C12.2221 3.01851 12.2053 3.1064 12.1886 3.19848C12.1802 3.28219 12.1844 3.34915 12.2011 3.39937C12.2262 3.49982 12.243 3.58353 12.2514 3.65049C12.2597 3.71745 12.243 3.77186 12.2011 3.81372C12.1844 3.83046 12.1593 3.83883 12.1258 3.83883C12.0839 3.8472 12.0086 3.83883 11.8998 3.81372C11.9082 3.83883 11.8789 3.85975 11.8119 3.8765C11.7784 3.88487 11.7449 3.88905 11.7115 3.88905C11.6696 3.88905 11.5315 3.88487 11.2971 3.8765C11.0627 3.85975 10.7656 3.84301 10.4057 3.82627C10.0457 3.80116 9.64393 3.78442 9.20029 3.77605C8.75665 3.75931 8.30883 3.75094 7.85682 3.75094C7.56385 3.75094 7.27088 3.75931 6.97791 3.77605C6.69331 3.78442 6.42127 3.79698 6.16178 3.81372C5.75162 3.83883 5.33309 3.86394 4.90619 3.88905C4.4793 3.90579 4.06495 3.92253 3.66317 3.93927C3.57109 5.23671 3.49994 6.36255 3.44972 7.31679C3.39949 8.27104 3.36183 9.04531 3.33672 9.63962C3.7971 9.54755 4.22399 9.48058 4.61741 9.43873C5.01083 9.38851 5.35402 9.34665 5.64699 9.31317C5.98181 9.27969 6.29152 9.25458 6.57612 9.23784C6.94443 9.22947 7.29599 9.22947 7.63081 9.23784C7.96563 9.24621 8.26697 9.25876 8.53483 9.2755C8.81106 9.29225 9.04543 9.31317 9.23796 9.33828C9.43885 9.3634 9.58115 9.38851 9.66486 9.41362C9.81553 9.45547 9.92853 9.51407 10.0039 9.5894C10.0792 9.66474 10.1462 9.76937 10.2048 9.9033C10.255 10.0289 10.2968 10.146 10.3303 10.2549C10.3638 10.3553 10.3554 10.4265 10.3052 10.4683ZM16.4576 2.03079C16.4576 3.54586 16.4283 5.08604 16.3697 6.65134C16.3111 8.20826 16.2692 9.75681 16.2441 11.297C16.2357 12.0001 16.2399 12.6991 16.2567 13.3938C16.2818 14.0802 16.3069 14.7373 16.332 15.3651C16.3655 15.9845 16.3948 16.5537 16.4199 17.0727C16.445 17.5833 16.4576 18.0144 16.4576 18.3659C16.4576 18.6087 16.4492 18.8054 16.4325 18.9561C16.4157 19.0984 16.3864 19.1821 16.3446 19.2072C16.3027 19.249 16.265 19.2741 16.2316 19.2825C16.1981 19.2909 16.1646 19.2951 16.1311 19.2951C16.0976 19.2951 16.06 19.2951 16.0181 19.2951C15.9846 19.2867 15.9428 19.2951 15.8926 19.3202C15.834 19.3453 15.7963 19.3746 15.7795 19.4081C15.7628 19.4332 15.7461 19.4625 15.7293 19.496C15.7126 19.5294 15.6875 19.5629 15.654 19.5964C15.6205 19.6299 15.5619 19.6634 15.4782 19.6968C15.3694 19.722 15.2648 19.6927 15.1643 19.609C15.0722 19.5336 14.9802 19.4708 14.8881 19.4206C14.7458 19.3369 14.6286 19.2699 14.5365 19.2197C14.4528 19.1611 14.3733 19.0732 14.298 18.9561C14.2394 18.8556 14.1891 18.7049 14.1473 18.504C14.1054 18.2948 14.072 18.052 14.0468 17.7758C14.0217 17.4912 14.005 17.1773 13.9966 16.8341C13.9882 16.4909 13.9841 16.1352 13.9841 15.7669C13.9841 15.3483 13.9882 14.9298 13.9966 14.5113C14.005 14.0844 14.0134 13.6784 14.0217 13.2934C14.0385 12.9083 14.051 12.5609 14.0594 12.2512C14.0678 11.9415 14.0761 11.6904 14.0845 11.4979C14.1013 10.8952 14.1222 10.2632 14.1473 9.60196C14.1808 8.94068 14.2101 8.28359 14.2352 7.63069C14.2687 6.96942 14.3021 6.33325 14.3356 5.7222C14.3691 5.11115 14.4026 4.55451 14.4361 4.05228C14.4696 3.54167 14.4989 3.11059 14.524 2.75903C14.5574 2.39909 14.5909 2.14798 14.6244 2.00568C14.6746 1.82989 14.7625 1.72945 14.8881 1.70434C14.9467 1.67922 14.9927 1.68341 15.0262 1.71689C15.0681 1.75037 15.1141 1.72945 15.1643 1.65411C15.1811 1.61226 15.2062 1.58715 15.2396 1.57878C15.2731 1.57041 15.3066 1.56622 15.3401 1.56622C15.3736 1.56622 15.4071 1.56622 15.4405 1.56622C15.474 1.56622 15.5033 1.55785 15.5284 1.54111C15.5787 1.49089 15.6289 1.48252 15.6791 1.516C15.7377 1.54111 15.7795 1.56622 15.8047 1.59133C15.8298 1.64993 15.8633 1.69597 15.9051 1.72945C15.947 1.75456 15.993 1.74619 16.0432 1.70434C16.0683 1.67922 16.1018 1.66667 16.1437 1.66667C16.1939 1.66667 16.2274 1.68759 16.2441 1.72945C16.2692 1.7713 16.3111 1.81315 16.3697 1.85501C16.4283 1.89686 16.4576 1.95545 16.4576 2.03079ZM34.6761 2.75903C34.6342 2.84273 34.5924 2.9097 34.5505 2.95992C34.517 3.01014 34.4877 3.04781 34.4626 3.07292C34.4291 3.1064 34.3999 3.12733 34.3747 3.1357C34.3078 3.15244 34.1738 3.17755 33.973 3.21104C33.7721 3.23615 33.5 3.25707 33.1568 3.27382C32.9057 3.29056 32.5625 3.32822 32.1272 3.38682C31.692 3.43704 31.1939 3.50401 30.6331 3.58771C30.0806 3.66305 29.478 3.74257 28.8251 3.82627C28.1722 3.90998 27.4941 3.98113 26.791 4.03972C26.7241 5.2116 26.6738 6.40859 26.6403 7.63069C26.6152 8.85279 26.5943 10.0833 26.5776 11.3221C26.5608 12.5526 26.5441 13.783 26.5273 15.0135C26.519 16.2356 26.5022 17.4368 26.4771 18.617C26.4771 18.6589 26.4604 18.7008 26.4269 18.7426C26.3934 18.7761 26.3683 18.8054 26.3516 18.8305C26.3097 18.9979 26.2344 19.1444 26.1256 19.2699C26.0167 19.3871 25.9037 19.4457 25.7865 19.4457C25.435 19.4457 25.1629 19.3913 24.9704 19.2825C24.7863 19.1737 24.6272 19.0565 24.4933 18.9309C24.4347 18.8556 24.3761 18.7468 24.3175 18.6045C24.2673 18.4538 24.2213 18.2906 24.1794 18.1148C24.1375 17.9307 24.0999 17.7381 24.0664 17.5372C24.0329 17.328 24.012 17.1313 24.0036 16.9471C23.9869 16.763 23.9743 16.583 23.966 16.4072C23.9576 16.2314 23.9534 16.0515 23.9534 15.8673C23.9534 15.4655 23.966 15.0721 23.9911 14.6871C24.0162 14.302 24.0371 13.9421 24.0538 13.6073C24.0622 13.398 24.0748 13.1008 24.0915 12.7158C24.1166 12.3308 24.1459 11.8913 24.1794 11.3974C24.2129 10.9036 24.2506 10.3762 24.2924 9.81541C24.3343 9.24621 24.3845 8.67701 24.4431 8.10781C24.51 7.53861 24.5812 6.98616 24.6565 6.45044C24.7319 5.90636 24.8156 5.41249 24.9076 4.96885C24.9495 4.83492 24.9872 4.70518 25.0206 4.57962C25.0541 4.44569 25.0834 4.30758 25.1085 4.16528C24.3384 4.2155 23.5851 4.24061 22.8485 4.24061C21.9026 4.24061 21.0028 4.18621 20.149 4.07739C19.2952 3.9602 18.5669 3.75931 17.9643 3.47471C17.8889 3.43286 17.8471 3.35752 17.8387 3.2487C17.822 3.13989 17.7885 3.02688 17.7383 2.9097C17.6713 2.81762 17.6462 2.71717 17.6629 2.60836C17.6797 2.49117 17.688 2.39491 17.688 2.31957C17.6797 2.24424 17.7048 2.19401 17.7634 2.1689C17.8136 2.14379 17.9224 2.13542 18.0898 2.14379C18.2489 2.14379 18.4707 2.15216 18.7553 2.1689C19.0483 2.18564 19.4291 2.19401 19.8979 2.19401C20.2494 2.19401 20.6512 2.18564 21.1032 2.1689C21.5552 2.15216 22.07 2.12286 22.6476 2.08101C22.9322 2.0559 23.3423 2.01823 23.8781 1.96801C24.4221 1.90941 25.0332 1.85501 25.7112 1.80478C26.3976 1.74619 27.1258 1.69597 27.8959 1.65411C28.666 1.61226 29.4277 1.59133 30.1811 1.59133C30.4657 1.59133 30.7838 1.60807 31.1353 1.64156C31.4869 1.66667 31.8343 1.70434 32.1775 1.75456C32.529 1.80478 32.8513 1.86338 33.1443 1.93034C33.4456 1.99731 33.6925 2.06427 33.8851 2.13123C34.0106 2.18146 34.086 2.2275 34.1111 2.26935C34.1362 2.30283 34.1445 2.33213 34.1362 2.35724C34.1362 2.38235 34.132 2.40328 34.1236 2.42002C34.1153 2.43676 34.1362 2.4535 34.1864 2.47024C34.2366 2.48698 34.291 2.49954 34.3496 2.50791C34.4082 2.51628 34.4626 2.53302 34.5129 2.55813C34.5631 2.57487 34.6049 2.59999 34.6384 2.63347C34.6719 2.66695 34.6845 2.7088 34.6761 2.75903ZM48.4373 2.75903C48.3954 2.84273 48.3536 2.9097 48.3117 2.95992C48.2782 3.01014 48.2489 3.04781 48.2238 3.07292C48.1903 3.1064 48.161 3.12733 48.1359 3.1357C48.069 3.15244 47.935 3.17755 47.7341 3.21104C47.5333 3.23615 47.2612 3.25707 46.918 3.27382C46.6669 3.29056 46.3237 3.32822 45.8884 3.38682C45.4532 3.43704 44.9551 3.50401 44.3943 3.58771C43.8418 3.66305 43.2392 3.74257 42.5863 3.82627C41.9333 3.90998 41.2553 3.98113 40.5522 4.03972C40.4852 5.2116 40.435 6.40859 40.4015 7.63069C40.3764 8.85279 40.3555 10.0833 40.3388 11.3221C40.322 12.5526 40.3053 13.783 40.2885 15.0135C40.2802 16.2356 40.2634 17.4368 40.2383 18.617C40.2383 18.6589 40.2216 18.7008 40.1881 18.7426C40.1546 18.7761 40.1295 18.8054 40.1128 18.8305C40.0709 18.9979 39.9956 19.1444 39.8867 19.2699C39.7779 19.3871 39.6649 19.4457 39.5477 19.4457C39.1962 19.4457 38.9241 19.3913 38.7316 19.2825C38.5475 19.1737 38.3884 19.0565 38.2545 18.9309C38.1959 18.8556 38.1373 18.7468 38.0787 18.6045C38.0285 18.4538 37.9824 18.2906 37.9406 18.1148C37.8987 17.9307 37.8611 17.7381 37.8276 17.5372C37.7941 17.328 37.7732 17.1313 37.7648 16.9471C37.7481 16.763 37.7355 16.583 37.7271 16.4072C37.7188 16.2314 37.7146 16.0515 37.7146 15.8673C37.7146 15.4655 37.7271 15.0721 37.7523 14.6871C37.7774 14.302 37.7983 13.9421 37.815 13.6073C37.8234 13.398 37.836 13.1008 37.8527 12.7158C37.8778 12.3308 37.9071 11.8913 37.9406 11.3974C37.9741 10.9036 38.0117 10.3762 38.0536 9.81541C38.0954 9.24621 38.1457 8.67701 38.2043 8.10781C38.2712 7.53861 38.3424 6.98616 38.4177 6.45044C38.4931 5.90636 38.5768 5.41249 38.6688 4.96885C38.7107 4.83492 38.7484 4.70518 38.7818 4.57962C38.8153 4.44569 38.8446 4.30758 38.8697 4.16528C38.0996 4.2155 37.3463 4.24061 36.6097 4.24061C35.6638 4.24061 34.764 4.18621 33.9102 4.07739C33.0564 3.9602 32.3281 3.75931 31.7255 3.47471C31.6501 3.43286 31.6083 3.35752 31.5999 3.2487C31.5832 3.13989 31.5497 3.02688 31.4995 2.9097C31.4325 2.81762 31.4074 2.71717 31.4241 2.60836C31.4409 2.49117 31.4492 2.39491 31.4492 2.31957C31.4409 2.24424 31.466 2.19401 31.5246 2.1689C31.5748 2.14379 31.6836 2.13542 31.851 2.14379C32.0101 2.14379 32.2319 2.15216 32.5165 2.1689C32.8094 2.18564 33.1903 2.19401 33.6591 2.19401C34.0106 2.19401 34.4124 2.18564 34.8644 2.1689C35.3164 2.15216 35.8312 2.12286 36.4088 2.08101C36.6934 2.0559 37.1035 2.01823 37.6393 1.96801C38.1833 1.90941 38.7944 1.85501 39.4724 1.80478C40.1588 1.74619 40.887 1.69597 41.6571 1.65411C42.4272 1.61226 43.1889 1.59133 43.9423 1.59133C44.2269 1.59133 44.545 1.60807 44.8965 1.64156C45.2481 1.66667 45.5955 1.70434 45.9387 1.75456C46.2902 1.80478 46.6125 1.86338 46.9055 1.93034C47.2068 1.99731 47.4537 2.06427 47.6463 2.13123C47.7718 2.18146 47.8471 2.2275 47.8723 2.26935C47.8974 2.30283 47.9057 2.33213 47.8974 2.35724C47.8974 2.38235 47.8932 2.40328 47.8848 2.42002C47.8764 2.43676 47.8974 2.4535 47.9476 2.47024C47.9978 2.48698 48.0522 2.49954 48.1108 2.50791C48.1694 2.51628 48.2238 2.53302 48.274 2.55813C48.3243 2.57487 48.3661 2.59999 48.3996 2.63347C48.4331 2.66695 48.4456 2.7088 48.4373 2.75903ZM62.5375 8.77327C62.5458 8.86535 62.55 8.95324 62.55 9.03694C62.55 9.12065 62.55 9.20854 62.55 9.30062C62.55 10.2046 62.4245 11.1338 62.1734 12.088C61.9306 13.0423 61.5832 13.9505 61.1312 14.8126C60.6792 15.6664 60.1309 16.4449 59.4864 17.148C58.8419 17.8428 58.122 18.3869 57.3268 18.7803C56.8581 19.0063 56.3516 19.1737 55.8075 19.2825C55.2635 19.3913 54.7152 19.4457 54.1627 19.4457C53.7609 19.4457 53.3633 19.4164 52.9699 19.3578C52.5849 19.2992 52.2166 19.2239 51.865 19.1318C51.0782 18.9058 50.3709 18.5585 49.7431 18.0897C49.1237 17.6126 48.5921 17.0643 48.1485 16.4449C47.7048 15.8255 47.3533 15.16 47.0938 14.4485C46.8427 13.7286 46.6962 13.0171 46.6543 12.314C46.646 12.2136 46.6376 12.1131 46.6292 12.0127C46.6292 11.9122 46.6292 11.8118 46.6292 11.7113C46.6292 10.9329 46.7255 10.1586 46.918 9.38851C47.1105 8.61005 47.37 7.86925 47.6965 7.16612C48.0313 6.45463 48.4163 5.78917 48.8516 5.16975C49.2953 4.55033 49.764 4.00624 50.2579 3.53749C50.7601 3.06874 51.2707 2.68788 51.7897 2.39491C52.317 2.09357 52.8318 1.90523 53.334 1.82989C53.401 1.82152 53.4429 1.81734 53.4596 1.81734C53.4847 1.80897 53.5015 1.80478 53.5098 1.80478C53.5182 1.80478 53.5266 1.80897 53.5349 1.81734C53.5433 1.81734 53.5642 1.81315 53.5977 1.80478C53.7902 1.78804 53.9284 1.78386 54.0121 1.79223C54.0958 1.8006 54.146 1.81315 54.1627 1.82989C54.1795 1.85501 54.1753 1.87175 54.1502 1.88012C54.1334 1.88849 54.1041 1.90523 54.0623 1.93034C54.0455 1.93034 54.0246 1.93453 53.9995 1.9429C53.9828 1.95127 53.9828 1.96382 53.9995 1.98056C54.0162 2.02242 53.9995 2.06008 53.9493 2.09357C53.8991 2.12705 53.8656 2.15216 53.8488 2.1689C53.8321 2.18564 53.8279 2.1982 53.8363 2.20657C53.8447 2.21494 53.8488 2.21913 53.8488 2.21913C53.8572 2.21913 53.8572 2.22331 53.8488 2.23168C53.8488 2.24005 53.8321 2.25261 53.7986 2.26935C53.6982 2.33631 53.5893 2.39909 53.4722 2.45769C53.3633 2.50791 53.2503 2.57069 53.1332 2.64602C52.5305 3.08129 51.9989 3.64212 51.5386 4.32851C51.0782 5.01489 50.6931 5.77243 50.3834 6.60111C50.0737 7.4298 49.8393 8.30452 49.6803 9.22528C49.5213 10.1377 49.4417 11.0417 49.4417 11.9373C49.4417 12.0545 49.4417 12.1717 49.4417 12.2889C49.4417 12.3977 49.4459 12.5107 49.4543 12.6279C49.471 12.9878 49.5296 13.3813 49.6301 13.8082C49.7305 14.2351 49.8645 14.662 50.0319 15.0889C50.2076 15.5074 50.4169 15.9134 50.6597 16.3068C50.9108 16.7002 51.1954 17.0518 51.5135 17.3615C51.8315 17.6628 52.1873 17.9097 52.5807 18.1023C52.9741 18.2864 53.4052 18.3827 53.8739 18.391C54.5771 18.4162 55.2091 18.3031 55.7699 18.052C56.3307 17.8009 56.8246 17.4661 57.2515 17.0476C57.6867 16.6207 58.0592 16.1352 58.3689 15.5911C58.6786 15.0386 58.934 14.4736 59.1348 13.8961C59.3441 13.3101 59.5073 12.7367 59.6245 12.1759C59.7417 11.6067 59.8212 11.0961 59.8631 10.6441C59.8798 10.4683 59.8924 10.2925 59.9007 10.1167C59.9091 9.93259 59.9133 9.75681 59.9133 9.5894C59.9133 8.51797 59.771 7.56373 59.4864 6.72667C59.2102 5.88961 58.8377 5.1823 58.3689 4.60473C57.9086 4.02717 57.377 3.58353 56.7743 3.27382C56.1717 2.95573 55.5481 2.78414 54.9035 2.75903C54.8366 2.75066 54.757 2.75066 54.665 2.75903C54.5729 2.75903 54.4766 2.75903 54.3762 2.75903C54.2841 2.75903 54.2004 2.76321 54.1251 2.77158C54.0581 2.77158 54.0162 2.7674 53.9995 2.75903C53.8907 2.7088 53.8237 2.67114 53.7986 2.64602L53.7735 2.62091C53.7735 2.55395 53.7902 2.50372 53.8237 2.47024L53.9493 2.40746C53.9911 2.39072 54.0288 2.37398 54.0623 2.35724C54.1041 2.33213 54.1376 2.3112 54.1627 2.29446C54.1795 2.26935 54.1753 2.25261 54.1502 2.24424C54.1251 2.2275 54.1125 2.18983 54.1125 2.13123C54.0958 2.08938 54.1083 2.05171 54.1502 2.01823C54.192 1.97638 54.2213 1.95545 54.2381 1.95545C54.3134 1.93034 54.3636 1.91779 54.3887 1.91779C54.4222 1.90941 54.4641 1.90523 54.5143 1.90523C54.598 1.89686 54.665 1.88849 54.7152 1.88012C54.7738 1.86338 54.824 1.84664 54.8659 1.82989C54.9161 1.81315 54.9705 1.8006 55.0291 1.79223C55.0877 1.77549 55.1672 1.76293 55.2676 1.75456C55.343 1.73782 55.4267 1.72945 55.5188 1.72945C55.6108 1.72945 55.749 1.72108 55.9331 1.70434C56.653 1.68759 57.3101 1.7713 57.9044 1.95545C58.5071 2.13123 59.047 2.38654 59.5241 2.72136C60.0096 3.05618 60.4323 3.45378 60.7922 3.91416C61.1521 4.36617 61.4535 4.86004 61.6962 5.39575C61.9474 5.9231 62.1399 6.47555 62.2738 7.05312C62.4161 7.63069 62.504 8.20407 62.5375 8.77327ZM78.3704 1.95545C78.3871 2.10612 78.3955 2.42002 78.3955 2.89714C78.3955 3.36589 78.3871 3.94346 78.3704 4.62985C78.362 5.31623 78.3453 6.08214 78.3202 6.92756C78.3034 7.77299 78.2783 8.6519 78.2448 9.56429C78.2113 10.4683 78.1737 11.3807 78.1318 12.3015C78.0983 13.2139 78.0607 14.0802 78.0188 14.9005C77.977 15.7208 77.9309 16.47 77.8807 17.148C77.8305 17.8177 77.7803 18.3617 77.73 18.7803C77.73 18.8305 77.7049 18.8765 77.6547 18.9184C77.6128 18.9519 77.5668 19.0146 77.5166 19.1067C77.4664 19.1904 77.4161 19.2365 77.3659 19.2448C77.3157 19.2532 77.2738 19.2532 77.2404 19.2448C77.2069 19.2365 77.1818 19.2365 77.165 19.2448C77.1483 19.2532 77.1483 19.2951 77.165 19.3704C77.1818 19.4206 77.1525 19.4625 77.0771 19.496C77.0102 19.5211 76.9516 19.5127 76.9014 19.4708C76.8344 19.4206 76.7549 19.362 76.6628 19.2951C76.5707 19.2197 76.5121 19.1821 76.487 19.1821C76.4368 19.1737 76.42 19.1946 76.4368 19.2448C76.4535 19.2951 76.4745 19.3495 76.4996 19.4081C76.533 19.4667 76.554 19.5211 76.5623 19.5713C76.5791 19.6299 76.554 19.6634 76.487 19.6717C76.3615 19.6885 76.215 19.6592 76.0476 19.5838C75.8885 19.5085 75.7378 19.4206 75.5955 19.3202C75.4784 19.2281 75.3026 19.023 75.0682 18.7049C74.8338 18.3869 74.5534 17.9851 74.227 17.4996C73.9089 17.0057 73.5531 16.4449 73.1597 15.8171C72.7747 15.1893 72.3729 14.5197 71.9544 13.8082C71.5358 13.0967 71.1089 12.3601 70.6737 11.5983C70.2384 10.8366 69.8157 10.0791 69.4055 9.32573C68.9954 8.56401 68.6019 7.82321 68.2253 7.10335C67.8486 6.38348 67.5096 5.71383 67.2082 5.09441C67.1748 5.44597 67.1455 5.92728 67.1204 6.53833C67.0952 7.14101 67.0701 7.81484 67.045 8.55982C67.0283 9.29643 67.0115 10.0749 66.9948 10.8952C66.9781 11.7155 66.9613 12.5233 66.9446 13.3185C66.9362 14.1137 66.9278 14.867 66.9195 15.5785C66.9111 16.29 66.9027 16.9011 66.8944 17.4117C66.8944 17.7465 66.886 17.9851 66.8692 18.1274C66.8609 18.2613 66.8483 18.3534 66.8316 18.4036C66.8232 18.4538 66.8106 18.4915 66.7939 18.5166C66.7855 18.5333 66.7855 18.5919 66.7939 18.6924C66.7939 18.9602 66.7772 19.2072 66.7437 19.4332C66.7102 19.6508 66.6349 19.7722 66.5177 19.7973C66.4507 19.8308 66.3879 19.8182 66.3293 19.7596C66.2707 19.7094 66.1954 19.6968 66.1033 19.722C66.0782 19.722 66.0447 19.7429 66.0029 19.7847C65.9694 19.835 65.9066 19.8601 65.8145 19.8601C65.7392 19.8601 65.6471 19.8266 65.5383 19.7596C65.4295 19.6927 65.3584 19.5713 65.3249 19.3955L65.2746 18.9309C65.2663 18.8807 65.2537 18.8472 65.237 18.8305C65.2286 18.8138 65.2161 18.7886 65.1993 18.7552C65.1909 18.7217 65.1826 18.6673 65.1742 18.5919C65.1658 18.5082 65.1575 18.3701 65.1491 18.1776C65.1491 18.1274 65.1575 17.893 65.1742 17.4745C65.1909 17.0476 65.2119 16.4993 65.237 15.8297C65.2705 15.16 65.3039 14.3983 65.3374 13.5445C65.3793 12.6907 65.4211 11.8076 65.463 10.8952C65.5132 9.98282 65.5592 9.07461 65.6011 8.17059C65.6513 7.26657 65.7015 6.42952 65.7518 5.65942C65.8104 4.88933 65.8648 4.21969 65.915 3.65049C65.9652 3.07292 66.0113 2.66276 66.0531 2.42002C66.0113 2.31957 65.9778 2.22331 65.9527 2.13123C65.9359 2.03916 65.9276 1.95545 65.9276 1.88012C65.9192 1.82989 65.9234 1.79641 65.9401 1.77967C65.9652 1.76293 65.9945 1.75037 66.028 1.742C66.0699 1.72526 66.1117 1.70852 66.1536 1.69178C66.1954 1.67504 66.2373 1.64156 66.2791 1.59133C66.2959 1.56622 66.3084 1.50763 66.3168 1.41555C66.3335 1.31511 66.3628 1.26488 66.4047 1.26488C66.5219 1.26488 66.6181 1.23977 66.6935 1.18955C66.7688 1.13095 66.8734 1.09329 67.0074 1.07654C67.0074 0.934245 67.045 0.842169 67.1204 0.800316C67.1538 0.775204 67.1915 0.766834 67.2334 0.775204C67.3757 0.791945 67.4845 0.850539 67.5598 0.950986C67.6435 1.04306 67.7063 1.13095 67.7481 1.21466C67.79 1.31511 67.8235 1.39044 67.8486 1.44066C67.8737 1.49089 67.9072 1.56204 67.949 1.65411C68.0076 1.74619 68.1206 1.9429 68.288 2.24424C68.4638 2.54558 68.6773 2.92225 68.9284 3.37426C69.1795 3.82627 69.4641 4.33688 69.7822 4.90607C70.1003 5.4669 70.4309 6.0654 70.7741 6.70156C71.1257 7.32935 71.4856 7.97388 71.8539 8.63516C72.2222 9.28806 72.5821 9.92841 72.9337 10.5562C73.2853 11.184 73.6201 11.7825 73.9382 12.3517C74.2563 12.9209 74.545 13.4357 74.8045 13.8961C75.064 14.3481 75.2816 14.7289 75.4574 15.0386C75.6332 15.34 75.7546 15.5409 75.8215 15.6413C75.989 15.8841 76.1061 16.0222 76.1731 16.0557C76.2401 16.0808 76.3196 16.0012 76.4117 15.8171C76.4535 15.7334 76.4912 15.5409 76.5247 15.2395C76.5665 14.9298 76.6042 14.5406 76.6377 14.0718C76.6795 13.6031 76.713 13.0716 76.7381 12.4772C76.7716 11.8829 76.8009 11.2593 76.826 10.6064C76.8511 9.95352 76.8721 9.28388 76.8888 8.59749C76.9055 7.9111 76.9139 7.24564 76.9139 6.60111C76.9223 5.95658 76.9223 5.34971 76.9139 4.78052C76.9139 4.21132 76.9014 3.70908 76.8762 3.27382C76.8679 3.03944 76.8637 2.83018 76.8637 2.64602C76.8637 2.48698 76.8721 2.3405 76.8888 2.20657C76.9055 2.07264 76.9348 2.00568 76.9767 2.00568C77.0353 1.96382 77.0855 1.93871 77.1274 1.93034C77.1776 1.9136 77.2152 1.90941 77.2404 1.91779C77.2738 1.91779 77.3031 1.92197 77.3282 1.93034C77.3534 1.93871 77.3743 1.93871 77.391 1.93034C77.4078 1.92197 77.4161 1.90941 77.4161 1.89267C77.4161 1.87593 77.4161 1.85501 77.4161 1.82989C77.4245 1.80478 77.4371 1.77967 77.4538 1.75456C77.4705 1.72108 77.5082 1.69597 77.5668 1.67922C77.6338 1.65411 77.684 1.64156 77.7175 1.64156C77.7593 1.63319 77.7928 1.63319 77.8179 1.64156C77.843 1.64993 77.864 1.6583 77.8807 1.66667C77.8974 1.67504 77.9226 1.67085 77.956 1.65411C78.023 1.62063 78.0774 1.59133 78.1193 1.56622C78.1611 1.53274 78.1988 1.52018 78.2323 1.52855C78.2658 1.53692 78.2909 1.57459 78.3076 1.64156C78.3327 1.70015 78.3536 1.80478 78.3704 1.95545ZM94.58 17.2359C94.58 17.2694 94.559 17.3322 94.5172 17.4242C94.4753 17.5163 94.4251 17.6126 94.3665 17.713C94.3163 17.8135 94.2577 17.9097 94.1907 18.0018C94.1321 18.0855 94.0819 18.1357 94.0401 18.1525C94.015 18.1692 93.902 18.2153 93.7011 18.2906C93.5085 18.3576 93.2491 18.4413 92.9226 18.5417C92.5961 18.6338 92.2111 18.7342 91.7675 18.8431C91.3322 18.9519 90.8551 19.0565 90.3361 19.1569C89.8255 19.249 89.2772 19.3285 88.6913 19.3955C88.1137 19.4541 87.5236 19.4876 86.9209 19.496C86.4187 19.5127 85.9499 19.5294 85.5147 19.5462C85.0794 19.5629 84.6734 19.5713 84.2967 19.5713C84.0875 19.5713 83.8866 19.5671 83.6941 19.5587C83.5099 19.5504 83.3341 19.5378 83.1667 19.5211C82.9323 19.496 82.7063 19.4667 82.4887 19.4332C82.2962 19.3997 82.0953 19.3578 81.886 19.3076C81.6851 19.2574 81.5093 19.1904 81.3587 19.1067C81.3168 19.0984 81.2792 19.0774 81.2457 19.0439C81.1787 18.9937 81.1494 18.9226 81.1578 18.8305C81.0824 18.7886 81.028 18.7426 80.9946 18.6924C80.9778 18.6673 80.9653 18.6505 80.9569 18.6422C80.9569 18.6254 80.9611 18.6045 80.9694 18.5794C80.9778 18.5459 81.0155 18.4831 81.0824 18.391C81.0239 18.3827 80.9778 18.3659 80.9443 18.3408C80.9192 18.3157 80.8983 18.2864 80.8816 18.2529C80.8564 18.2194 80.8439 18.1776 80.8439 18.1274C80.8439 18.0771 80.8523 18.0269 80.869 17.9767C80.8857 17.9348 80.9067 17.8888 80.9318 17.8386C80.9653 17.78 81.0155 17.7214 81.0824 17.6628C81.0824 17.554 81.095 17.4745 81.1201 17.4242C81.1285 17.3908 81.141 17.3698 81.1578 17.3615C81.1662 17.3364 81.1996 17.3112 81.2582 17.2861C81.3168 17.261 81.3838 17.2401 81.4591 17.2233C81.5345 17.2066 81.6098 17.1941 81.6851 17.1857C81.7688 17.1773 81.84 17.1773 81.8986 17.1857L81.9237 17.2108C81.9404 16.6583 81.9614 16.0598 81.9865 15.4153C82.0116 14.7708 82.0367 14.1723 82.0618 13.6198C82.0953 12.9753 82.1288 12.3349 82.1622 11.6988C82.1957 10.9119 82.246 10.0833 82.3129 9.21273C82.3715 8.46775 82.4427 7.63069 82.5264 6.70156C82.6101 5.77243 82.7189 4.82655 82.8528 3.86394L81.4089 3.88905C81.3168 3.88905 81.2289 3.8765 81.1452 3.85138C81.0783 3.83464 81.0071 3.80535 80.9318 3.76349C80.8564 3.72164 80.802 3.65886 80.7686 3.57516C80.6346 3.55841 80.5342 3.5333 80.4672 3.49982C80.4086 3.46634 80.3626 3.43286 80.3291 3.39937C80.2956 3.36589 80.2789 3.32404 80.2789 3.27382C80.2956 3.18174 80.3249 3.11059 80.3668 3.06037C80.4086 3.01014 80.4923 2.95155 80.6179 2.88458C80.7602 2.83436 80.8606 2.77158 80.9192 2.69625C80.9862 2.61254 81.0573 2.56232 81.1327 2.54558C81.1662 2.53721 81.3629 2.49954 81.7228 2.43257C82.0827 2.35724 82.5389 2.27353 83.0914 2.18146C83.6438 2.08101 84.2633 1.98894 84.9496 1.90523C85.636 1.81315 86.3182 1.74619 86.9962 1.70434C87.5738 1.66248 88.1472 1.63737 88.7164 1.629C89.294 1.62063 89.8339 1.61645 90.3361 1.61645C91.0225 1.61645 91.6001 1.62482 92.0688 1.64156C92.5376 1.6583 92.818 1.67922 92.91 1.70434C92.9686 1.72108 93.0272 1.75037 93.0858 1.79223C93.1277 1.83408 93.1737 1.89267 93.2239 1.96801C93.2742 2.03497 93.316 2.12705 93.3495 2.24424C93.4165 2.27772 93.4625 2.3112 93.4876 2.34468C93.5211 2.3698 93.5462 2.39491 93.5629 2.42002L93.6006 2.49535C93.6006 2.54558 93.6006 2.60836 93.6006 2.68369C93.6006 2.75066 93.5922 2.80925 93.5755 2.85947C93.5671 2.87621 93.5504 2.89296 93.5253 2.9097C93.5085 2.92644 93.4834 2.94318 93.4499 2.95992C93.4248 2.97666 93.3914 2.9934 93.3495 3.01014C93.3579 3.12733 93.3579 3.21941 93.3495 3.28637C93.3411 3.35334 93.3286 3.40774 93.3118 3.4496C93.2951 3.49145 93.2742 3.52493 93.2491 3.55004C93.1905 3.5919 93.09 3.62538 92.9477 3.65049C92.8138 3.66723 92.5627 3.6756 92.1944 3.6756L84.4223 3.83883C84.3972 4.08157 84.3721 4.37036 84.347 4.70518C84.3302 5.03163 84.3093 5.3832 84.2842 5.75987C84.2674 6.13655 84.2465 6.52159 84.2214 6.91501C84.2047 7.30842 84.1879 7.68928 84.1712 8.05759C84.1544 8.41752 84.1377 8.75234 84.121 9.06206C84.1042 9.37177 84.0917 9.62707 84.0833 9.82796C84.4014 9.73589 84.7529 9.66474 85.138 9.61451C85.523 9.55592 85.883 9.50988 86.2178 9.4764C86.6112 9.44292 87.0004 9.41362 87.3855 9.38851C87.6282 9.37177 87.8626 9.3634 88.0886 9.3634C88.3146 9.3634 88.5322 9.3634 88.7415 9.3634C89.5786 9.3634 90.2231 9.38014 90.6751 9.41362C91.1355 9.4471 91.3992 9.47221 91.4661 9.48895C91.5163 9.49732 91.5708 9.53081 91.6293 9.5894C91.6879 9.64799 91.7424 9.71914 91.7926 9.80285C91.8428 9.87818 91.8847 9.96608 91.9181 10.0665C91.96 10.1586 91.9809 10.2423 91.9809 10.3176C91.9809 10.4599 91.9432 10.6106 91.8679 10.7696C91.7926 10.9287 91.7298 11.0584 91.6796 11.1589C91.6126 11.2677 91.5247 11.3723 91.4159 11.4728C91.3071 11.5732 91.215 11.6151 91.1397 11.5983C91.1146 11.5983 91.0099 11.5941 90.8258 11.5858C90.6416 11.5774 90.4114 11.569 90.1352 11.5607C89.8673 11.5439 89.5744 11.5314 89.2563 11.523C88.9382 11.5146 88.6285 11.5063 88.3272 11.4979C88.0258 11.4895 87.7538 11.4853 87.511 11.4853C87.2767 11.477 87.1051 11.4728 86.9962 11.4728C86.8623 11.4728 86.6656 11.4853 86.4061 11.5104C86.1885 11.5272 85.8871 11.5565 85.5021 11.5983C85.1171 11.6402 84.6274 11.6988 84.0331 11.7741C84.0163 12.1173 84.008 12.4772 84.008 12.8539C84.008 13.2306 84.008 13.6282 84.008 14.0467C84.008 14.6243 84.0163 15.1977 84.0331 15.7669C84.0498 16.3277 84.0791 16.8341 84.121 17.2861H85.477C85.9541 17.2861 86.427 17.2819 86.8958 17.2736C87.3645 17.2568 87.7914 17.2359 88.1765 17.2108C88.7373 17.1689 89.2689 17.1229 89.7711 17.0727C90.2817 17.0225 90.7379 16.9764 91.1397 16.9346C91.5415 16.8927 91.8763 16.8634 92.1441 16.8467C92.412 16.8216 92.5794 16.8132 92.6464 16.8216C92.7133 16.8383 92.8012 16.8425 92.91 16.8341C93.0272 16.8257 93.1486 16.8132 93.2742 16.7964C93.3997 16.7797 93.5211 16.763 93.6383 16.7462C93.7555 16.7295 93.8475 16.7127 93.9145 16.696C93.9731 16.6876 94.0401 16.7044 94.1154 16.7462C94.1907 16.7797 94.2619 16.8299 94.3289 16.8969C94.3958 16.9555 94.4502 17.0183 94.4921 17.0852C94.5423 17.1522 94.5716 17.2024 94.58 17.2359ZM108.944 3.18592C108.877 3.52912 108.714 3.86812 108.454 4.20295C108.203 4.5294 107.918 4.80981 107.6 5.04419C107.559 5.08604 107.475 5.13208 107.349 5.1823C107.232 5.23253 107.102 5.28693 106.96 5.34553C106.826 5.39575 106.692 5.44179 106.558 5.48364C106.424 5.5255 106.32 5.55061 106.244 5.55898C106.177 5.57572 106.123 5.57153 106.081 5.54642C106.048 5.52131 106.014 5.49201 105.981 5.45853C105.947 5.42505 105.905 5.39575 105.855 5.37064C105.813 5.33716 105.75 5.32042 105.667 5.32042C105.566 5.32042 105.504 5.29949 105.478 5.25764C105.462 5.20741 105.474 5.11952 105.516 4.99396C105.533 4.95211 105.562 4.89352 105.604 4.81818C105.646 4.74285 105.713 4.64659 105.805 4.5294C105.872 4.45406 105.926 4.37036 105.968 4.27828C106.018 4.18621 106.027 4.1025 105.993 4.02717C105.968 3.94346 105.889 3.8765 105.755 3.82627C105.621 3.77605 105.411 3.75094 105.127 3.75094C104.834 3.75094 104.457 3.7886 103.997 3.86394C103.495 3.9309 102.971 4.05646 102.427 4.24061C101.892 4.42477 101.368 4.63822 100.858 4.88096C100.356 5.12371 99.8911 5.3832 99.4642 5.65942C99.0373 5.93565 98.6857 6.2077 98.4095 6.47555C98.1416 6.73504 97.97 6.98197 97.8947 7.21635C97.8194 7.44235 97.8821 7.6265 98.083 7.7688C98.2588 7.89436 98.5267 8.00318 98.8866 8.09526C99.2465 8.17896 99.6609 8.25848 100.13 8.33382C100.598 8.40078 101.101 8.47612 101.636 8.55982C102.172 8.63516 102.704 8.72723 103.231 8.83605C103.767 8.94487 104.273 9.0788 104.75 9.23784C105.236 9.39688 105.663 9.59359 106.031 9.82796C106.29 10.0037 106.508 10.1712 106.684 10.3302C106.86 10.4892 107.002 10.6483 107.111 10.8073C107.22 10.958 107.307 11.1087 107.374 11.2593C107.441 11.4016 107.5 11.5481 107.55 11.6988C107.584 11.7909 107.642 11.8955 107.726 12.0127C107.818 12.1215 107.914 12.2554 108.015 12.4145C108.115 12.5735 108.207 12.7577 108.291 12.9669C108.375 13.1678 108.429 13.4064 108.454 13.6826C108.488 14.2351 108.375 14.7582 108.115 15.2521C107.864 15.7459 107.533 16.2021 107.123 16.6207C106.721 17.0392 106.274 17.4159 105.78 17.7507C105.286 18.0771 104.813 18.3492 104.361 18.5668C103.968 18.7593 103.549 18.9393 103.105 19.1067C102.662 19.2741 102.206 19.4206 101.737 19.5462C101.268 19.6634 100.791 19.7554 100.305 19.8224C99.8283 19.8977 99.3554 19.9354 98.8866 19.9354C98.1082 19.9354 97.3757 19.8266 96.6893 19.609C96.0113 19.3997 95.4212 19.0439 94.919 18.5417C94.6762 18.2822 94.5004 18.0227 94.3916 17.7632C94.2828 17.4954 94.2284 17.2317 94.2284 16.9722C94.2284 16.6625 94.2912 16.3612 94.4167 16.0682C94.5423 15.7752 94.7055 15.499 94.9064 15.2395C95.1073 14.98 95.3291 14.7498 95.5719 14.549C95.8146 14.3397 96.0532 14.1723 96.2876 14.0467C96.614 13.8626 96.953 13.6868 97.3046 13.5194C97.6645 13.3436 98.0244 13.1887 98.3844 13.0548C98.7443 12.9125 99.1043 12.7953 99.4642 12.7032C99.8241 12.6112 100.171 12.5526 100.506 12.5275C100.649 12.5107 100.829 12.494 101.046 12.4772C101.264 12.4605 101.469 12.4521 101.661 12.4521C101.787 12.4521 101.892 12.4856 101.975 12.5526C102.059 12.6195 102.093 12.6781 102.076 12.7284C102.034 12.8204 101.959 12.8665 101.85 12.8665C101.749 12.8665 101.628 12.8832 101.486 12.9167C101.327 12.9585 101.168 12.9878 101.009 13.0046C100.85 13.0213 100.707 13.0506 100.582 13.0925C99.6274 13.3101 98.8197 13.5863 98.1584 13.9212C97.5055 14.256 96.9823 14.595 96.5889 14.9382C96.2039 15.2814 95.9402 15.6078 95.7979 15.9175C95.6556 16.2189 95.6137 16.4491 95.6723 16.6081C95.756 16.8341 95.9109 17.0099 96.1369 17.1355C96.3629 17.261 96.6182 17.3531 96.9028 17.4117C97.1874 17.4619 97.4762 17.4912 97.7691 17.4996C98.0621 17.5079 98.3132 17.5038 98.5225 17.487C99.008 17.4619 99.5479 17.3908 100.142 17.2736C100.745 17.1564 101.352 17.0015 101.963 16.809C102.582 16.6165 103.185 16.3905 103.771 16.131C104.357 15.8631 104.876 15.5743 105.328 15.2646C105.78 14.9466 106.144 14.6075 106.42 14.2476C106.696 13.8793 106.834 13.4943 106.834 13.0925C106.834 12.9585 106.814 12.8288 106.772 12.7032C106.738 12.5693 106.688 12.4312 106.621 12.2889C106.495 12.0462 106.257 11.8411 105.905 11.6737C105.554 11.4979 105.131 11.3514 104.637 11.2342C104.152 11.1087 103.62 10.9998 103.043 10.9078C102.473 10.8073 101.908 10.7069 101.348 10.6064C100.795 10.506 100.268 10.393 99.7655 10.2674C99.2633 10.1419 98.8406 9.987 98.4974 9.80285C98.1123 9.59359 97.8277 9.38851 97.6436 9.18761C97.4678 8.97835 97.3674 8.71886 97.3422 8.40915C97.3339 8.37567 97.3088 8.31708 97.2669 8.23337C97.2251 8.14966 97.1748 8.06177 97.1162 7.9697C97.066 7.87762 97.0158 7.78973 96.9656 7.70603C96.9153 7.62232 96.8777 7.55536 96.8526 7.50513C96.7186 7.26239 96.6517 6.99871 96.6517 6.71411C96.6517 6.39603 96.7228 6.06958 96.8651 5.73476C97.0158 5.39994 97.1999 5.11115 97.4176 4.86841C97.8194 4.40803 98.3467 3.98113 98.9996 3.58771C99.6609 3.1943 100.381 2.8511 101.159 2.55813C101.938 2.26516 102.737 2.03079 103.557 1.85501C104.386 1.67085 105.169 1.56622 105.905 1.54111C106.207 1.53274 106.546 1.55367 106.922 1.60389C107.299 1.65411 107.646 1.74619 107.964 1.88012C108.291 2.00568 108.55 2.17727 108.743 2.39491C108.935 2.60417 109.002 2.86784 108.944 3.18592ZM123.471 2.67114C123.454 3.05618 123.433 3.55841 123.408 4.17784C123.391 4.78889 123.37 5.47527 123.345 6.23699C123.329 6.99034 123.308 7.79392 123.283 8.64771C123.266 9.50151 123.249 10.3595 123.232 11.2217C123.216 12.0838 123.203 12.9251 123.195 13.7454C123.186 14.5657 123.182 15.3232 123.182 16.018C123.182 16.7964 123.186 17.4619 123.195 18.0144C123.211 18.5668 123.232 18.9477 123.257 19.1569C123.274 19.2239 123.274 19.2699 123.257 19.2951C123.249 19.3202 123.232 19.3369 123.207 19.3453C123.182 19.3537 123.153 19.362 123.119 19.3704C123.086 19.3704 123.057 19.3788 123.031 19.3955C123.006 19.4122 122.994 19.4374 122.994 19.4708C122.994 19.5043 122.994 19.5378 122.994 19.5713C122.994 19.6048 122.99 19.6341 122.981 19.6592C122.973 19.6843 122.948 19.6968 122.906 19.6968C122.638 19.6968 122.437 19.6717 122.303 19.6215C122.178 19.5713 122.061 19.4876 121.952 19.3704C121.826 19.2365 121.713 19.0858 121.613 18.9184C121.521 18.751 121.462 18.5585 121.437 18.3408C121.429 18.2655 121.416 18.165 121.399 18.0395C121.382 17.9139 121.362 17.7758 121.336 17.6251C121.32 17.4661 121.303 17.2945 121.286 17.1103C121.278 16.9262 121.278 16.7337 121.286 16.5328C121.286 16.2984 121.282 16.0682 121.274 15.8422C121.265 15.6162 121.253 15.3944 121.236 15.1767C121.136 15.4362 121.018 15.7334 120.884 16.0682C120.751 16.3947 120.587 16.7295 120.395 17.0727C120.202 17.4159 119.98 17.7507 119.729 18.0771C119.487 18.4036 119.202 18.6966 118.876 18.9561C118.557 19.2072 118.197 19.4122 117.796 19.5713C117.394 19.722 116.946 19.7973 116.452 19.7973C116.059 19.7973 115.644 19.7471 115.209 19.6466C114.632 19.496 114.134 19.2741 113.715 18.9812C113.297 18.6882 112.941 18.3324 112.648 17.9139C112.355 17.487 112.112 17.0057 111.92 16.47C111.735 15.9259 111.581 15.3316 111.455 14.6871C111.413 14.4527 111.38 14.1974 111.355 13.9212C111.338 13.6366 111.329 13.3185 111.329 12.9669C111.329 12.2554 111.363 11.4644 111.43 10.5939C111.497 9.72333 111.572 8.84024 111.656 7.94459C111.74 7.04894 111.819 6.17421 111.894 5.32042C111.97 4.45825 112.016 3.68816 112.033 3.01014C112.033 2.79251 112.049 2.6251 112.083 2.50791C112.125 2.38235 112.233 2.28609 112.409 2.21913C112.443 2.21075 112.476 2.21494 112.51 2.23168C112.543 2.24005 112.577 2.24842 112.61 2.25679C112.644 2.25679 112.681 2.24842 112.723 2.23168C112.765 2.21494 112.807 2.18146 112.849 2.13123C112.899 2.0559 112.945 2.01823 112.987 2.01823C113.029 2.00986 113.062 2.02242 113.087 2.0559C113.121 2.08938 113.15 2.12705 113.175 2.1689C113.209 2.21075 113.238 2.23587 113.263 2.24424C113.297 2.26098 113.347 2.30283 113.414 2.3698C113.489 2.43676 113.56 2.51628 113.627 2.60836C113.694 2.69206 113.753 2.77995 113.803 2.87203C113.853 2.95573 113.878 3.02688 113.878 3.08548C113.878 3.15244 113.903 3.27382 113.954 3.4496C114.004 3.62538 114.037 3.87231 114.054 4.19039C114.079 4.60055 114.079 5.0986 114.054 5.68454C114.037 6.2621 114.008 6.88571 113.966 7.55536C113.924 8.21663 113.878 8.89464 113.828 9.5894C113.778 10.2842 113.732 10.9538 113.69 11.5983C113.648 12.2429 113.615 12.8372 113.589 13.3813C113.564 13.917 113.564 14.3606 113.589 14.7122C113.648 15.5158 113.715 16.1477 113.79 16.6081C113.874 17.0601 113.962 17.3112 114.054 17.3615C114.146 17.4117 114.255 17.4452 114.381 17.4619C114.514 17.4786 114.69 17.487 114.908 17.487C116.13 17.4284 117.147 17.2024 117.959 16.809C118.771 16.4072 119.424 15.8171 119.918 15.0386C120.42 14.2602 120.788 13.2766 121.023 12.088C121.265 10.891 121.42 9.46803 121.487 7.81903C121.512 7.13264 121.542 6.52159 121.575 5.98588C121.608 5.45016 121.642 4.96467 121.675 4.5294C121.717 4.09413 121.759 3.69653 121.801 3.33659C121.851 2.97666 121.901 2.62928 121.952 2.29446C121.968 2.24424 122.01 2.20238 122.077 2.1689C122.144 2.13542 122.207 2.10612 122.266 2.08101C122.307 2.03916 122.328 2.00149 122.328 1.96801C122.337 1.92616 122.374 1.89686 122.441 1.88012C122.475 1.87175 122.521 1.86338 122.579 1.85501C122.638 1.83826 122.697 1.83826 122.755 1.85501C122.822 1.86338 122.881 1.8843 122.931 1.91779C122.99 1.95127 123.031 2.00568 123.057 2.08101C123.082 2.13961 123.132 2.18146 123.207 2.20657C123.283 2.23168 123.345 2.26935 123.396 2.31957C123.421 2.36142 123.442 2.40746 123.458 2.45769C123.483 2.50791 123.488 2.57906 123.471 2.67114Z" fill="white"/>
</svg>
