<svg width="308" height="312" viewBox="0 0 308 312" fill="none" xmlns="http://www.w3.org/2000/svg">
<path fill-rule="evenodd" clip-rule="evenodd" d="M111 56.2416C128.769 42.9793 154.479 45.7434 175.961 51.1512C196.462 56.3121 212.387 70.9651 227.608 85.5959C242.354 99.7708 263.329 114.006 262.617 134.45C261.875 155.741 231.699 164.06 224.178 184.012C217.364 202.087 232.203 223.97 222.556 240.716C212.148 258.781 191.922 269.777 171.731 275.051C150.058 280.712 126.769 279.559 106.041 271.15C84.6187 262.459 61.9793 249.078 54.1623 227.356C46.4894 206.034 60.0968 183.584 66.7205 161.886C71.6574 145.713 81.3439 132.492 87.8824 116.892C96.4195 96.5239 93.2803 69.4675 111 56.2416Z" fill="#3CFAC7" fill-opacity="0.6"/>
<path fill-rule="evenodd" clip-rule="evenodd" d="M134.942 64.8245C152.756 53.5301 171.993 38.3937 192.633 42.883C213.286 47.3748 224.503 69.2826 236.324 86.8751C246.669 102.27 255.608 118.882 256.152 137.412C256.674 155.152 244.623 169.554 239.252 186.444C231.716 210.143 240.609 245.15 218.389 256.174C196.526 267.022 175.637 235.354 151.826 229.822C128.381 224.374 96.4711 243.436 81.6363 224.4C66.4993 204.977 88.8265 177.551 92.0877 153.166C94.3766 136.051 90.3513 118.475 97.8771 102.961C105.818 86.5906 119.603 74.5495 134.942 64.8245Z" fill="#3CFAC7"/>
<path fill-rule="evenodd" clip-rule="evenodd" d="M69.2359 112.909C78.2364 92.4187 95.8946 76.621 115.027 67.4156C133.115 58.7129 151.812 65.2754 170.913 63.9878C195.212 62.3499 223.322 44.2694 242.038 58.8539C260.601 73.32 258.273 105.234 257.246 131.266C256.341 154.223 244.119 174.51 236.6 196.76C227.181 224.633 231.809 263.008 207.688 277.922C183.652 292.784 158.848 267.01 133.812 260.317C113.13 254.787 87.2823 259.379 73.9365 242.165C60.7703 225.183 68.5745 198.244 67.7323 175.084C66.9653 153.993 60.4634 132.88 69.2359 112.909Z" fill="#FFD12F"/>
<path d="M131.065 223.247L136.29 233.218L141.604 223.247H146.052L138.35 237.039V244.443H134.26V236.98L126.587 223.247H131.065ZM152.482 244.742C150.77 244.742 149.297 244.374 148.063 243.637C146.849 242.881 145.914 241.886 145.257 240.652C144.6 239.418 144.272 238.084 144.272 236.651C144.272 235.198 144.6 233.855 145.257 232.621C145.934 231.387 146.879 230.402 148.093 229.665C149.327 228.909 150.79 228.531 152.482 228.531C154.174 228.531 155.627 228.909 156.841 229.665C158.075 230.402 159.02 231.387 159.677 232.621C160.334 233.855 160.662 235.198 160.662 236.651C160.662 238.084 160.334 239.418 159.677 240.652C159.02 241.886 158.075 242.881 156.841 243.637C155.627 244.374 154.174 244.742 152.482 244.742ZM148.392 236.651C148.392 237.567 148.571 238.383 148.929 239.099C149.287 239.796 149.775 240.343 150.392 240.741C151.009 241.139 151.706 241.338 152.482 241.338C153.238 241.338 153.925 241.139 154.542 240.741C155.159 240.323 155.646 239.766 156.005 239.07C156.383 238.353 156.572 237.537 156.572 236.621C156.572 235.726 156.383 234.93 156.005 234.233C155.646 233.517 155.159 232.959 154.542 232.561C153.925 232.143 153.238 231.934 152.482 231.934C151.706 231.934 151.009 232.143 150.392 232.561C149.775 232.959 149.287 233.517 148.929 234.233C148.571 234.93 148.392 235.736 148.392 236.651ZM169.482 244.533C168.089 244.533 166.865 244.175 165.81 243.458C164.755 242.742 163.929 241.786 163.332 240.592C162.735 239.378 162.437 238.054 162.437 236.621C162.437 235.109 162.745 233.745 163.362 232.531C163.979 231.297 164.835 230.322 165.93 229.606C167.024 228.889 168.288 228.531 169.721 228.531C170.935 228.531 172 228.809 172.916 229.367C173.831 229.904 174.588 230.631 175.185 231.546V228.8H178.678V243.697C178.678 245.249 178.3 246.573 177.543 247.668C176.807 248.782 175.782 249.628 174.468 250.205C173.155 250.802 171.662 251.101 169.99 251.101C168.278 251.101 166.835 250.812 165.661 250.235C164.507 249.678 163.512 248.882 162.676 247.847L164.855 245.727C165.452 246.464 166.198 247.041 167.094 247.459C168.01 247.877 168.975 248.086 169.99 248.086C170.826 248.086 171.592 247.926 172.289 247.608C173.005 247.309 173.582 246.832 174.02 246.175C174.458 245.538 174.677 244.712 174.677 243.697V241.727C174.16 242.622 173.423 243.319 172.468 243.816C171.532 244.294 170.537 244.533 169.482 244.533ZM170.826 241.338C171.702 241.338 172.488 241.08 173.184 240.562C173.901 240.045 174.399 239.428 174.677 238.711V234.979C174.319 234.064 173.752 233.327 172.975 232.77C172.219 232.213 171.423 231.934 170.587 231.934C169.771 231.934 169.055 232.163 168.438 232.621C167.84 233.079 167.373 233.676 167.034 234.412C166.696 235.129 166.527 235.905 166.527 236.741C166.527 237.597 166.716 238.373 167.094 239.07C167.472 239.766 167.98 240.323 168.617 240.741C169.273 241.139 170.01 241.338 170.826 241.338ZM181.209 239.816C181.209 238.801 181.488 237.915 182.045 237.159C182.622 236.383 183.418 235.786 184.433 235.368C185.448 234.95 186.613 234.741 187.926 234.741C188.583 234.741 189.25 234.8 189.927 234.92C190.603 235.019 191.19 235.169 191.688 235.368V234.532C191.688 233.536 191.389 232.77 190.792 232.233C190.215 231.695 189.349 231.427 188.195 231.427C187.339 231.427 186.523 231.576 185.747 231.875C184.971 232.173 184.155 232.611 183.299 233.188L182.015 230.561C183.05 229.884 184.105 229.377 185.18 229.038C186.274 228.7 187.419 228.531 188.613 228.531C190.842 228.531 192.574 229.088 193.808 230.203C195.062 231.317 195.689 232.91 195.689 234.979V239.965C195.689 240.403 195.758 240.712 195.897 240.891C196.037 241.05 196.286 241.149 196.644 241.189V244.443C196.286 244.523 195.957 244.573 195.659 244.593C195.38 244.632 195.141 244.652 194.942 244.652C194.146 244.652 193.539 244.473 193.121 244.115C192.703 243.757 192.454 243.319 192.375 242.801L192.285 241.995C191.588 242.891 190.733 243.578 189.718 244.055C188.722 244.513 187.697 244.742 186.643 244.742C185.588 244.742 184.652 244.533 183.836 244.115C183.02 243.677 182.373 243.09 181.896 242.354C181.438 241.597 181.209 240.751 181.209 239.816ZM190.942 240.622C191.439 240.144 191.688 239.687 191.688 239.249V237.666C190.653 237.248 189.608 237.039 188.553 237.039C187.498 237.039 186.643 237.268 185.986 237.726C185.329 238.164 185.001 238.751 185.001 239.487C185.001 240.085 185.239 240.622 185.717 241.1C186.195 241.577 186.881 241.816 187.777 241.816C188.374 241.816 188.951 241.707 189.509 241.488C190.086 241.269 190.563 240.98 190.942 240.622Z" fill="black"/>
<path d="M232.61 141.614C225.252 140.122 217.75 139.457 210.244 139.632C214.559 128.712 215.448 115.547 212.847 100.387C212.791 100.063 212.669 99.7541 212.488 99.4792C212.307 99.2044 212.072 98.9697 211.796 98.7898C211.521 98.6099 211.211 98.4886 210.887 98.4336C210.562 98.3785 210.23 98.3907 209.911 98.4696C201.811 100.749 194.096 104.223 187.02 108.777C182.417 96.2248 174.537 85.1334 164.199 76.6553C163.735 76.2969 163.156 76.121 162.571 76.1608C161.986 76.2006 161.436 76.4532 161.025 76.871C150.394 87.6847 143.286 98.7956 139.805 109.952C132.265 104.826 123.948 100.947 115.174 98.4648C114.855 98.386 114.523 98.3737 114.198 98.4288C113.874 98.4839 113.564 98.6051 113.289 98.785C113.013 98.9649 112.778 99.1996 112.597 99.4744C112.416 99.7493 112.294 100.058 112.238 100.383C109.637 115.542 110.536 128.705 114.841 139.627C107.335 139.452 99.8334 140.117 92.4753 141.609C92.1392 141.687 91.824 141.838 91.5517 142.05C91.2793 142.261 91.0563 142.53 90.8979 142.837C90.7388 143.142 90.6474 143.479 90.63 143.823C90.6126 144.167 90.6697 144.511 90.7972 144.831C101.215 170.917 121.522 176.927 138.022 176.927C146.359 176.874 154.635 175.502 162.542 172.861C170.45 175.506 178.727 176.881 187.066 176.937C203.563 176.937 223.872 170.924 234.29 144.841C234.418 144.521 234.475 144.177 234.457 143.832C234.44 143.488 234.349 143.152 234.189 142.846C234.031 142.538 233.808 142.269 233.535 142.056C233.263 141.843 232.947 141.692 232.61 141.614ZM204.929 139.89C196.151 140.43 187.583 142.798 179.773 146.842C179.354 146.945 178.971 147.16 178.666 147.466C173.814 150.267 169.581 154.026 166.227 158.514C166.332 154.087 165.922 149.663 165.007 145.33C167.883 133.159 175.279 122.796 187.061 114.507C193.676 109.944 200.916 106.361 208.556 103.87C210.604 117.971 209.367 130.062 204.929 139.89ZM162.9 81.802C167.121 85.5392 178.34 96.5854 182.904 111.64C173.798 118.046 166.73 126.938 162.542 137.254C158.659 127.606 152.215 119.201 143.907 112.946C146.805 102.545 153.16 92.0835 162.9 81.802ZM116.538 103.856C124.846 106.56 132.672 110.565 139.724 115.722C149.85 122.815 157.078 133.322 160.081 145.315C159.163 149.648 158.753 154.072 158.858 158.5C149.147 145.459 133.712 140.967 120.153 139.879C115.718 130.062 114.481 117.968 116.538 103.863V103.856ZM134.721 172.147C116.773 171.174 103.893 162.29 96.3923 145.74C107.259 143.889 146.448 139.488 159.371 168.868C151.405 171.374 143.065 172.486 134.721 172.154V172.147ZM190.364 172.147C182.02 172.476 173.681 171.364 165.714 168.86C178.635 139.49 217.821 143.891 228.705 145.74C221.192 162.29 208.312 171.174 190.364 172.154V172.147Z" fill="black"/>
<path d="M164.939 93.6064H160.145V98.4008H164.939V93.6064Z" fill="black"/>
<path d="M164.939 103.195H160.145V107.99H164.939V103.195Z" fill="black"/>
<path d="M164.939 112.784H160.145V117.579H164.939V112.784Z" fill="black"/>
<path d="M119.393 112.784C119.512 119.171 121.304 125.416 124.59 130.894L128.579 128.233C125.83 123.538 124.319 118.221 124.187 112.781L119.393 112.784Z" fill="black"/>
<path d="M205.691 112.784H200.897C200.775 118.224 199.263 123.543 196.505 128.234L200.494 130.895C203.781 125.416 205.573 119.172 205.691 112.784Z" fill="black"/>
</svg>
