<svg width="296" height="294" viewBox="0 0 296 294" fill="none" xmlns="http://www.w3.org/2000/svg">
<path fill-rule="evenodd" clip-rule="evenodd" d="M119.426 34.1821C139.238 22.7627 165.233 28.7249 186.576 36.88C206.944 44.6627 221.47 61.61 235.277 78.4489C248.654 94.763 268.403 111.897 265.184 132.749C261.832 154.466 229.915 159.312 219.782 178.83C210.603 196.513 223.137 220.734 211.218 236.71C198.36 253.946 176.306 262.744 154.985 265.686C132.099 268.845 108.388 264.828 88.1827 253.691C67.3012 242.181 45.7439 225.718 40.3825 202.518C35.12 179.745 51.7892 158.409 61.2146 136.992C68.2398 121.029 79.7699 108.667 88.3655 93.4858C99.5885 73.6641 99.6674 45.5702 119.426 34.1821Z" fill="#FF59DA" fill-opacity="0.6"/>
<path fill-rule="evenodd" clip-rule="evenodd" d="M142.973 45.1074C162.606 35.7089 184.168 22.5518 204.767 29.6454C225.378 36.743 234.191 60.5177 244.151 79.9501C252.867 96.9547 259.993 115.035 258.285 134.061C256.649 152.275 242.54 165.552 234.971 182.183C224.351 205.518 229.179 242.414 205.065 251.003C181.337 259.453 163.808 224.521 140.088 215.976C116.733 207.562 81.7067 223.201 68.8356 201.927C55.7024 180.219 81.9337 154.862 88.258 130.307C92.6968 113.072 90.7226 94.6004 100.331 79.6382C110.47 63.8503 126.067 53.1998 142.973 45.1074Z" fill="#FF59DA"/>
<path fill-rule="evenodd" clip-rule="evenodd" d="M152.071 25.6201C184.308 19.3257 219.855 35.8342 239.52 61.7073C257.684 85.605 245.845 117.813 244.8 147.621C243.817 175.648 251.455 205.856 233.696 227.812C214.544 251.492 182.516 266.752 152.071 262.268C123.777 258.1 109.694 228.778 91.7297 206.902C76.6802 188.576 57.5415 171.164 57.9226 147.621C58.2999 124.307 79.2801 108.775 93.6186 90.1948C112.033 66.3326 122.176 31.4572 152.071 25.6201Z" fill="#FFD12F"/>
<g clip-path="url(#clip0)">
<path d="M155.865 65.7763C157.371 57.5288 161.956 32.4303 164.243 17.6411C164.339 17.0196 164.158 16.3871 163.749 15.9095C163.34 15.4322 162.742 15.1572 162.113 15.1572H130.037C129.436 15.1572 128.863 15.4081 128.455 15.8493C128.047 16.2902 127.842 16.882 127.889 17.4811C128.106 20.2271 128.456 23.1797 128.827 26.3052C130.351 39.1423 132.438 56.7235 127.693 82.9356C127.063 86.4129 126.96 92.8167 126.951 99.2004C125.976 105.556 125.501 113.733 125.501 124.195C125.501 134.738 126.882 143.72 129.494 150.172C133.434 159.9 139.346 161.942 143.612 161.942C155.291 161.942 161.723 148.537 161.723 124.194C161.723 103.614 159.918 91.6335 155.886 85.5565C155.25 78.7634 154.758 72.1509 155.443 68.0945C155.469 67.9406 155.619 67.1192 155.865 65.7763ZM131.786 84.6718C134.472 85.1173 138.298 85.5826 142.582 85.5826C145.421 85.5826 148.458 85.3705 151.49 84.8191C151.542 85.3819 151.595 85.9487 151.649 86.5189C151.649 86.5192 151.649 86.5192 151.649 86.5195C151.65 86.5315 151.651 86.5436 151.652 86.5556C151.675 86.8039 151.699 87.0525 151.723 87.3019C149.83 90.2063 146.379 94.9995 141.7 99.4145C139.863 97.7497 138.288 96.0336 136.985 94.4511C134.548 91.4893 132.747 88.6298 131.591 86.5935C131.646 85.8917 131.711 85.2472 131.786 84.6718ZM145.151 102.218C146.507 100.918 147.84 99.5183 149.144 98.0235C150.346 96.6454 151.419 95.3063 152.366 94.0557C152.756 98.3575 153.068 102.589 153.068 106.277C153.068 106.342 153.068 106.406 153.068 106.47C150.132 105.403 147.488 103.906 145.151 102.218ZM153.053 111.12C152.998 116.98 152.742 122.328 151.533 126.232C150.011 131.147 147.21 133.245 142.168 133.245C137.126 133.245 134.325 131.147 132.803 126.232C131.631 122.448 131.354 117.308 131.289 111.658C134.833 110.165 138.348 108.006 141.751 105.231C144.999 107.692 148.764 109.8 153.053 111.12ZM131.26 99.3609C131.26 99.3609 131.26 99.3606 131.26 99.3604C131.262 97.6801 131.271 95.9751 131.295 94.3206C133.142 96.8871 135.478 99.7041 138.319 102.342C136.159 104.049 133.798 105.596 131.267 106.833C131.267 106.648 131.267 106.463 131.267 106.277C131.267 105.369 131.265 104.42 131.264 103.445C131.261 102.12 131.258 100.746 131.26 99.3609ZM155.651 127.506C155.654 127.496 155.656 127.486 155.659 127.477C155.751 127.177 155.837 126.87 155.92 126.559C155.938 126.487 155.958 126.414 155.977 126.341C156.057 126.031 156.132 125.715 156.203 125.395C156.219 125.324 156.233 125.251 156.249 125.179C156.312 124.881 156.373 124.58 156.429 124.273C156.439 124.223 156.449 124.174 156.458 124.124C156.519 123.788 156.574 123.445 156.627 123.099C156.641 123.011 156.654 122.921 156.667 122.832C156.717 122.488 156.765 122.141 156.808 121.789C156.817 121.718 156.825 121.646 156.834 121.574C156.871 121.259 156.906 120.941 156.938 120.62C156.947 120.538 156.955 120.457 156.963 120.374C156.998 120.016 157.03 119.653 157.059 119.287C157.067 119.184 157.075 119.079 157.082 118.975C157.11 118.605 157.136 118.232 157.159 117.855C157.163 117.794 157.166 117.731 157.17 117.669C157.189 117.329 157.207 116.986 157.224 116.64C157.229 116.533 157.234 116.426 157.238 116.319C157.253 115.991 157.266 115.661 157.278 115.328C157.368 118.088 157.414 121.042 157.414 124.194C157.414 134.248 156.069 157.633 143.612 157.633C134.812 157.633 130.911 144.717 130.017 130.77C130.028 130.79 130.04 130.809 130.051 130.83C130.181 131.074 130.316 131.312 130.455 131.542C130.483 131.588 130.512 131.633 130.54 131.679C130.681 131.905 130.825 132.127 130.974 132.34C130.982 132.352 130.991 132.365 131 132.378C131.155 132.598 131.318 132.809 131.484 133.015C131.517 133.057 131.551 133.099 131.585 133.141C131.749 133.34 131.918 133.532 132.092 133.718C132.122 133.75 132.153 133.781 132.183 133.812C132.352 133.988 132.525 134.159 132.703 134.322C132.722 134.34 132.74 134.358 132.759 134.376C132.948 134.546 133.142 134.709 133.341 134.866C133.382 134.898 133.423 134.931 133.464 134.962C133.663 135.115 133.866 135.262 134.075 135.402C134.106 135.422 134.137 135.441 134.168 135.461C134.367 135.591 134.57 135.715 134.778 135.832C134.808 135.85 134.838 135.868 134.869 135.885C135.09 136.007 135.317 136.122 135.549 136.231C135.597 136.254 135.645 136.276 135.694 136.298C135.928 136.404 136.167 136.506 136.412 136.599C136.439 136.609 136.467 136.619 136.495 136.629C136.727 136.715 136.965 136.795 137.207 136.87C137.249 136.883 137.291 136.897 137.333 136.909C137.588 136.985 137.848 137.053 138.113 137.115C138.168 137.128 138.223 137.14 138.278 137.152C138.55 137.213 138.825 137.268 139.108 137.315C139.126 137.318 139.145 137.32 139.164 137.324C139.436 137.368 139.715 137.404 139.997 137.435C140.051 137.441 140.104 137.448 140.158 137.453C140.446 137.483 140.74 137.505 141.039 137.521C141.099 137.525 141.16 137.527 141.221 137.53C141.532 137.544 141.847 137.553 142.169 137.553C142.823 137.553 143.455 137.524 144.064 137.466C149.954 136.906 153.753 133.633 155.651 127.506ZM151.626 65.0017C151.374 66.3775 151.221 67.219 151.194 67.3766C151.194 67.3766 151.194 67.3766 151.194 67.3769C150.621 70.7696 150.741 75.3197 151.119 80.407C144.07 81.7648 136.737 81.0016 132.515 80.3118C136.607 55.3351 134.596 38.3438 133.106 25.7971C132.844 23.5896 132.593 21.4696 132.394 19.4667H159.594C157.219 34.3824 153.048 57.2152 151.626 65.0017Z" fill="#000022"/>
<path d="M237.954 106.612C236.631 104.963 235.006 103.074 233.285 101.074C229.148 96.2655 223.999 90.2814 219.742 83.7899C214.679 76.0699 213.686 66.0747 214.374 59.8613C214.549 58.2837 214.039 56.7054 212.976 55.5312C211.917 54.3615 210.411 53.7141 208.825 53.7187L196.821 53.8554C195.933 53.8618 195.121 54.1751 194.484 54.6954C192.099 53.9825 188.612 51.705 185.957 44.8015C184.477 40.9524 180.12 32.2651 173.008 18.9799L172.441 17.922C171.878 16.8742 170.573 16.48 169.524 17.0425C168.475 17.6052 168.081 18.9114 168.644 19.9601L169.209 21.0143C176.138 33.9572 180.538 42.7178 181.935 46.3488C182.637 48.175 183.405 49.7458 184.212 51.0969C183.485 53.0596 182.299 56.1269 180.822 59.4548C178.548 64.5802 176.333 68.6538 174.295 71.4877C171.733 68.0847 168.565 63.881 164.723 58.7854C164.007 57.835 162.656 57.6461 161.705 58.3622C160.755 59.0787 160.566 60.4295 161.282 61.3799C171.973 75.5579 177.46 82.8559 179.073 85.0433C181.485 88.3136 188.258 93.384 199.204 100.114C199.603 100.737 200.113 101.288 200.714 101.725L225.382 119.645C226.983 120.83 228.899 121.428 230.818 121.428C232.543 121.428 234.27 120.945 235.772 119.973C237.941 118.571 239.421 116.305 239.833 113.756C240.245 111.218 239.559 108.614 237.954 106.612ZM177.049 75.1485C181.349 69.6535 185.208 60.7363 187.37 55.2058C189.371 57.198 191.392 58.2407 193.085 58.7739C193.085 58.8198 193.084 58.8654 193.083 58.9112C193.076 59.318 193.069 59.724 193.066 60.1282C193.066 60.1314 193.066 60.1345 193.066 60.1377C193.063 60.5525 193.062 60.9656 193.063 61.3776C193.063 61.4556 193.063 61.5336 193.064 61.6116C193.067 62.4326 193.079 63.2477 193.1 64.0564C193.101 64.1278 193.103 64.1989 193.105 64.2703C193.127 65.0851 193.156 65.893 193.193 66.6934C193.196 66.7551 193.199 66.8167 193.202 66.8786C193.24 67.6851 193.286 68.4838 193.339 69.2739C193.343 69.3284 193.346 69.3826 193.35 69.4368C193.404 70.2329 193.464 71.0199 193.532 71.7974C193.536 71.8429 193.539 71.8885 193.543 71.9338C193.587 72.4321 193.632 72.9261 193.681 73.416C191.527 76.4432 187.866 80.4264 182.535 82.4768C181.722 81.3745 179.949 79.0047 177.049 75.1485ZM185.945 85.8185C189.463 84.1465 192.266 81.8269 194.417 79.5237C194.496 80.0778 194.578 80.624 194.661 81.1618C194.664 81.1799 194.666 81.1982 194.669 81.2163C194.778 81.9212 194.891 82.6116 195.005 83.2865C195.008 83.3011 195.01 83.3157 195.013 83.3303C195.128 84.0058 195.245 84.6654 195.364 85.3088C195.366 85.3225 195.369 85.3366 195.372 85.3506C195.431 85.6726 195.491 85.9908 195.551 86.3044C195.552 86.3076 195.552 86.3108 195.553 86.3139C195.612 86.6232 195.672 86.928 195.731 87.2287C195.734 87.2413 195.736 87.2542 195.739 87.2669C195.799 87.5685 195.859 87.866 195.919 88.1588C195.922 88.1717 195.925 88.1846 195.927 88.1975C195.985 88.4796 196.043 88.7577 196.101 89.0312C196.104 89.0463 196.107 89.0615 196.111 89.0764C196.17 89.3574 196.23 89.6338 196.289 89.9058C196.293 89.9225 196.296 89.9385 196.3 89.9551C196.357 90.2132 196.413 90.4669 196.469 90.7163C196.473 90.7347 196.477 90.753 196.481 90.7714C196.539 91.0282 196.597 91.2805 196.654 91.5285C196.66 91.5535 196.665 91.5778 196.671 91.6025C196.724 91.8307 196.776 92.0549 196.829 92.275C196.834 92.2983 196.84 92.3221 196.845 92.3456C196.9 92.5766 196.954 92.8026 197.008 93.0242C197.016 93.0577 197.024 93.0904 197.033 93.1236C197.081 93.3223 197.129 93.5176 197.177 93.7088C197.181 93.7268 197.186 93.7461 197.19 93.7641C192.361 90.6673 188.553 87.9756 185.945 85.8185ZM235.58 113.068C235.358 114.435 234.596 115.602 233.433 116.354C231.756 117.439 229.551 117.369 227.931 116.17L203.247 98.2382C203.027 98.0785 202.854 97.8724 202.738 97.6341C202.736 97.6313 202.736 97.6284 202.734 97.6255C202.719 97.5926 202.709 97.5593 202.695 97.5258C202.676 97.479 202.655 97.4337 202.64 97.3847C202.194 95.8948 201.425 93.1575 200.61 89.499C200.609 89.4927 200.607 89.4867 200.606 89.4804C200.569 89.3127 200.531 89.1427 200.494 88.9709C200.492 88.9638 200.49 88.9569 200.489 88.9497C200.452 88.7814 200.416 88.6112 200.379 88.4394C200.376 88.4277 200.374 88.4165 200.371 88.4047C200.335 88.2353 200.299 88.0639 200.262 87.891C200.259 87.8766 200.256 87.8629 200.253 87.8486C200.218 87.6806 200.183 87.5103 200.148 87.3391C200.143 87.3187 200.139 87.2987 200.135 87.278C200.101 87.1109 200.066 86.942 200.032 86.772C200.027 86.7465 200.022 86.7216 200.017 86.6964C199.984 86.5306 199.95 86.3629 199.917 86.1944C199.911 86.164 199.905 86.1339 199.899 86.1032C199.866 85.9372 199.834 85.7695 199.801 85.6009C199.795 85.5668 199.788 85.5332 199.781 85.4991C199.749 85.3291 199.716 85.1571 199.684 84.9845C199.678 84.9524 199.672 84.9206 199.666 84.8882C199.633 84.7139 199.601 84.5381 199.568 84.3613C199.562 84.3286 199.556 84.2965 199.55 84.2638C199.518 84.0875 199.486 83.9097 199.454 83.7311C199.448 83.6967 199.442 83.6629 199.436 83.6285C199.404 83.4536 199.374 83.2773 199.343 83.1001C199.336 83.0594 199.329 83.019 199.322 82.9783C199.291 82.8048 199.262 82.6299 199.232 82.4545C199.225 82.4098 199.217 82.3656 199.209 82.3209C199.18 82.1446 199.15 81.9668 199.121 81.7882C199.114 81.7438 199.107 81.6996 199.099 81.6552C199.071 81.4792 199.042 81.3014 199.014 81.1234C199.006 81.0744 198.998 81.0256 198.99 80.9766C198.962 80.798 198.934 80.6179 198.906 80.4376C198.899 80.3892 198.891 80.341 198.884 80.2923C198.857 80.1137 198.829 79.9336 198.802 79.753C198.794 79.6997 198.786 79.6469 198.779 79.5933C198.752 79.4164 198.727 79.2384 198.701 79.0598C198.693 79.0019 198.684 78.944 198.676 78.8858C198.651 78.7089 198.626 78.5311 198.601 78.3528C198.593 78.2923 198.584 78.2321 198.576 78.1713C198.551 77.9919 198.527 77.8113 198.503 77.6304C198.495 77.5707 198.487 77.5111 198.479 77.4512C198.455 77.2691 198.431 77.0862 198.408 76.9027C198.4 76.8414 198.392 76.7803 198.384 76.719C198.361 76.5378 198.339 76.3557 198.317 76.1731C198.309 76.1077 198.301 76.0427 198.293 75.9773C198.271 75.7952 198.249 75.6123 198.228 75.4291C198.22 75.3629 198.212 75.297 198.205 75.2305C198.183 75.0467 198.163 74.8621 198.142 74.6769C198.135 74.6092 198.127 74.5418 198.12 74.4739C198.1 74.2907 198.08 74.1069 198.061 73.9226C198.053 73.8515 198.046 73.7804 198.038 73.709C198.019 73.5241 198 73.3383 197.982 73.152C197.975 73.0812 197.968 73.0101 197.961 72.939C197.943 72.7529 197.925 72.5663 197.908 72.3791C197.901 72.3062 197.894 72.2337 197.887 72.1606C197.87 71.9742 197.854 71.7868 197.837 71.5993C197.831 71.5236 197.824 71.4482 197.818 71.3722C197.802 71.1876 197.787 71.0021 197.771 70.816C197.765 70.7366 197.759 70.6575 197.752 70.5781C197.738 70.3934 197.724 70.2082 197.71 70.0225C197.704 69.9405 197.697 69.8585 197.691 69.7762C197.678 69.5939 197.665 69.411 197.653 69.2275C197.647 69.1409 197.641 69.0543 197.635 68.9674C197.623 68.7857 197.612 68.6036 197.6 68.421C197.595 68.3319 197.589 68.2424 197.584 68.153C197.573 67.9726 197.563 67.7917 197.553 67.6105C197.548 67.5185 197.543 67.4262 197.538 67.3339C197.528 67.1536 197.519 66.9724 197.51 66.7912C197.506 66.6969 197.501 66.6025 197.497 66.5082C197.488 66.329 197.481 66.149 197.473 65.969C197.469 65.8715 197.465 65.774 197.461 65.6765C197.454 65.4985 197.448 65.3199 197.441 65.141C197.438 65.0404 197.435 64.9397 197.431 64.8388C197.425 64.6622 197.42 64.485 197.415 64.3076C197.413 64.2035 197.41 64.0995 197.407 63.9951C197.403 63.8211 197.399 63.6468 197.395 63.4725C197.393 63.3638 197.391 63.2552 197.389 63.1465C197.386 62.9736 197.383 62.8005 197.381 62.627C197.38 62.5163 197.378 62.4057 197.377 62.2947C197.375 62.1244 197.374 61.9539 197.373 61.7833C197.372 61.6669 197.372 61.5505 197.372 61.4338C197.371 61.2667 197.371 61.0992 197.371 60.9318C197.372 60.8117 197.372 60.6913 197.372 60.5709C197.373 60.4072 197.374 60.2435 197.376 60.0792C197.377 59.9531 197.378 59.8269 197.38 59.7005C197.382 59.5405 197.385 59.3802 197.387 59.2197C197.39 59.0901 197.392 58.9602 197.395 58.8304C197.398 58.6727 197.402 58.5147 197.406 58.3568C197.407 58.2908 197.409 58.2249 197.411 58.159L208.874 58.0288C208.879 58.0285 208.884 58.0285 208.888 58.0285C209.353 58.0285 209.646 58.2759 209.781 58.4247C209.919 58.5772 210.144 58.9055 210.09 59.3877C209.286 66.6441 210.453 77.4862 216.138 86.1539C220.549 92.88 225.799 98.9822 230.018 103.885C231.714 105.856 233.316 107.717 234.592 109.308C235.449 110.376 235.799 111.711 235.58 113.068Z" fill="#000022"/>
</g>
<path d="M125.37 200.729V179.532H133.072C135.381 179.532 137.312 180.009 138.864 180.965C140.417 181.9 141.581 183.174 142.357 184.786C143.133 186.378 143.521 188.15 143.521 190.1C143.521 192.25 143.093 194.121 142.238 195.713C141.382 197.305 140.168 198.539 138.595 199.415C137.023 200.291 135.182 200.729 133.072 200.729H125.37ZM139.372 190.1C139.372 188.727 139.123 187.523 138.625 186.488C138.128 185.433 137.411 184.617 136.476 184.04C135.54 183.443 134.406 183.144 133.072 183.144H129.49V197.116H133.072C134.426 197.116 135.57 196.818 136.506 196.22C137.441 195.603 138.148 194.768 138.625 193.713C139.123 192.638 139.372 191.434 139.372 190.1ZM145.103 196.101C145.103 195.086 145.381 194.2 145.938 193.444C146.516 192.668 147.312 192.071 148.327 191.653C149.342 191.235 150.506 191.026 151.82 191.026C152.477 191.026 153.143 191.085 153.82 191.205C154.497 191.304 155.084 191.454 155.582 191.653V190.817C155.582 189.822 155.283 189.055 154.686 188.518C154.109 187.981 153.243 187.712 152.089 187.712C151.233 187.712 150.417 187.861 149.64 188.16C148.864 188.458 148.048 188.896 147.192 189.473L145.909 186.846C146.944 186.169 147.998 185.662 149.073 185.324C150.168 184.985 151.312 184.816 152.506 184.816C154.736 184.816 156.467 185.373 157.701 186.488C158.955 187.602 159.582 189.195 159.582 191.265V196.25C159.582 196.688 159.652 196.997 159.791 197.176C159.93 197.335 160.179 197.435 160.537 197.474V200.729C160.179 200.808 159.851 200.858 159.552 200.878C159.274 200.918 159.035 200.937 158.836 200.937C158.04 200.937 157.432 200.758 157.015 200.4C156.597 200.042 156.348 199.604 156.268 199.087L156.179 198.28C155.482 199.176 154.626 199.863 153.611 200.34C152.616 200.798 151.591 201.027 150.536 201.027C149.481 201.027 148.546 200.818 147.73 200.4C146.914 199.962 146.267 199.375 145.789 198.639C145.331 197.882 145.103 197.036 145.103 196.101ZM154.835 196.907C155.333 196.429 155.582 195.972 155.582 195.534V193.952C154.547 193.534 153.502 193.325 152.447 193.325C151.392 193.325 150.536 193.553 149.879 194.011C149.222 194.449 148.894 195.036 148.894 195.773C148.894 196.37 149.133 196.907 149.611 197.385C150.088 197.862 150.775 198.101 151.671 198.101C152.268 198.101 152.845 197.992 153.402 197.773C153.979 197.554 154.457 197.265 154.835 196.907ZM177.86 200.729H173.859V191.951C173.859 190.697 173.64 189.782 173.202 189.205C172.764 188.627 172.157 188.339 171.381 188.339C170.844 188.339 170.296 188.478 169.739 188.757C169.202 189.035 168.714 189.424 168.276 189.921C167.838 190.399 167.52 190.956 167.321 191.593V200.729H163.32V185.085H166.933V187.981C167.51 187.005 168.346 186.239 169.441 185.682C170.535 185.105 171.769 184.816 173.143 184.816C174.118 184.816 174.914 184.995 175.531 185.353C176.148 185.692 176.626 186.159 176.964 186.757C177.302 187.334 177.531 187.991 177.651 188.727C177.79 189.463 177.86 190.21 177.86 190.966V200.729ZM188.623 201.027C186.931 201.027 185.468 200.649 184.234 199.893C183 199.136 182.045 198.141 181.368 196.907C180.691 195.673 180.353 194.34 180.353 192.907C180.353 191.454 180.681 190.11 181.338 188.876C182.015 187.642 182.97 186.657 184.204 185.921C185.438 185.184 186.901 184.816 188.593 184.816C190.304 184.816 191.757 185.184 192.952 185.921C194.166 186.657 195.071 187.622 195.668 188.817L191.757 190.011C191.061 188.817 189.996 188.219 188.563 188.219C187.787 188.219 187.09 188.418 186.473 188.817C185.856 189.195 185.368 189.742 185.01 190.459C184.652 191.155 184.473 191.971 184.473 192.907C184.473 193.822 184.652 194.638 185.01 195.355C185.388 196.051 185.886 196.609 186.503 197.027C187.12 197.425 187.807 197.624 188.563 197.624C189.279 197.624 189.936 197.454 190.533 197.116C191.15 196.758 191.578 196.31 191.817 195.773L195.728 196.967C195.191 198.141 194.295 199.116 193.041 199.893C191.807 200.649 190.334 201.027 188.623 201.027ZM205.299 201.027C203.607 201.027 202.144 200.659 200.91 199.922C199.696 199.186 198.75 198.211 198.074 196.997C197.397 195.763 197.059 194.429 197.059 192.996C197.059 191.523 197.387 190.17 198.044 188.936C198.721 187.682 199.676 186.687 200.91 185.95C202.144 185.194 203.617 184.816 205.328 184.816C207.04 184.816 208.503 185.194 209.717 185.95C210.931 186.687 211.857 187.672 212.494 188.906C213.15 190.12 213.479 191.434 213.479 192.847C213.479 193.364 213.449 193.812 213.389 194.19H201.298C201.398 195.404 201.845 196.36 202.641 197.056C203.458 197.753 204.393 198.101 205.448 198.101C206.244 198.101 206.99 197.912 207.687 197.534C208.403 197.136 208.891 196.619 209.15 195.982L212.583 196.937C212.006 198.131 211.08 199.116 209.807 199.893C208.533 200.649 207.03 201.027 205.299 201.027ZM201.208 191.653H209.389C209.269 190.478 208.821 189.533 208.045 188.817C207.289 188.08 206.363 187.712 205.269 187.712C204.194 187.712 203.268 188.08 202.492 188.817C201.736 189.533 201.308 190.478 201.208 191.653ZM120.034 235.729V214.532H134.275V218.144H124.154V223.608H132.573V226.951H124.154V235.729H120.034ZM136.789 217.905V213.935H140.79V217.905H136.789ZM136.789 235.729V220.085H140.79V235.729H136.789ZM153.773 234.922C153.236 235.161 152.569 235.4 151.773 235.639C150.997 235.878 150.191 235.997 149.355 235.997C148.618 235.997 147.942 235.868 147.325 235.609C146.708 235.35 146.21 234.942 145.832 234.385C145.474 233.808 145.294 233.062 145.294 232.146V223.16H143.235V220.085H145.294V215.009H149.295V220.085H152.579V223.16H149.295V230.803C149.295 231.34 149.434 231.728 149.713 231.967C150.012 232.206 150.37 232.325 150.788 232.325C151.206 232.325 151.614 232.255 152.012 232.116C152.41 231.977 152.728 231.857 152.967 231.758L153.773 234.922ZM170.396 235.729H166.395V226.951C166.395 225.697 166.176 224.782 165.739 224.205C165.301 223.627 164.694 223.339 163.917 223.339C163.38 223.339 162.833 223.478 162.275 223.757C161.738 224.035 161.25 224.424 160.813 224.921C160.375 225.399 160.056 225.956 159.857 226.593V235.729H155.857V220.085H159.469V222.981C160.046 222.005 160.882 221.239 161.977 220.682C163.072 220.105 164.306 219.816 165.679 219.816C166.654 219.816 167.45 219.995 168.067 220.353C168.684 220.692 169.162 221.159 169.5 221.757C169.839 222.334 170.068 222.991 170.187 223.727C170.326 224.463 170.396 225.21 170.396 225.966V235.729ZM181.129 236.027C179.437 236.027 177.974 235.659 176.74 234.922C175.526 234.186 174.581 233.211 173.904 231.997C173.228 230.763 172.889 229.429 172.889 227.996C172.889 226.523 173.218 225.17 173.874 223.936C174.551 222.682 175.507 221.687 176.74 220.95C177.974 220.194 179.447 219.816 181.159 219.816C182.871 219.816 184.334 220.194 185.548 220.95C186.762 221.687 187.687 222.672 188.324 223.906C188.981 225.12 189.309 226.434 189.309 227.847C189.309 228.364 189.279 228.812 189.22 229.19H177.129C177.228 230.404 177.676 231.36 178.472 232.056C179.288 232.753 180.224 233.101 181.278 233.101C182.075 233.101 182.821 232.912 183.517 232.534C184.234 232.136 184.722 231.619 184.98 230.982L188.414 231.937C187.836 233.131 186.911 234.116 185.637 234.893C184.363 235.649 182.861 236.027 181.129 236.027ZM177.039 226.653H185.219C185.1 225.478 184.652 224.533 183.876 223.817C183.119 223.08 182.194 222.712 181.099 222.712C180.025 222.712 179.099 223.08 178.323 223.817C177.566 224.533 177.139 225.478 177.039 226.653ZM197.508 236.027C196.175 236.027 194.901 235.808 193.687 235.37C192.473 234.932 191.428 234.286 190.552 233.43L191.985 230.832C192.921 231.589 193.836 232.146 194.732 232.504C195.628 232.862 196.503 233.042 197.359 233.042C198.135 233.042 198.752 232.902 199.21 232.624C199.688 232.345 199.927 231.927 199.927 231.37C199.927 230.793 199.638 230.404 199.061 230.205C198.484 229.986 197.678 229.718 196.643 229.399C195.488 229.041 194.523 228.673 193.747 228.295C192.97 227.917 192.383 227.459 191.985 226.921C191.607 226.384 191.418 225.687 191.418 224.832C191.418 223.299 191.995 222.075 193.15 221.159C194.304 220.244 195.836 219.786 197.747 219.786C198.862 219.786 199.917 219.965 200.912 220.324C201.907 220.662 202.813 221.219 203.629 221.995L202.016 224.533C200.484 223.339 199.001 222.742 197.568 222.742C196.931 222.742 196.364 222.861 195.866 223.1C195.389 223.339 195.15 223.757 195.15 224.354C195.15 224.911 195.379 225.309 195.836 225.548C196.314 225.787 197.031 226.046 197.986 226.324C199.22 226.702 200.265 227.071 201.121 227.429C201.996 227.787 202.653 228.245 203.091 228.802C203.549 229.36 203.778 230.116 203.778 231.071C203.778 232.624 203.211 233.838 202.076 234.713C200.942 235.589 199.419 236.027 197.508 236.027ZM212.261 236.027C210.927 236.027 209.653 235.808 208.439 235.37C207.225 234.932 206.18 234.286 205.305 233.43L206.738 230.832C207.673 231.589 208.589 232.146 209.484 232.504C210.38 232.862 211.256 233.042 212.111 233.042C212.888 233.042 213.505 232.902 213.962 232.624C214.44 232.345 214.679 231.927 214.679 231.37C214.679 230.793 214.39 230.404 213.813 230.205C213.236 229.986 212.43 229.718 211.395 229.399C210.241 229.041 209.275 228.673 208.499 228.295C207.723 227.917 207.136 227.459 206.738 226.921C206.359 226.384 206.17 225.687 206.17 224.832C206.17 223.299 206.748 222.075 207.902 221.159C209.056 220.244 210.589 219.786 212.5 219.786C213.614 219.786 214.669 219.965 215.664 220.324C216.659 220.662 217.565 221.219 218.381 221.995L216.769 224.533C215.236 223.339 213.753 222.742 212.32 222.742C211.684 222.742 211.116 222.861 210.619 223.1C210.141 223.339 209.902 223.757 209.902 224.354C209.902 224.911 210.131 225.309 210.589 225.548C211.067 225.787 211.783 226.046 212.738 226.324C213.972 226.702 215.017 227.071 215.873 227.429C216.749 227.787 217.406 228.245 217.844 228.802C218.301 229.36 218.53 230.116 218.53 231.071C218.53 232.624 217.963 233.838 216.828 234.713C215.694 235.589 214.171 236.027 212.261 236.027Z" fill="black"/>
<defs>
<clipPath id="clip0">
<rect width="146.785" height="146.785" fill="white" transform="translate(109.333 15.1572)"/>
</clipPath>
</defs>
</svg>
