<svg width="263" height="282" viewBox="0 0 263 282" fill="none" xmlns="http://www.w3.org/2000/svg">
<path fill-rule="evenodd" clip-rule="evenodd" d="M31.3895 174.785C28.2883 154.631 46.5865 137.944 54.9682 119.355C62.9975 101.548 65.8683 83.7761 78.9621 69.281C97.2073 49.0833 112.017 19.2807 139.147 17.0993C166.225 14.9222 189.468 38.0125 206.702 59.0102C222.006 77.6561 221.702 103.008 228.624 126.116C236.04 150.876 256.991 174.595 248.65 199.059C240.277 223.619 211.502 233.664 188.121 244.917C167.09 255.039 144.645 263.627 121.554 260.229C99.406 256.97 81.441 242.227 65.1917 226.828C49.8003 212.242 34.6146 195.743 31.3895 174.785Z" fill="#E50000"/>
<path fill-rule="evenodd" clip-rule="evenodd" d="M26.2165 149.778C28.0338 129.468 49.7969 117.651 62.3877 101.611C74.4492 86.2467 81.4941 69.6797 97.6792 58.7436C120.232 43.5051 141.75 18.1183 168.613 22.5001C195.423 26.8732 212.458 54.8596 224.16 79.3746C234.551 101.144 228.183 125.685 229.367 149.778C230.635 175.593 245.293 203.641 231.335 225.394C217.322 247.233 186.978 250.092 161.582 255.416C138.739 260.205 114.89 263.166 93.2853 254.335C72.5631 245.865 58.6533 227.247 46.5663 208.404C35.1174 190.556 24.3267 170.898 26.2165 149.778Z" fill="#FFD12F"/>
<path d="M202.448 72.7497V45.0257C202.448 43.7593 201.421 42.7324 200.155 42.7324H184.102C182.835 42.7324 181.808 43.7593 181.809 45.026C181.809 45.6951 182.101 46.3309 182.609 46.7664L197.862 59.8406V72.7497C192.087 73.7118 187.561 78.2374 186.599 84.0122H174.928C173.662 84.0122 172.635 85.0391 172.635 86.3056V125.292H166.867C169.845 118.786 166.985 111.098 160.479 108.121C158.785 107.345 156.943 106.944 155.08 106.945H143.771L141.416 104.59L167.441 76.3961C168.301 75.4653 168.243 74.0133 167.312 73.1534C166.381 72.2934 164.929 72.351 164.069 73.2818L138.169 101.343L125.271 88.4452L144.597 64.824C145.383 63.8313 145.217 62.3891 144.224 61.6022C143.253 60.8325 141.846 60.9735 141.047 61.9207L120.866 86.5922C113.412 88.412 107.689 94.3852 106.188 101.909C106.04 102.659 106.275 103.432 106.814 103.973L128.112 125.292H124.475C123.209 125.292 122.182 126.319 122.182 127.585V166.572H115.235C119.059 161.554 118.091 154.386 113.073 150.562C111.078 149.042 108.638 148.22 106.129 148.225H95.8889L92.3687 142.951V63.3723C92.3687 62.1058 91.3419 61.079 90.0754 61.079C88.8089 61.079 87.782 62.1058 87.782 63.3723V141.345H78.6088C77.3423 141.345 76.3154 142.372 76.3154 143.639C76.3154 144.905 77.3423 145.932 78.6088 145.932H88.8484L92.3687 151.207V157.399C92.3687 158.665 93.3955 159.692 94.662 159.692C95.9285 159.692 96.9553 158.665 96.9553 157.399V152.812H101.542V157.399C101.542 158.665 102.569 159.692 103.835 159.692C105.102 159.692 106.129 158.665 106.129 157.399V152.812C109.928 152.812 113.009 155.892 113.009 159.692C113.009 163.492 109.928 166.572 106.129 166.572H78.6088C77.3423 166.572 76.3154 167.599 76.3154 168.865C76.3154 170.132 77.3423 171.159 78.6088 171.159H124.475C125.742 171.159 126.769 170.132 126.769 168.865V129.879H174.928C176.195 129.879 177.222 128.852 177.222 127.585V88.5989H211.621C212.888 88.5989 213.915 87.572 213.915 86.3056C213.92 79.5916 209.07 73.8585 202.448 72.7497ZM161.538 125.258V125.267L134.598 125.292L110.945 101.643C112.376 96.5404 116.363 92.5526 121.466 91.1215L140.528 110.188V116.119C140.528 117.385 141.555 118.412 142.822 118.412C144.088 118.412 145.115 117.385 145.115 116.119V111.532H149.702V116.119C149.702 117.385 150.729 118.412 151.995 118.412C153.262 118.412 154.288 117.385 154.288 116.119V111.532H155.08C159.709 111.532 163.462 115.285 163.462 119.914C163.462 121.865 162.781 123.755 161.538 125.258ZM190.294 47.3191H197.862V53.8L190.294 47.3191ZM191.298 84.0122C191.696 82.4284 192.512 80.9808 193.66 79.82C197.293 76.3574 203.003 76.3574 206.636 79.82C207.787 80.9799 208.605 82.4278 209.005 84.0122H191.298Z" fill="black"/>
<path d="M95.656 209.257C95.656 207.964 95.8848 206.69 96.3426 205.436C96.8203 204.182 97.5069 203.047 98.4026 202.032C99.2982 201.017 100.393 200.211 101.687 199.614C102.98 198.997 104.453 198.689 106.105 198.689C108.036 198.689 109.717 199.117 111.151 199.972C112.584 200.828 113.648 201.943 114.345 203.316L111.18 205.496C110.822 204.699 110.354 204.072 109.777 203.615C109.2 203.157 108.573 202.829 107.896 202.629C107.24 202.43 106.603 202.331 105.986 202.331C104.951 202.331 104.045 202.54 103.269 202.958C102.513 203.376 101.876 203.923 101.358 204.6C100.841 205.277 100.453 206.033 100.194 206.869C99.955 207.705 99.8356 208.541 99.8356 209.377C99.8356 210.631 100.094 211.805 100.612 212.899C101.129 213.974 101.856 214.85 102.791 215.527C103.727 216.203 104.811 216.542 106.045 216.542C106.682 216.542 107.339 216.432 108.016 216.213C108.712 215.994 109.349 215.646 109.926 215.168C110.504 214.691 110.951 214.074 111.27 213.317L114.644 215.258C114.206 216.313 113.519 217.208 112.584 217.945C111.648 218.661 110.593 219.219 109.419 219.617C108.245 219.995 107.08 220.184 105.926 220.184C104.413 220.184 103.03 219.876 101.776 219.259C100.542 218.622 99.4674 217.786 98.5519 216.751C97.6363 215.696 96.9198 214.522 96.4023 213.228C95.9048 211.914 95.656 210.591 95.656 209.257ZM115.944 215.377C115.944 214.362 116.222 213.477 116.78 212.72C117.357 211.944 118.153 211.347 119.168 210.929C120.183 210.511 121.347 210.302 122.661 210.302C123.318 210.302 123.984 210.362 124.661 210.481C125.338 210.581 125.925 210.73 126.423 210.929V210.093C126.423 209.098 126.124 208.332 125.527 207.794C124.95 207.257 124.084 206.988 122.93 206.988C122.074 206.988 121.258 207.138 120.481 207.436C119.705 207.735 118.889 208.173 118.033 208.75L116.75 206.122C117.785 205.446 118.839 204.938 119.914 204.6C121.009 204.262 122.153 204.092 123.348 204.092C125.577 204.092 127.308 204.65 128.542 205.764C129.796 206.879 130.423 208.471 130.423 210.541V215.527C130.423 215.965 130.493 216.273 130.632 216.452C130.771 216.611 131.02 216.711 131.378 216.751V220.005C131.02 220.084 130.692 220.134 130.393 220.154C130.115 220.194 129.876 220.214 129.677 220.214C128.881 220.214 128.274 220.035 127.856 219.676C127.438 219.318 127.189 218.88 127.109 218.363L127.02 217.557C126.323 218.452 125.467 219.139 124.452 219.617C123.457 220.075 122.432 220.303 121.377 220.303C120.322 220.303 119.387 220.094 118.571 219.676C117.755 219.239 117.108 218.651 116.63 217.915C116.172 217.159 115.944 216.313 115.944 215.377ZM125.676 216.183C126.174 215.706 126.423 215.248 126.423 214.81V213.228C125.388 212.81 124.343 212.601 123.288 212.601C122.233 212.601 121.377 212.83 120.72 213.288C120.064 213.725 119.735 214.313 119.735 215.049C119.735 215.646 119.974 216.183 120.452 216.661C120.929 217.139 121.616 217.378 122.512 217.378C123.109 217.378 123.686 217.268 124.243 217.049C124.82 216.83 125.298 216.542 125.676 216.183ZM143.476 207.824C142.262 207.824 141.177 208.063 140.222 208.541C139.267 208.998 138.58 209.665 138.162 210.541V220.005H134.161V204.361H137.834V207.705C138.371 206.63 139.068 205.784 139.923 205.167C140.799 204.55 141.715 204.212 142.67 204.152C143.088 204.152 143.357 204.162 143.476 204.182V207.824ZM144.606 212.183C144.606 210.69 144.904 209.327 145.501 208.093C146.098 206.859 146.924 205.884 147.979 205.167C149.034 204.451 150.238 204.092 151.592 204.092C152.746 204.092 153.781 204.381 154.697 204.958C155.632 205.515 156.358 206.232 156.876 207.108V198.211H160.876V215.527C160.876 215.965 160.946 216.273 161.085 216.452C161.225 216.611 161.464 216.711 161.802 216.751V220.005C161.085 220.144 160.518 220.214 160.1 220.214C159.384 220.214 158.787 220.035 158.309 219.676C157.851 219.318 157.592 218.851 157.533 218.273L157.473 217.288C156.896 218.263 156.11 219.01 155.114 219.527C154.139 220.045 153.114 220.303 152.039 220.303C150.587 220.303 149.303 219.945 148.188 219.229C147.074 218.492 146.198 217.517 145.561 216.303C144.924 215.069 144.606 213.696 144.606 212.183ZM156.876 214.273V210.541C156.557 209.665 156.01 208.939 155.234 208.362C154.458 207.784 153.662 207.496 152.846 207.496C152.029 207.496 151.313 207.725 150.696 208.182C150.079 208.62 149.601 209.207 149.263 209.944C148.925 210.66 148.755 211.437 148.755 212.273C148.755 213.128 148.945 213.915 149.323 214.631C149.701 215.328 150.208 215.885 150.845 216.303C151.502 216.701 152.248 216.9 153.084 216.9C153.841 216.9 154.587 216.651 155.323 216.154C156.08 215.656 156.597 215.029 156.876 214.273ZM164.803 202.182V198.211H168.804V202.182H164.803ZM164.803 220.005V204.361H168.804V220.005H164.803ZM179.637 220.303C177.926 220.303 176.453 219.935 175.219 219.199C174.005 218.442 173.069 217.447 172.413 216.213C171.756 214.979 171.427 213.646 171.427 212.213C171.427 210.76 171.756 209.416 172.413 208.182C173.089 206.948 174.035 205.963 175.249 205.227C176.483 204.471 177.946 204.092 179.637 204.092C181.329 204.092 182.782 204.471 183.996 205.227C185.23 205.963 186.176 206.948 186.832 208.182C187.489 209.416 187.818 210.76 187.818 212.213C187.818 213.646 187.489 214.979 186.832 216.213C186.176 217.447 185.23 218.442 183.996 219.199C182.782 219.935 181.329 220.303 179.637 220.303ZM175.547 212.213C175.547 213.128 175.727 213.944 176.085 214.661C176.443 215.358 176.931 215.905 177.548 216.303C178.165 216.701 178.861 216.9 179.637 216.9C180.394 216.9 181.08 216.701 181.697 216.303C182.314 215.885 182.802 215.328 183.16 214.631C183.538 213.915 183.728 213.099 183.728 212.183C183.728 211.287 183.538 210.491 183.16 209.795C182.802 209.078 182.314 208.521 181.697 208.123C181.08 207.705 180.394 207.496 179.637 207.496C178.861 207.496 178.165 207.705 177.548 208.123C176.931 208.521 176.443 209.078 176.085 209.795C175.727 210.491 175.547 211.297 175.547 212.213Z" fill="black"/>
</svg>
