<svg width="216" height="30" viewBox="0 0 216 30" fill="none" xmlns="http://www.w3.org/2000/svg">
<g clip-path="url(#clip0)">
<path d="M19.9959 4.98125H22.7347V0.21125C22.2622 0.14625 20.6372 0 18.7447 0C14.7959 0 12.0909 2.48375 12.0909 7.04875V11.25H7.7334V16.5825H12.0909V30H17.4334V16.5837H21.6147L22.2784 11.2513H17.4322V7.5775C17.4334 6.03625 17.8484 4.98125 19.9959 4.98125Z" fill="white"/>
</g>
<path d="M91.3819 7.28675C91.0362 6.00153 90.0229 4.98841 88.7378 4.64234C86.3902 4 76.9997 4 76.9997 4C76.9997 4 67.6094 4 65.2618 4.61798C64.0015 4.96369 62.9635 6.00171 62.6178 7.28675C62 9.63417 62 14.5024 62 14.5024C62 14.5024 62 19.3952 62.6178 21.7181C62.9639 23.0031 63.9768 24.0162 65.262 24.3623C67.6342 25.0048 77 25.0048 77 25.0048C77 25.0048 86.3902 25.0048 88.7378 24.3868C90.0231 24.0409 91.0362 23.0278 91.3823 21.7428C91.9999 19.3952 91.9999 14.5271 91.9999 14.5271C91.9999 14.5271 92.0246 9.63417 91.3819 7.28675ZM74.0099 18.9998V10.005L81.8186 14.5024L74.0099 18.9998Z" fill="white"/>
<path d="M154 5.88562C152.884 6.375 151.696 6.69937 150.456 6.85687C151.731 6.09562 152.704 4.89937 153.162 3.4575C151.973 4.16625 150.661 4.66688 149.262 4.94625C148.133 3.74438 146.524 3 144.769 3C141.364 3 138.623 5.76375 138.623 9.15188C138.623 9.63937 138.664 10.1081 138.766 10.5544C133.653 10.305 129.128 7.85437 126.089 4.12125C125.558 5.04187 125.247 6.09562 125.247 7.23C125.247 9.36 126.344 11.2481 127.979 12.3412C126.991 12.3225 126.021 12.0356 125.2 11.5837C125.2 11.6025 125.2 11.6269 125.2 11.6512C125.2 14.64 127.332 17.1225 130.127 17.6944C129.627 17.8312 129.081 17.8969 128.515 17.8969C128.121 17.8969 127.724 17.8744 127.351 17.7919C128.148 20.2275 130.409 22.0181 133.098 22.0762C131.005 23.7131 128.348 24.6994 125.472 24.6994C124.968 24.6994 124.484 24.6769 124 24.615C126.724 26.3719 129.953 27.375 133.435 27.375C144.753 27.375 150.94 18 150.94 9.87375C150.94 9.60187 150.931 9.33938 150.917 9.07875C152.138 8.2125 153.164 7.13062 154 5.88562Z" fill="white"/>
<g clip-path="url(#clip1)">
<path d="M215.971 8.82008C215.9 7.22607 215.643 6.13019 215.273 5.18061C214.892 4.17264 214.306 3.27022 213.539 2.52002C212.788 1.75816 211.88 1.16615 210.884 0.79117C209.929 0.421912 208.838 0.16414 207.244 0.0938599C205.639 0.0176273 205.129 0 201.056 0C196.983 0 196.473 0.0176273 194.873 0.0879078C193.279 0.158188 192.183 0.416188 191.234 0.785218C190.225 1.16615 189.323 1.7522 188.573 2.52002C187.811 3.27022 187.219 4.1786 186.844 5.17488C186.475 6.13019 186.217 7.22011 186.147 8.81413C186.07 10.42 186.053 10.9299 186.053 15.0029C186.053 19.076 186.07 19.5858 186.141 21.1858C186.211 22.7798 186.469 23.8757 186.838 24.8253C187.219 25.8332 187.811 26.7356 188.573 27.4858C189.323 28.2477 190.231 28.8397 191.228 29.2147C192.183 29.5839 193.273 29.8417 194.867 29.912C196.467 29.9825 196.977 29.9999 201.05 29.9999C205.123 29.9999 205.633 29.9825 207.233 29.912C208.827 29.8417 209.923 29.5839 210.872 29.2147C212.888 28.4352 214.482 26.8412 215.262 24.8253C215.631 23.8699 215.889 22.7798 215.959 21.1858C216.029 19.5858 216.047 19.076 216.047 15.0029C216.047 10.9299 216.041 10.42 215.971 8.82008ZM213.269 21.0686C213.205 22.5337 212.958 23.3249 212.753 23.8523C212.249 25.1593 211.212 26.1965 209.905 26.7006C209.378 26.9057 208.581 27.1518 207.121 27.2162C205.539 27.2867 205.064 27.3041 201.062 27.3041C197.059 27.3041 196.578 27.2867 195.002 27.2162C193.537 27.1518 192.745 26.9057 192.218 26.7006C191.568 26.4602 190.976 26.0793 190.495 25.5812C189.997 25.0947 189.616 24.5086 189.376 23.8583C189.17 23.3308 188.924 22.5337 188.86 21.0745C188.79 19.4922 188.772 19.0174 188.772 15.0146C188.772 11.0118 188.79 10.5313 188.86 8.95492C188.924 7.48979 189.17 6.69862 189.376 6.17117C189.616 5.52056 189.997 4.92879 190.501 4.44804C190.987 3.9499 191.573 3.56896 192.224 3.32882C192.751 3.1237 193.548 2.87761 195.008 2.81305C196.59 2.74277 197.065 2.72514 201.067 2.72514C205.076 2.72514 205.551 2.74277 207.127 2.81305C208.592 2.87761 209.384 3.1237 209.911 3.32882C210.561 3.56896 211.153 3.9499 211.634 4.44804C212.132 4.93451 212.513 5.52056 212.753 6.17117C212.958 6.69862 213.205 7.49551 213.269 8.95492C213.339 10.5373 213.357 11.0118 213.357 15.0146C213.357 19.0174 213.339 19.4862 213.269 21.0686Z" fill="white"/>
<path d="M201.056 7.2959C196.802 7.2959 193.35 10.7477 193.35 15.0025C193.35 19.2573 196.802 22.7091 201.056 22.7091C205.311 22.7091 208.763 19.2573 208.763 15.0025C208.763 10.7477 205.311 7.2959 201.056 7.2959ZM201.056 20.0016C198.296 20.0016 196.057 17.7629 196.057 15.0025C196.057 12.2421 198.296 10.0034 201.056 10.0034C203.817 10.0034 206.055 12.2421 206.055 15.0025C206.055 17.7629 203.817 20.0016 201.056 20.0016Z" fill="white"/>
<path d="M210.866 6.99152C210.866 7.98506 210.06 8.79065 209.067 8.79065C208.073 8.79065 207.268 7.98506 207.268 6.99152C207.268 5.99775 208.073 5.19238 209.067 5.19238C210.06 5.19238 210.866 5.99775 210.866 6.99152Z" fill="white"/>
</g>
<defs>
<clipPath id="clip0">
<rect width="30" height="30" fill="white"/>
</clipPath>
<clipPath id="clip1">
<rect width="30" height="30" fill="white" transform="translate(186)"/>
</clipPath>
</defs>
</svg>
