<svg width="313" height="313" viewBox="0 0 313 313" fill="none" xmlns="http://www.w3.org/2000/svg">
<path fill-rule="evenodd" clip-rule="evenodd" d="M245.437 221.937C237.788 242.296 215.097 253.628 194.496 260.538C174.836 267.133 153.928 263.468 133.613 259.447C113.932 255.552 89.0754 254.906 78.8379 237.648C68.1763 219.676 88.686 196.828 84.3312 176.372C80.3861 157.84 56.5456 147.629 55.6436 128.694C54.6704 108.267 65.5486 88.4778 79.427 73.4315C94.3241 57.2807 114.163 45.9005 135.731 41.8671C158.02 37.6989 183.799 36.7594 201.756 50.5554C219.382 64.0971 220.034 89.8385 226.055 111.262C230.543 127.23 229.546 143.275 232.408 159.618C236.145 180.956 253.064 201.633 245.437 221.937Z" fill="#C35AF4" fill-opacity="0.6"/>
<path fill-rule="evenodd" clip-rule="evenodd" d="M221.841 228.006C213.113 246.764 205.245 269.448 185.825 276.672C166.395 283.899 145.532 271.75 126.456 263.484C109.763 256.251 93.5853 247.268 83.3231 232.257C73.4989 217.886 75.8228 199.613 71.3134 182.824C64.9861 159.266 39.1068 135.071 51.6152 114.202C63.9226 93.6678 97.9388 108.754 120.529 100.713C142.771 92.7957 159.024 60.1597 181.353 68.0216C204.136 76.0436 200.224 110.511 210.444 132.372C217.617 147.715 230.248 160.096 232.249 176.891C234.361 194.612 229.355 211.854 221.841 228.006Z" fill="#C35AF4"/>
<path fill-rule="evenodd" clip-rule="evenodd" d="M152.406 32.8738C177.01 37.6579 185.073 70.1077 203.74 86.8347C219.528 100.982 243.093 103.975 252.791 122.826C263.122 142.909 264.516 168.256 255.298 188.875C246.422 208.732 227.737 223.837 210.374 236.937C192.567 250.373 180.74 266.126 158.958 270.938C134.232 276.4 98.4727 272.669 78.9746 256.512C59.6545 240.503 56.2902 209.782 56.1242 184.692C55.9893 164.318 67.9463 142.635 72.7113 122.826C78.1511 100.212 71.7206 82.237 85.7277 63.6687C100.841 43.6339 127.771 28.0839 152.406 32.8738Z" fill="#FFD12F"/>
<path d="M129.932 107.513C113.926 107.513 100.906 120.533 100.906 136.538C100.906 152.543 113.926 165.563 129.932 165.563C145.937 165.563 158.957 152.543 158.957 136.538C158.957 120.533 145.937 107.513 129.932 107.513ZM129.932 161.417C116.213 161.417 105.053 150.257 105.053 136.538C105.053 122.819 116.213 111.659 129.932 111.659C143.65 111.659 154.81 122.819 154.81 136.538C154.81 150.257 143.65 161.417 129.932 161.417Z" fill="black"/>
<path d="M129.933 119.951C120.788 119.951 113.347 127.392 113.347 136.537C113.347 145.682 120.788 153.123 129.933 153.123C139.078 153.123 146.518 145.682 146.518 136.537C146.518 127.392 139.078 119.951 129.933 119.951ZM129.933 148.977C123.072 148.977 117.493 143.397 117.493 136.537C117.493 129.677 123.072 124.098 129.933 124.098C136.793 124.098 142.372 129.677 142.372 136.537C142.372 143.397 136.793 148.977 129.933 148.977Z" fill="black"/>
<path d="M219.081 139.826L213.719 134.465L217.008 131.176C218.345 129.839 219.081 128.062 219.081 126.172C219.081 124.281 218.345 122.502 217.008 121.167L213.719 117.879L214.934 116.664C216.272 115.327 217.008 113.55 217.008 111.659C217.008 109.768 216.272 107.989 214.934 106.654L209.573 101.293C206.9 98.6184 202.236 98.6184 199.563 101.293L190.055 110.801L155.669 76.414L165.177 66.9061C166.514 65.571 167.25 63.7921 167.25 61.9013C167.25 60.0105 166.514 58.2317 165.177 56.8965L159.815 51.5351C157.143 48.8607 152.478 48.8607 149.806 51.5351L148.591 52.7501L145.303 49.4619C142.63 46.7874 137.965 46.7874 135.293 49.4619L132.005 52.7501L126.643 47.3887C123.971 44.7142 119.306 44.7142 116.634 47.3887L107.126 56.8965C105.789 58.2317 105.053 60.0105 105.053 61.9013C105.053 63.7921 105.789 65.571 107.126 66.9061L112.487 72.2675L109.199 75.5557C107.862 76.8908 107.126 78.6697 107.126 80.5605C107.126 82.4513 107.862 84.2301 109.199 85.5653L112.487 88.8534L111.272 90.0683C109.935 91.4035 109.199 93.1823 109.199 95.0731C109.199 96.9639 109.935 98.7428 111.272 100.078L114.024 102.829C101.391 108.817 92.6133 121.654 92.6133 136.538C92.6133 157.115 109.355 173.856 129.932 173.856C144.815 173.856 157.653 165.078 163.64 152.446L166.392 155.197C167.729 156.534 169.506 157.27 171.396 157.27C173.287 157.27 175.066 156.534 176.401 155.197L177.616 153.982L180.904 157.27C182.241 158.607 184.018 159.343 185.909 159.343C187.8 159.343 189.579 158.607 190.914 157.27L194.202 153.982L199.563 159.343C200.901 160.681 202.677 161.417 204.568 161.417C206.459 161.417 208.238 160.681 209.573 159.343L219.081 149.836C220.418 148.498 221.154 146.722 221.154 144.831C221.154 142.94 220.418 141.161 219.081 139.826ZM187.124 113.732L173.47 127.387L156.927 110.844C156.504 110.399 156.071 109.967 155.625 109.542L139.083 92.9999L152.737 79.3456L187.124 113.732ZM167.109 133.747C166.891 130.824 166.365 127.988 165.51 125.291L170.538 130.318L167.109 133.747ZM136.151 95.9315L141.179 100.959C138.48 100.105 135.643 99.5783 132.722 99.3606L136.151 95.9315ZM110.058 63.9746C109.512 63.4293 109.199 62.6726 109.199 61.9013C109.199 61.1301 109.512 60.3734 110.058 59.8281L119.565 50.3202C120.656 49.2297 122.621 49.2297 123.712 50.3202L129.073 55.6816L115.419 69.336L110.058 63.9746ZM112.131 82.6337C111.585 82.0885 111.272 81.3317 111.272 80.5605C111.272 79.7892 111.585 79.0325 112.131 78.4872L138.225 52.3935C139.315 51.3029 141.28 51.3029 142.371 52.3935L145.659 55.6816L115.419 85.9219L112.131 82.6337ZM114.204 97.1464C113.659 96.6011 113.346 95.8444 113.346 95.0731C113.346 94.3019 113.659 93.5452 114.204 92.9999L152.737 54.4667C153.828 53.3762 155.793 53.3762 156.884 54.4667L162.245 59.8281C162.79 60.3734 163.103 61.1301 163.103 61.9013C163.103 62.6726 162.79 63.4293 162.245 63.9746L126.842 99.3751C123.845 99.6218 120.952 100.221 118.195 101.137L114.204 97.1464ZM129.932 169.71C111.641 169.71 96.7598 154.828 96.7598 136.538C96.7598 118.248 111.641 103.366 129.932 103.366C138.737 103.366 146.731 106.839 152.675 112.455L154.014 113.794C159.631 119.738 163.103 127.733 163.103 136.538C163.103 154.828 148.222 169.71 129.932 169.71ZM169.323 152.265L165.33 148.272C166.246 145.517 166.846 142.623 167.092 139.625L202.495 104.224C203.585 103.134 205.551 103.134 206.641 104.224L212.003 109.586C212.548 110.131 212.861 110.888 212.861 111.659C212.861 112.43 212.548 113.187 212.003 113.732L173.47 152.265C172.379 153.356 170.414 153.356 169.323 152.265ZM187.982 154.339C186.892 155.429 184.926 155.429 183.836 154.339L180.548 151.051L210.788 120.81L214.076 124.098C214.621 124.644 214.934 125.4 214.934 126.172C214.934 126.943 214.621 127.7 214.076 128.245L187.982 154.339ZM216.149 146.904L206.641 156.412C205.551 157.502 203.585 157.502 202.495 156.412L197.133 151.051L210.788 137.396L216.149 142.758C216.694 143.303 217.008 144.06 217.008 144.831C217.008 145.602 216.694 146.359 216.149 146.904Z" fill="black"/>
<path d="M92.1366 195.389C91.9575 195.19 91.5793 194.932 91.0022 194.613C90.425 194.275 89.7284 193.976 88.9123 193.718C88.1162 193.439 87.2902 193.3 86.4344 193.3C84.1853 193.3 83.0608 194.096 83.0608 195.688C83.0608 196.265 83.24 196.723 83.5982 197.061C83.9565 197.4 84.4938 197.688 85.2104 197.927C85.9269 198.166 86.8225 198.425 87.8973 198.703C89.2905 199.061 90.4946 199.479 91.5097 199.957C92.5446 200.435 93.3308 201.072 93.8682 201.868C94.4255 202.644 94.7041 203.679 94.7041 204.973C94.7041 206.485 94.3359 207.709 93.5995 208.645C92.883 209.56 91.9276 210.227 90.7335 210.645C89.5393 211.063 88.2456 211.272 86.8524 211.272C85.2601 211.272 83.6778 211.033 82.1055 210.556C80.553 210.058 79.1698 209.381 77.9557 208.525L79.7768 204.973C79.9559 205.152 80.2744 205.391 80.7322 205.689C81.1899 205.968 81.7472 206.256 82.404 206.555C83.0608 206.834 83.7773 207.072 84.5536 207.272C85.3298 207.471 86.1159 207.57 86.9121 207.57C89.181 207.57 90.3155 206.844 90.3155 205.391C90.3155 204.774 90.0866 204.276 89.6288 203.898C89.1711 203.52 88.5242 203.201 87.6883 202.943C86.8723 202.684 85.9169 202.395 84.8222 202.077C83.4688 201.699 82.3443 201.281 81.4487 200.823C80.5729 200.345 79.9161 199.758 79.4783 199.061C79.0404 198.345 78.8215 197.439 78.8215 196.345C78.8215 194.892 79.1598 193.678 79.8365 192.702C80.5331 191.707 81.4686 190.961 82.6429 190.463C83.8171 189.946 85.1208 189.687 86.5538 189.687C88.0266 189.687 89.4 189.926 90.6738 190.404C91.9475 190.881 93.0422 191.429 93.9578 192.046L92.1366 195.389ZM106.716 211.332C105.482 211.332 104.407 211.053 103.492 210.496C102.576 209.939 101.86 209.202 101.342 208.287V217.392H97.3418V195.389H100.835V198.076C101.412 197.161 102.158 196.444 103.074 195.927C104.009 195.389 105.064 195.121 106.239 195.121C107.652 195.121 108.906 195.489 110 196.225C111.095 196.942 111.961 197.917 112.598 199.151C113.234 200.365 113.553 201.709 113.553 203.181C113.553 204.714 113.254 206.097 112.657 207.331C112.08 208.545 111.274 209.521 110.239 210.257C109.224 210.973 108.05 211.332 106.716 211.332ZM105.373 207.928C106.189 207.928 106.895 207.709 107.492 207.272C108.109 206.814 108.587 206.227 108.925 205.51C109.284 204.774 109.463 203.997 109.463 203.181C109.463 202.306 109.274 201.52 108.896 200.823C108.517 200.106 108 199.549 107.343 199.151C106.706 198.733 105.97 198.524 105.134 198.524C104.378 198.524 103.621 198.773 102.865 199.27C102.109 199.768 101.601 200.395 101.342 201.151V204.823C101.701 205.699 102.248 206.436 102.984 207.033C103.721 207.63 104.517 207.928 105.373 207.928ZM123.518 211.332C121.826 211.332 120.363 210.964 119.129 210.227C117.915 209.491 116.97 208.515 116.293 207.301C115.617 206.067 115.278 204.734 115.278 203.301C115.278 201.828 115.607 200.475 116.263 199.241C116.94 197.987 117.895 196.992 119.129 196.255C120.363 195.499 121.836 195.121 123.548 195.121C125.26 195.121 126.722 195.499 127.937 196.255C129.151 196.992 130.076 197.977 130.713 199.211C131.37 200.425 131.698 201.738 131.698 203.152C131.698 203.669 131.668 204.117 131.609 204.495H119.518C119.617 205.709 120.065 206.664 120.861 207.361C121.677 208.058 122.612 208.406 123.667 208.406C124.463 208.406 125.21 208.217 125.906 207.839C126.623 207.441 127.111 206.923 127.369 206.286L130.803 207.242C130.225 208.436 129.3 209.421 128.026 210.197C126.752 210.954 125.25 211.332 123.518 211.332ZM119.428 201.957H127.608C127.489 200.783 127.041 199.838 126.265 199.121C125.508 198.385 124.583 198.017 123.488 198.017C122.413 198.017 121.488 198.385 120.712 199.121C119.955 199.838 119.527 200.783 119.428 201.957ZM141.42 211.332C139.728 211.332 138.265 210.954 137.031 210.197C135.797 209.441 134.842 208.446 134.165 207.212C133.488 205.978 133.15 204.644 133.15 203.211C133.15 201.758 133.479 200.415 134.135 199.181C134.812 197.947 135.767 196.962 137.001 196.225C138.235 195.489 139.698 195.121 141.39 195.121C143.102 195.121 144.555 195.489 145.749 196.225C146.963 196.962 147.868 197.927 148.466 199.121L144.555 200.315C143.858 199.121 142.793 198.524 141.36 198.524C140.584 198.524 139.887 198.723 139.27 199.121C138.653 199.499 138.166 200.047 137.807 200.763C137.449 201.46 137.27 202.276 137.27 203.211C137.27 204.127 137.449 204.943 137.807 205.659C138.186 206.356 138.683 206.913 139.3 207.331C139.917 207.729 140.604 207.928 141.36 207.928C142.077 207.928 142.733 207.759 143.331 207.421C143.948 207.063 144.375 206.615 144.614 206.077L148.525 207.272C147.988 208.446 147.092 209.421 145.838 210.197C144.604 210.954 143.132 211.332 141.42 211.332ZM150.987 193.21V189.239H154.987V193.21H150.987ZM150.987 211.033V195.389H154.987V211.033H150.987ZM157.522 206.406C157.522 205.391 157.8 204.505 158.357 203.749C158.935 202.972 159.731 202.375 160.746 201.957C161.761 201.539 162.925 201.33 164.239 201.33C164.896 201.33 165.562 201.39 166.239 201.51C166.916 201.609 167.503 201.758 168 201.957V201.121C168 200.126 167.702 199.36 167.105 198.823C166.528 198.285 165.662 198.017 164.507 198.017C163.652 198.017 162.836 198.166 162.059 198.464C161.283 198.763 160.467 199.201 159.611 199.778L158.328 197.151C159.363 196.474 160.417 195.967 161.492 195.628C162.587 195.29 163.731 195.121 164.925 195.121C167.155 195.121 168.886 195.678 170.12 196.793C171.374 197.907 172.001 199.499 172.001 201.569V206.555C172.001 206.993 172.071 207.301 172.21 207.481C172.349 207.64 172.598 207.739 172.956 207.779V211.033C172.598 211.113 172.27 211.163 171.971 211.182C171.693 211.222 171.454 211.242 171.255 211.242C170.459 211.242 169.851 211.063 169.434 210.705C169.016 210.347 168.767 209.909 168.687 209.391L168.598 208.585C167.901 209.481 167.045 210.167 166.03 210.645C165.035 211.103 164.01 211.332 162.955 211.332C161.9 211.332 160.965 211.123 160.149 210.705C159.333 210.267 158.686 209.68 158.208 208.943C157.75 208.187 157.522 207.341 157.522 206.406ZM167.254 207.212C167.752 206.734 168 206.276 168 205.838V204.256C166.966 203.838 165.921 203.629 164.866 203.629C163.811 203.629 162.955 203.858 162.298 204.316C161.641 204.754 161.313 205.341 161.313 206.077C161.313 206.674 161.552 207.212 162.03 207.689C162.507 208.167 163.194 208.406 164.09 208.406C164.687 208.406 165.264 208.297 165.821 208.078C166.398 207.859 166.876 207.57 167.254 207.212ZM175.71 189.239H179.71V206.018C179.71 206.754 179.829 207.242 180.068 207.481C180.307 207.719 180.636 207.839 181.053 207.839C181.372 207.839 181.7 207.799 182.039 207.719C182.377 207.64 182.676 207.54 182.934 207.421L183.472 210.466C182.934 210.725 182.307 210.924 181.591 211.063C180.874 211.202 180.228 211.272 179.65 211.272C178.396 211.272 177.421 210.944 176.725 210.287C176.048 209.61 175.71 208.655 175.71 207.421V189.239ZM78.4245 224.896H82.2459L84.6641 231.912L87.1122 224.896H90.9037L87.2615 234.539L89.9484 241.286L95.9492 224.836H100.427L91.9486 246.033H88.3959L84.6641 237.137L80.9621 246.033H77.4094L68.9606 224.836H73.3791L79.4097 241.286L82.0369 234.539L78.4245 224.896ZM107.336 246.332C105.625 246.332 104.152 245.964 102.918 245.227C101.704 244.471 100.768 243.476 100.112 242.242C99.4547 241.008 99.1263 239.674 99.1263 238.241C99.1263 236.788 99.4547 235.445 100.112 234.211C100.788 232.977 101.734 231.992 102.948 231.255C104.182 230.499 105.645 230.121 107.336 230.121C109.028 230.121 110.481 230.499 111.695 231.255C112.929 231.992 113.875 232.977 114.531 234.211C115.188 235.445 115.517 236.788 115.517 238.241C115.517 239.674 115.188 241.008 114.531 242.242C113.875 243.476 112.929 244.471 111.695 245.227C110.481 245.964 109.028 246.332 107.336 246.332ZM103.246 238.241C103.246 239.157 103.425 239.973 103.784 240.689C104.142 241.386 104.63 241.933 105.247 242.331C105.864 242.729 106.56 242.928 107.336 242.928C108.093 242.928 108.779 242.729 109.396 242.331C110.013 241.913 110.501 241.356 110.859 240.659C111.237 239.943 111.426 239.127 111.426 238.211C111.426 237.316 111.237 236.52 110.859 235.823C110.501 235.106 110.013 234.549 109.396 234.151C108.779 233.733 108.093 233.524 107.336 233.524C106.56 233.524 105.864 233.733 105.247 234.151C104.63 234.549 104.142 235.106 103.784 235.823C103.425 236.52 103.246 237.326 103.246 238.241ZM127.531 233.853C126.317 233.853 125.233 234.091 124.277 234.569C123.322 235.027 122.635 235.694 122.217 236.569V246.033H118.217V230.389H121.889V233.733C122.426 232.658 123.123 231.812 123.979 231.195C124.854 230.578 125.77 230.24 126.725 230.18C127.143 230.18 127.412 230.19 127.531 230.21V233.853ZM140.45 246.033L135.882 239.286L133.763 241.376V246.033H129.762V224.239H133.763V237.435L140.062 230.419H144.301L138.48 237.047L144.719 246.033H140.45ZM152.818 246.332C151.106 246.332 149.634 245.964 148.4 245.227C147.185 244.471 146.25 243.476 145.593 242.242C144.936 241.008 144.608 239.674 144.608 238.241C144.608 236.788 144.936 235.445 145.593 234.211C146.27 232.977 147.215 231.992 148.429 231.255C149.663 230.499 151.126 230.121 152.818 230.121C154.51 230.121 155.963 230.499 157.177 231.255C158.411 231.992 159.356 232.977 160.013 234.211C160.67 235.445 160.998 236.788 160.998 238.241C160.998 239.674 160.67 241.008 160.013 242.242C159.356 243.476 158.411 244.471 157.177 245.227C155.963 245.964 154.51 246.332 152.818 246.332ZM148.728 238.241C148.728 239.157 148.907 239.973 149.265 240.689C149.624 241.386 150.111 241.933 150.728 242.331C151.345 242.729 152.042 242.928 152.818 242.928C153.574 242.928 154.261 242.729 154.878 242.331C155.495 241.913 155.983 241.356 156.341 240.659C156.719 239.943 156.908 239.127 156.908 238.211C156.908 237.316 156.719 236.52 156.341 235.823C155.983 235.106 155.495 234.549 154.878 234.151C154.261 233.733 153.574 233.524 152.818 233.524C152.042 233.524 151.345 233.733 150.728 234.151C150.111 234.549 149.624 235.106 149.265 235.823C148.907 236.52 148.728 237.326 148.728 238.241ZM163.549 240.182V230.389H167.55V239.316C167.55 241.724 168.415 242.928 170.147 242.928C170.923 242.928 171.67 242.699 172.386 242.242C173.123 241.764 173.72 241.047 174.177 240.092V230.389H178.178V241.555C178.178 241.993 178.248 242.301 178.387 242.481C178.526 242.64 178.775 242.739 179.133 242.779V246.033C178.735 246.113 178.397 246.163 178.118 246.182C177.859 246.202 177.621 246.212 177.402 246.212C176.685 246.212 176.098 246.053 175.64 245.735C175.202 245.396 174.944 244.939 174.864 244.361L174.774 243.107C174.078 244.182 173.182 244.988 172.088 245.526C170.993 246.063 169.789 246.332 168.475 246.332C166.863 246.332 165.639 245.814 164.803 244.779C163.967 243.724 163.549 242.192 163.549 240.182ZM191.469 245.227C190.932 245.466 190.265 245.705 189.469 245.944C188.693 246.182 187.887 246.302 187.051 246.302C186.315 246.302 185.638 246.173 185.021 245.914C184.404 245.655 183.906 245.247 183.528 244.69C183.17 244.113 182.991 243.366 182.991 242.451V233.464H180.931V230.389H182.991V225.314H186.991V230.389H190.275V233.464H186.991V241.107C186.991 241.645 187.131 242.033 187.409 242.272C187.708 242.51 188.066 242.63 188.484 242.63C188.902 242.63 189.31 242.56 189.708 242.421C190.106 242.281 190.425 242.162 190.663 242.063L191.469 245.227Z" fill="black"/>
</svg>
