<svg width="267" height="263" viewBox="0 0 267 263" fill="none" xmlns="http://www.w3.org/2000/svg">
<path fill-rule="evenodd" clip-rule="evenodd" d="M119.913 19.5713C140.37 10.996 164.66 19.8998 184.205 30.3471C202.858 40.3172 214.772 58.3948 226.008 76.2803C236.893 93.6085 253.811 112.502 248.172 132.176C242.301 152.665 210.995 153.44 198.866 170.988C187.878 186.886 196.989 211.72 183.572 225.641C169.098 240.66 146.803 246.44 125.926 246.675C103.517 246.926 81.1889 240.173 63.1011 226.994C44.4084 213.375 25.6687 194.907 23.336 171.929C21.0462 149.374 39.6873 130.874 51.3673 111.412C60.0729 96.9069 72.675 86.4161 82.7965 72.8546C96.012 55.1477 99.511 28.1231 119.913 19.5713Z" fill="#2FDAFF" fill-opacity="0.6"/>
<path fill-rule="evenodd" clip-rule="evenodd" d="M141.078 33.6949C161.104 27.0409 183.441 17.0015 202.392 26.3535C221.353 35.7107 226.942 59.6919 234.161 79.6301C240.478 97.0773 245.136 115.367 241.182 133.487C237.396 150.833 222.212 161.899 212.912 176.995C199.863 198.178 200.025 234.312 175.788 239.639C151.939 244.879 139.324 209.084 117.548 197.952C96.106 186.991 60.5177 197.775 50.7225 175.707C40.7277 153.189 69.0375 131.968 78.1033 109.085C84.4662 93.0239 84.8113 74.9876 95.8706 61.7481C107.54 47.778 123.836 39.4243 141.078 33.6949Z" fill="#2FDAFF"/>
<path fill-rule="evenodd" clip-rule="evenodd" d="M138.447 14.1361C164.596 7.36681 196.238 16.5702 213.862 38.3644C231.029 59.5927 221.521 91.906 223.963 119.883C225.759 140.446 232.322 160.676 226.251 180.276C220.205 199.799 206.501 215.138 190.8 226.956C175.308 238.618 157.239 243.94 138.447 246.368C117.229 249.109 93.6935 254.714 76.0492 241.783C58.2972 228.773 54.0079 203.27 49.032 180.837C44.4281 160.082 41.9704 138.486 48.6811 118.402C55.2666 98.6932 72.2942 86.9664 85.5374 71.584C102.99 51.3126 113.438 20.6102 138.447 14.1361Z" fill="#FFD12F"/>
<path d="M208.34 77.1649L198.969 67.8411C199.135 67.2503 199.226 66.6284 199.226 65.9856V51.6702C199.226 50.3105 198.118 49.2082 196.752 49.2082H180.186L162.739 13.3445C162.378 12.6023 161.667 12.0892 160.846 11.9777C160.025 11.8664 159.202 12.1712 158.654 12.7901L141.018 32.7219L124.583 26.7704C123.967 26.5471 123.286 26.5764 122.691 26.8526C122.096 27.1286 121.636 27.6281 121.412 28.2419L116.491 41.6936C116.151 42.6217 116.019 43.5905 116.089 44.547L113.14 46.05C106.585 49.3914 101.588 55.0237 99.0692 61.9093L89.7188 87.4697C87.8916 92.4638 88.1287 97.867 90.3862 102.684C92.6437 107.501 96.6514 111.155 101.671 112.972L128.453 122.671C129.867 123.183 131.311 123.427 132.729 123.427C137.396 123.427 141.788 120.785 143.888 116.329L148.621 106.282V118.111C148.621 129.082 157.593 138.008 168.62 138.008H188.648C199.675 138.008 208.647 129.082 208.647 118.111V108.011C212.188 105.042 214.443 100.602 214.443 95.6451V91.8249C214.443 86.2872 212.276 81.0806 208.34 77.1649ZM178.636 54.1329C178.64 54.1329 178.643 54.1324 178.647 54.1324H194.277V58.5817H180.471C179.104 58.5817 177.996 59.6839 177.996 61.0437C177.996 62.4034 179.104 63.5056 180.471 63.5056H194.277V65.9858C194.277 67.0718 193.389 67.9551 192.298 67.9551H164.971C163.879 67.9551 162.991 67.0718 162.991 65.9858V54.1324H178.627C178.63 54.1324 178.633 54.1329 178.636 54.1329ZM159.907 18.8261L174.688 49.2085H160.517C159.151 49.2085 158.043 50.3107 158.043 51.6705V65.3272L154.312 57.3672C154.674 56.8627 154.971 56.3071 155.19 55.7086L160.111 42.2564C160.579 40.9789 159.917 39.566 158.632 39.1009L146.011 34.5305L159.907 18.8261ZM121.14 43.3778L122.324 40.1433L137.389 45.5988C137.668 45.6999 137.954 45.7479 138.235 45.7479C139.246 45.7479 140.195 45.127 140.56 44.1272C141.028 42.8495 140.366 41.4368 139.081 40.9717L124.016 35.5165L125.215 32.2396L154.614 42.8857L150.539 54.0243C150.359 54.5185 149.995 54.9131 149.516 55.1354C149.037 55.3577 148.5 55.3816 148.002 55.2012L122.323 45.9021C121.827 45.7223 121.43 45.3604 121.207 44.8838C120.983 44.4069 120.96 43.8724 121.14 43.3778ZM148.621 94.6822L139.407 114.239C137.764 117.725 133.782 119.36 130.146 118.044L103.364 108.346C99.5864 106.978 96.5705 104.228 94.8717 100.603C93.173 96.9785 92.9943 92.9123 94.3694 89.1536L103.72 63.594C105.81 57.8798 109.957 53.2057 115.397 50.4328L118.186 49.011C118.875 49.6743 119.702 50.1933 120.631 50.5296L146.31 59.8287C147.083 60.1086 147.884 60.2482 148.684 60.2482C149.168 60.2482 149.652 60.1958 150.129 60.0936L154.21 68.8028C154.727 69.9062 155.156 71.0557 155.49 72.2328C151.051 77.4549 148.621 84.0355 148.621 90.9108V94.6822ZM209.495 95.6451C209.494 101.846 204.424 106.89 198.192 106.89H194.154C190.719 106.89 187.924 104.11 187.924 100.692C187.924 97.2747 190.719 94.4944 194.154 94.4944H198.607C199.973 94.4944 201.081 93.3919 201.081 92.0324C201.081 90.6729 199.973 89.5705 198.607 89.5705H194.154C187.99 89.5705 182.975 94.5596 182.975 100.692C182.975 106.825 187.99 111.814 194.154 111.814H198.192C200.124 111.814 201.978 111.475 203.698 110.857V118.111C203.698 126.367 196.947 133.084 188.648 133.084H168.62C160.322 133.084 153.57 126.367 153.57 118.111V90.91C153.57 84.8292 155.861 79.0259 160.019 74.569L162.154 72.2808C163.015 72.6639 163.968 72.8786 164.971 72.8786H192.298C193.648 72.8786 194.907 72.4913 195.974 71.8244L204.841 80.6463C207.842 83.632 209.495 87.6019 209.495 91.8244V95.6451Z" fill="#000022"/>
<path d="M99.4951 206.981C99.4951 208.175 99.1866 209.18 98.5696 209.996C97.9526 210.792 97.1167 211.399 96.0618 211.817C95.0268 212.235 93.8924 212.444 92.6584 212.444H82.4182V191.248H93.763C94.7581 191.248 95.614 191.516 96.3305 192.054C97.047 192.571 97.6043 193.248 98.0023 194.084C98.4004 194.92 98.5994 195.776 98.5994 196.651C98.5994 197.686 98.3407 198.661 97.8232 199.577C97.3057 200.473 96.5494 201.139 95.5543 201.577C96.7683 201.936 97.7237 202.582 98.4203 203.518C99.1368 204.453 99.4951 205.608 99.4951 206.981ZM86.5382 194.77V200.114H92.0314C92.7081 200.114 93.2953 199.876 93.7928 199.398C94.2904 198.92 94.5392 198.263 94.5392 197.427C94.5392 196.631 94.3103 195.994 93.8525 195.517C93.4147 195.019 92.8673 194.77 92.2105 194.77H86.5382ZM95.3453 206.205C95.3453 205.428 95.1064 204.762 94.6288 204.204C94.1511 203.647 93.564 203.369 92.8673 203.369H86.5382V208.951H92.6584C93.4147 208.951 94.0516 208.683 94.5691 208.145C95.0865 207.608 95.3453 206.961 95.3453 206.205ZM109.547 212.743C107.835 212.743 106.362 212.375 105.128 211.638C103.914 210.882 102.979 209.887 102.322 208.653C101.665 207.419 101.337 206.085 101.337 204.652C101.337 203.199 101.665 201.856 102.322 200.622C102.999 199.388 103.944 198.403 105.158 197.666C106.392 196.91 107.855 196.532 109.547 196.532C111.239 196.532 112.691 196.91 113.906 197.666C115.14 198.403 116.085 199.388 116.742 200.622C117.399 201.856 117.727 203.199 117.727 204.652C117.727 206.085 117.399 207.419 116.742 208.653C116.085 209.887 115.14 210.882 113.906 211.638C112.691 212.375 111.239 212.743 109.547 212.743ZM105.457 204.652C105.457 205.568 105.636 206.384 105.994 207.1C106.352 207.797 106.84 208.344 107.457 208.742C108.074 209.14 108.771 209.339 109.547 209.339C110.303 209.339 110.99 209.14 111.607 208.742C112.224 208.324 112.711 207.767 113.07 207.071C113.448 206.354 113.637 205.538 113.637 204.622C113.637 203.727 113.448 202.931 113.07 202.234C112.711 201.518 112.224 200.96 111.607 200.562C110.99 200.144 110.303 199.935 109.547 199.935C108.771 199.935 108.074 200.144 107.457 200.562C106.84 200.96 106.352 201.518 105.994 202.234C105.636 202.931 105.457 203.737 105.457 204.652ZM122.266 196.801L125.55 201.697L125.789 202.234L126.087 201.697L129.341 196.801H133.551L128.117 204.593L133.64 212.444H129.431L126.057 207.578L125.789 207.071L125.55 207.578L122.206 212.444H117.997L123.52 204.682L118.086 196.801H122.266ZM135.559 194.621V190.65H139.559V194.621H135.559ZM135.559 212.444V196.801H139.559V212.444H135.559ZM157.707 212.444H153.707V203.667C153.707 202.413 153.488 201.498 153.05 200.92C152.612 200.343 152.005 200.055 151.229 200.055C150.691 200.055 150.144 200.194 149.587 200.473C149.049 200.751 148.562 201.139 148.124 201.637C147.686 202.115 147.367 202.672 147.168 203.309V212.444H143.168V196.801H146.78V199.696C147.358 198.721 148.193 197.955 149.288 197.398C150.383 196.82 151.617 196.532 152.99 196.532C153.965 196.532 154.761 196.711 155.378 197.069C155.995 197.408 156.473 197.875 156.812 198.472C157.15 199.05 157.379 199.706 157.498 200.443C157.637 201.179 157.707 201.926 157.707 202.682V212.444ZM167.306 212.534C165.913 212.534 164.689 212.176 163.634 211.459C162.579 210.743 161.753 209.787 161.156 208.593C160.559 207.379 160.26 206.055 160.26 204.622C160.26 203.11 160.569 201.746 161.186 200.532C161.803 199.298 162.659 198.323 163.753 197.607C164.848 196.89 166.112 196.532 167.545 196.532C168.759 196.532 169.824 196.81 170.739 197.368C171.655 197.905 172.411 198.632 173.008 199.547V196.801H176.501V211.698C176.501 213.25 176.123 214.574 175.367 215.669C174.63 216.783 173.605 217.629 172.292 218.206C170.978 218.803 169.485 219.102 167.813 219.102C166.102 219.102 164.659 218.813 163.484 218.236C162.33 217.679 161.335 216.883 160.499 215.848L162.678 213.728C163.276 214.464 164.022 215.042 164.918 215.46C165.833 215.878 166.798 216.087 167.813 216.087C168.649 216.087 169.416 215.927 170.112 215.609C170.829 215.31 171.406 214.833 171.844 214.176C172.282 213.539 172.501 212.713 172.501 211.698V209.728C171.983 210.623 171.247 211.32 170.291 211.817C169.356 212.295 168.361 212.534 167.306 212.534ZM168.649 209.339C169.525 209.339 170.311 209.081 171.008 208.563C171.724 208.046 172.222 207.429 172.501 206.712V202.98C172.142 202.065 171.575 201.328 170.799 200.771C170.043 200.214 169.246 199.935 168.41 199.935C167.594 199.935 166.878 200.164 166.261 200.622C165.664 201.08 165.196 201.677 164.858 202.413C164.519 203.13 164.35 203.906 164.35 204.742C164.35 205.598 164.539 206.374 164.918 207.071C165.296 207.767 165.803 208.324 166.44 208.742C167.097 209.14 167.833 209.339 168.649 209.339Z" fill="black"/>
</svg>
