<svg width="350" height="372" viewBox="0 0 350 372" fill="none" xmlns="http://www.w3.org/2000/svg">
<path fill-rule="evenodd" clip-rule="evenodd" d="M62.9872 136.15C73.8403 111.443 95.1333 92.393 118.204 81.2928C140.015 70.7986 162.561 78.712 185.594 77.1593C214.894 75.1842 248.791 53.3821 271.359 70.9687C293.744 88.4125 290.936 126.895 289.698 158.286C288.607 185.969 273.868 210.432 264.802 237.262C253.444 270.872 259.024 317.146 229.939 335.13C200.955 353.051 171.045 321.972 140.856 313.901C115.916 307.234 84.7483 312.771 68.6554 292.013C52.7789 271.535 62.1896 239.051 61.174 211.124C60.2491 185.691 52.4088 160.232 62.9872 136.15Z" fill="#FFD12F"/>
<path d="M165.496 307.422C213.041 307.422 251.583 304.482 251.583 300.856C251.583 297.23 213.041 294.29 165.496 294.29C117.951 294.29 79.4082 297.23 79.4082 300.856C79.4082 304.482 117.951 307.422 165.496 307.422Z" fill="url(#paint0_linear)"/>
<path d="M97.5116 285.01C97.655 290.364 98.5519 295.672 100.176 300.776C100.213 300.894 100.252 301.011 100.291 301.13H110.234C110.223 301.024 110.212 300.905 110.202 300.776C109.539 293.154 105.717 246.768 110.287 238.835C109.887 239.478 96.7408 260.793 97.5116 285.01Z" fill="url(#paint1_linear)"/>
<path d="M98.2584 300.776C98.3415 300.895 98.4281 301.013 98.5165 301.13H105.975C105.919 301.029 105.853 300.911 105.777 300.776C104.545 298.552 100.898 291.903 97.5123 285.01C93.8739 277.602 90.5361 269.914 90.8172 267.131C90.7306 267.758 88.213 286.891 98.2584 300.776Z" fill="url(#paint2_linear)"/>
<path d="M236.708 160.751C236.708 160.751 254.51 147.181 246.768 145.795C239.027 144.41 233.616 153.26 233.616 153.26L231.216 159.245L235.831 161.249L236.708 160.751Z" fill="#FFB8B8"/>
<path d="M220.936 162.749C220.936 162.749 230.988 151.658 232.998 153.675C235.009 155.691 241.04 156.699 240.035 160.732C239.03 164.765 217.92 177.872 217.92 177.872L220.936 162.749Z" fill="#5FBCE3"/>
<path opacity="0.1" d="M233.647 163.391C233.646 163.391 233.631 163.38 233.605 163.359C233.635 163.38 233.648 163.391 233.647 163.391ZM234.608 160.969C234.608 160.97 234.59 160.98 234.556 160.996C234.591 160.976 234.608 160.968 234.608 160.969ZM233.086 156.989C233.09 156.988 233.06 157.032 232.984 157.122C233.043 157.035 233.081 156.99 233.086 156.989Z" fill="#5FBCE3" stroke="#5FBCE3" stroke-width="16"/>
<path d="M163.639 161.74V169.806C163.639 169.806 162.634 187.954 168.666 186.945C174.697 185.937 171.681 170.814 171.681 170.814L170.676 161.74H163.639Z" fill="#FFB8B8"/>
<path d="M166.655 220.217C166.655 220.217 157.608 234.332 154.592 235.34C151.577 236.348 135.493 245.422 133.483 254.496L119.41 272.644L126.447 281.717C126.447 281.717 158.613 247.438 167.66 244.414C176.707 241.389 185.754 226.266 185.754 226.266L166.655 220.217Z" fill="#FFB8B8"/>
<path d="M238.024 197.027C238.024 197.027 257.123 200.052 254.107 212.15C251.092 224.249 221.941 249.454 221.941 249.454L220.936 255.503L209.879 257.52L204.853 252.479L205.858 249.454C205.858 249.454 217.92 238.364 218.925 234.331C219.931 230.298 230.988 214.167 236.014 213.159L228.977 209.126L238.024 197.027Z" fill="#FFB8B8"/>
<path d="M122.426 272.644C122.426 272.644 126.447 266.594 120.415 267.603C114.384 268.611 110.363 269.619 110.363 273.652C110.363 277.685 115.389 305.914 121.421 303.898C127.452 301.882 122.426 292.808 122.426 292.808C122.426 292.808 125.441 284.742 127.452 283.734C129.462 282.726 129.462 277.685 127.452 277.685C125.441 277.685 121.421 274.66 122.426 272.644Z" fill="#2F2E41"/>
<path d="M207.868 250.463C207.868 250.463 207.868 245.422 203.847 250.463C199.826 255.504 197.816 259.537 201.837 262.562C205.858 265.586 219.93 272.644 219.93 272.644C219.93 272.644 235.008 275.668 232.998 268.611C232.998 268.611 222.946 263.57 222.946 259.537C222.946 255.504 222.946 248.447 219.93 250.463C216.915 252.48 207.868 253.488 207.868 250.463Z" fill="#2F2E41"/>
<path d="M188.769 174.847C188.769 174.847 174.696 176.863 175.701 197.027C175.701 197.027 157.607 215.175 162.633 221.224C167.66 227.273 178.717 238.364 182.738 235.339C186.758 232.315 198.821 209.126 198.821 209.126C198.821 209.126 226.967 219.208 231.993 214.167C237.019 209.126 242.045 197.027 242.045 197.027L216.914 183.921L188.769 174.847Z" fill="#2F2E41"/>
<path d="M227.972 117.379C234.634 117.379 240.035 111.962 240.035 105.28C240.035 98.5983 234.634 93.1816 227.972 93.1816C221.31 93.1816 215.91 98.5983 215.91 105.28C215.91 111.962 221.31 117.379 227.972 117.379Z" fill="#FFB8B8"/>
<path d="M218.925 106.289C218.925 106.289 211.888 117.379 209.878 118.388C207.868 119.396 223.951 129.478 223.951 129.478C223.951 129.478 223.951 116.371 228.977 113.347L218.925 106.289Z" fill="#FFB8B8"/>
<path d="M217.92 117.379C217.92 117.379 201.837 112.338 198.821 120.404C195.806 128.469 188.769 143.593 189.774 153.675C190.78 163.757 192.79 161.74 189.774 164.765C186.759 167.79 184.748 165.773 185.754 169.806C186.759 173.839 187.764 173.839 186.759 175.855C185.754 177.872 198.821 184.929 209.879 185.937L220.936 186.945C220.936 186.945 220.936 168.798 222.946 164.765C224.957 160.732 228.978 152.666 228.978 149.642V141.639C228.978 136.312 227.592 131.078 224.957 126.453C224.957 126.453 218.925 117.379 217.92 117.379Z" fill="#5FBCE3"/>
<path d="M205.857 121.412C205.857 121.412 168.665 124.437 164.644 134.519C160.623 144.601 158.613 164.765 162.634 164.765C166.654 164.765 171.68 166.781 172.686 164.765C173.691 162.749 177.712 142.584 178.717 142.584C179.722 142.584 209.878 139.56 209.878 139.56C209.878 139.56 222.946 123.429 205.857 121.412Z" fill="#5FBCE3"/>
<path d="M228.457 102.281C228.457 102.281 231.658 96.7019 235.659 101.548C239.66 106.394 246.169 97.4886 245.17 95.5883C244.171 93.688 240.642 95.6737 234.595 93.691C228.548 91.7082 216.899 87.6689 214.948 100.845C212.997 114.022 217.643 112.64 217.643 112.64C217.643 112.64 219.773 100.965 221.698 104.318L223.623 107.672L225.292 108.084L228.457 102.281Z" fill="#2F2E41"/>
<defs>
<linearGradient id="paint0_linear" x1="165.496" y1="294.29" x2="165.496" y2="307.422" gradientUnits="userSpaceOnUse">
<stop stop-color="#FFF0EE"/>
<stop offset="1" stop-color="#FFDFDC"/>
</linearGradient>
<linearGradient id="paint1_linear" x1="103.883" y1="238.835" x2="103.883" y2="301.13" gradientUnits="userSpaceOnUse">
<stop stop-color="#FFF0EE"/>
<stop offset="1" stop-color="#FFDFDC"/>
</linearGradient>
<linearGradient id="paint2_linear" x1="98.2252" y1="267.131" x2="98.2252" y2="301.13" gradientUnits="userSpaceOnUse">
<stop stop-color="#FFF0EE"/>
<stop offset="1" stop-color="#FFDFDC"/>
</linearGradient>
</defs>
</svg>
