<svg width="224" height="289" viewBox="0 0 224 289" fill="none" xmlns="http://www.w3.org/2000/svg">
<path fill-rule="evenodd" clip-rule="evenodd" d="M113.762 3.04551C145.395 -5.14337 183.671 5.99005 204.992 32.3545C225.759 58.0344 214.256 97.1239 217.211 130.968C219.383 155.843 227.323 180.315 219.979 204.026C212.664 227.642 196.086 246.198 177.093 260.495C158.352 274.602 136.494 281.04 113.762 283.977C88.0946 287.294 59.6232 294.074 38.2787 278.431C16.8041 262.692 11.6153 231.841 5.5959 204.705C0.0266207 179.597 -2.94648 153.472 5.17146 129.177C13.138 105.334 33.7363 91.1486 49.7567 72.5403C70.8688 48.0179 83.5082 10.8772 113.762 3.04551Z" fill="#FFD12F"/>
</svg>
