<svg width="223" height="288" viewBox="0 0 223 288" fill="none" xmlns="http://www.w3.org/2000/svg">
<path fill-rule="evenodd" clip-rule="evenodd" d="M113.588 2.64316C145.221 -5.54572 183.497 5.5877 204.818 31.9522C225.585 57.6321 214.083 96.7216 217.037 130.565C219.209 155.441 227.149 179.913 219.805 203.623C212.49 227.24 195.913 245.796 176.919 260.093C158.178 274.2 136.32 280.638 113.588 283.575C87.9208 286.891 59.4493 293.671 38.1049 278.028C16.6303 262.29 11.4414 231.439 5.42207 204.302C-0.147207 179.195 -3.12031 153.07 4.99763 128.774C12.9641 104.932 33.5625 90.7462 49.5829 72.138C70.695 47.6156 83.3343 10.4749 113.588 2.64316Z" fill="#FFD12F"/>
<path d="M111.803 271.467C169.006 271.467 215.378 267.833 215.378 263.351C215.378 258.868 169.006 255.234 111.803 255.234C54.5991 255.234 8.22656 258.868 8.22656 263.351C8.22656 267.833 54.5991 271.467 111.803 271.467Z" fill="url(#paint0_linear)"/>
<path d="M140.366 29.9902H107.082V72.6335H140.366V29.9902Z" fill="#2F2E41"/>
<path d="M79.5972 228.906L75.0586 246.067L82.6234 251.788L84.6403 250.228L88.1705 232.546L79.5972 228.906Z" fill="#FFB8B8"/>
<path d="M136.583 227.346L135.07 248.147H144.652V228.906L136.583 227.346Z" fill="#FFB8B8"/>
<path d="M106.326 95.7754V108.256L124.986 111.376L141.123 104.616L138.097 96.8152L106.326 95.7754Z" fill="#FFB8B8"/>
<path d="M121.455 106.176L105.318 103.056L101.283 136.859L91.1973 178.982C91.1973 178.982 76.0684 214.865 78.0856 223.185L79.0942 225.786L78.0856 230.466L88.1715 234.626L92.2059 227.866C92.2059 227.866 95.2317 232.546 100.275 222.665C105.318 212.785 126.498 151.42 126.498 151.42L130.028 161.821C129.115 165.029 128.942 168.412 129.524 171.701C130.532 176.902 131.541 193.023 131.541 193.023C131.541 193.023 125.994 221.105 133.558 223.185L135.071 229.426L145.661 230.466L147.679 224.225C147.679 224.225 157.765 220.585 155.243 202.384C152.722 184.182 151.713 124.378 151.713 124.378L141.778 99.1172L121.455 106.176Z" fill="#2F2E41"/>
<path d="M78.0856 245.026C78.0856 245.026 75.5641 242.946 74.5555 243.466C73.5469 243.986 62.9566 258.027 62.9566 258.027C62.9566 258.027 51.8621 266.868 59.9309 267.908C67.9996 268.948 90.1887 257.507 90.1887 254.907C90.1887 252.307 85.5263 245.795 85.5263 245.795C85.5263 245.795 82.1199 248.667 78.0856 245.026Z" fill="#2F2E41"/>
<path d="M134.062 243.467C134.062 243.467 143.14 242.886 144.652 244.476C146.165 246.067 145.661 253.868 145.661 253.868C145.661 253.868 146.67 267.909 138.601 267.909C130.532 267.909 132.549 258.548 132.549 258.548L134.062 243.467Z" fill="#2F2E41"/>
<path d="M124.985 50.0117C131.948 50.0117 137.593 44.191 137.593 37.0108C137.593 29.8305 131.948 24.0098 124.985 24.0098C118.022 24.0098 112.378 29.8305 112.378 37.0108C112.378 44.191 118.022 50.0117 124.985 50.0117Z" fill="#FFB8B8"/>
<path d="M116.664 45.0723C116.664 45.0723 123.725 53.9129 109.604 60.6735C95.484 67.434 119.69 95.5161 119.69 95.5161C119.69 95.5161 147.931 84.5953 145.409 63.2737C145.409 63.2737 128.263 60.1534 132.298 45.5923L116.664 45.0723Z" fill="#FFB8B8"/>
<path d="M109.1 60.1543C109.1 60.1543 97.5013 58.5942 96.997 68.475C96.4927 78.3557 96.997 102.278 96.997 102.278C96.997 102.278 91.9541 123.079 94.4756 141.281C94.4756 141.281 91.4498 162.602 99.5185 161.562C107.587 160.522 101.536 139.72 101.536 139.72L105.066 105.918L103.553 80.9559L110.109 65.8748L109.1 60.1543Z" fill="#FFB8B8"/>
<path d="M142.481 62.4498C142.481 62.4498 153.478 62.2325 153.982 70.5531C154.487 78.8737 150.452 104.356 150.452 104.356L144.401 107.476L138.854 89.7946L142.481 62.4498Z" fill="#FFB8B8"/>
<path d="M145.662 105.137L144.653 107.737L147.679 115.538C147.679 115.538 135.576 125.418 136.584 127.499C137.593 129.579 143.14 124.898 143.14 124.898L151.209 129.059C151.209 129.059 157.765 121.778 154.739 115.018C153.063 111.383 151.66 107.622 150.544 103.767C150.544 103.767 146.166 103.577 145.662 105.137Z" fill="#FFB8B8"/>
<path d="M106.83 58.333L105.317 75.4943C105.317 75.4943 98.2569 82.7749 106.326 92.6556L105.317 100.456C105.317 100.456 123.976 99.4162 127.506 100.456C131.036 101.496 141.938 99.6188 141.938 99.6188L142.131 93.6957C142.131 93.6957 147.174 86.4152 145.661 75.4943C144.148 64.5735 145.661 60.9332 145.661 60.9332L142.131 60.4132C142.131 60.4132 139.861 76.2744 124.228 77.8345C124.228 77.8345 104.813 79.6546 110.36 58.333L106.83 58.333Z" fill="url(#paint1_linear)"/>
<path d="M126.246 15.9496C126.246 15.9496 113.134 15.1113 110.108 23.5194C107.082 31.9274 101.787 36.3415 101.787 36.3415C101.787 36.3415 93.4461 42.3206 97.6166 52.994C97.6166 52.994 84.6411 61.9859 93.2141 69.9735C93.2141 69.9735 92.7098 77.9611 97.7528 83.4263C97.7528 83.4263 101.787 85.5283 100.274 86.7895C98.7614 88.0507 110.36 87.2099 109.352 75.8591C108.343 64.5083 115.151 56.5127 115.151 56.5127C115.151 56.5127 108.595 41.796 111.621 36.7512C113.458 33.6882 114.247 31.4042 115.772 30.0822C116.622 29.3634 117.409 28.5707 118.126 27.7129C118.803 26.8294 119.723 26.1768 120.768 25.841C121.812 25.5052 122.93 25.5019 123.976 25.8315C128.515 27.0927 129.524 30.8763 129.524 30.8763C129.524 30.8763 132.801 39.9149 138.349 44.1189C143.896 48.3229 134.062 55.6799 134.062 55.6799C134.062 55.6799 135.772 64.3417 140.212 69.4698C144.652 74.5979 138.932 79.0679 138.601 79.6427C137.844 80.9545 134.824 89.2385 147.302 89.2752C147.302 89.2752 150.2 83.0059 154.234 79.2223C158.268 75.4387 155.243 64.5083 155.243 64.5083C155.243 64.5083 161.294 60.7247 154.738 51.4759C154.738 51.4759 156.756 43.0679 151.208 37.6027C151.208 37.6027 143.392 13.0068 126.246 15.9496Z" fill="#2F2E41"/>
<path d="M111.369 38.8312C112.065 38.8312 112.63 37.8999 112.63 36.7511C112.63 35.6022 112.065 34.6709 111.369 34.6709C110.673 34.6709 110.108 35.6022 110.108 36.7511C110.108 37.8999 110.673 38.8312 111.369 38.8312Z" fill="#FFB8B8"/>
<path d="M51.1521 251.258H20.2041V254.944H51.1521V251.258Z" fill="#2F2E41"/>
<path d="M51.1521 264.16C52.6383 264.16 53.8432 259.209 53.8432 253.101C53.8432 246.993 52.6383 242.041 51.1521 242.041C49.6658 242.041 48.4609 246.993 48.4609 253.101C48.4609 259.209 49.6658 264.16 51.1521 264.16Z" fill="#2F2E41"/>
<path d="M20.2038 264.16C21.6901 264.16 22.895 259.209 22.895 253.101C22.895 246.993 21.6901 242.041 20.2038 242.041C18.7176 242.041 17.5127 246.993 17.5127 253.101C17.5127 259.209 18.7176 264.16 20.2038 264.16Z" fill="#2F2E41"/>
<path d="M43.8054 251.258H12.8574V254.944H43.8054V251.258Z" fill="#2F2E41"/>
<path d="M43.8054 264.16C45.2917 264.16 46.4965 259.209 46.4965 253.101C46.4965 246.993 45.2917 242.041 43.8054 242.041C42.3191 242.041 41.1143 246.993 41.1143 253.101C41.1143 259.209 42.3191 264.16 43.8054 264.16Z" fill="#2F2E41"/>
<defs>
<linearGradient id="paint0_linear" x1="111.803" y1="255.234" x2="111.803" y2="271.467" gradientUnits="userSpaceOnUse">
<stop stop-color="#FFF0EE"/>
<stop offset="1" stop-color="#FFDFDC"/>
</linearGradient>
<linearGradient id="paint1_linear" x1="124.201" y1="58.333" x2="124.201" y2="100.77" gradientUnits="userSpaceOnUse">
<stop stop-color="#FFF0EE"/>
<stop offset="1" stop-color="#FFDFDC"/>
</linearGradient>
</defs>
</svg>
