<svg width="232" height="288" viewBox="0 0 232 288" fill="none" xmlns="http://www.w3.org/2000/svg">
<path fill-rule="evenodd" clip-rule="evenodd" d="M113.535 1.61677C152.408 -5.97327 195.272 13.9334 218.985 45.1323C240.888 73.9491 226.611 112.787 225.351 148.73C224.166 182.527 233.376 218.953 211.962 245.429C188.868 273.982 150.247 292.384 113.535 286.977C79.4164 281.951 62.4355 246.594 40.7728 220.215C22.6255 198.116 -0.452735 177.121 0.00675412 148.73C0.46175 120.618 25.7606 101.889 43.0505 79.4838C65.2556 50.7097 77.4857 8.65544 113.535 1.61677Z" fill="#FFD12F"/>
<path d="M35.6606 121.778L33.8623 124.562L57.8739 140.072L59.6722 137.288L35.6606 121.778Z" fill="#2F2E41"/>
<path d="M60.8618 140.029C63.8412 135.417 65.3218 131.073 64.1686 130.329C63.0154 129.584 59.6653 132.719 56.6858 137.332C53.7064 141.944 52.2258 146.287 53.379 147.032C54.5321 147.777 57.8823 144.642 60.8618 140.029Z" fill="#2F2E41"/>
<path d="M36.85 124.519C39.8295 119.907 41.31 115.564 40.1569 114.819C39.0037 114.074 35.6536 117.209 32.6741 121.822C29.6946 126.435 28.2141 130.778 29.3673 131.523C30.5204 132.267 33.8706 129.132 36.85 124.519Z" fill="#2F2E41"/>
<path d="M115.112 269.843C167.948 269.843 210.781 266.576 210.781 262.546C210.781 258.516 167.948 255.249 115.112 255.249C62.2756 255.249 19.4434 258.516 19.4434 262.546C19.4434 266.576 62.2756 269.843 115.112 269.843Z" fill="url(#paint0_linear)"/>
<path d="M193.807 227.558C193.493 239.281 191.53 250.901 187.974 262.076C187.893 262.336 187.808 262.591 187.723 262.85H165.954C165.977 262.618 166 262.359 166.024 262.076C167.475 245.39 175.844 143.832 165.838 126.464C166.713 127.873 195.495 174.537 193.807 227.558Z" fill="url(#paint1_linear)"/>
<path d="M192.174 262.077C191.992 262.336 191.802 262.595 191.609 262.851H175.278C175.402 262.63 175.545 262.371 175.712 262.077C178.41 257.207 186.395 242.65 193.807 227.558C201.773 211.34 209.081 194.506 208.465 188.414C208.655 189.788 214.167 231.676 192.174 262.077Z" fill="url(#paint2_linear)"/>
<path d="M39.5607 244.936C39.7199 250.886 40.7167 256.784 42.5215 262.457C42.5627 262.588 42.6059 262.718 42.6491 262.85H53.6985C53.6868 262.732 53.675 262.6 53.6632 262.457C52.9264 253.987 48.6788 202.438 53.7575 193.622C53.3134 194.337 38.7041 218.023 39.5607 244.936Z" fill="url(#paint3_linear)"/>
<path d="M40.3907 262.457C40.4831 262.589 40.5793 262.721 40.6776 262.85H48.9666C48.9037 262.738 48.831 262.607 48.7465 262.457C47.3772 259.986 43.324 252.597 39.5617 244.936C35.5183 236.704 31.809 228.16 32.1214 225.067C32.0251 225.765 29.2274 247.027 40.3907 262.457Z" fill="url(#paint4_linear)"/>
<path d="M53.6648 116.091C53.6648 116.091 35.2052 134.181 42.9582 136.396C50.7113 138.612 59.5719 119.783 59.5719 119.783L53.6648 116.091Z" fill="#A0616A"/>
<path d="M72.1233 177.008L69.9082 187.345L86.5218 188.084L83.9375 177.008H72.1233Z" fill="#A0616A"/>
<path d="M124.55 240.878L122.335 251.215L138.949 251.954L136.364 240.878H124.55Z" fill="#A0616A"/>
<path d="M95.3829 107.969L96.8597 113.876C96.8597 113.876 55.8793 105.754 58.0945 126.428C60.3096 147.103 69.9086 167.04 69.9086 167.04C69.9086 167.04 69.1703 173.685 70.647 174.793C72.1237 175.9 70.647 179.592 70.647 179.592C70.647 179.592 84.3071 181.438 84.6763 178.115C84.8739 175.894 84.7496 173.656 84.3071 171.47C84.3071 171.47 85.0455 171.47 84.3071 167.778C83.5688 164.086 80.5861 134.312 78.3709 130.25C78.3709 130.25 97.9673 145.257 108.305 143.411C108.305 143.411 106.828 158.179 112.735 177.746C118.642 197.313 118.642 199.528 118.642 199.528C118.642 199.528 125.657 236.817 123.811 241.247L123.442 243.093H137.102C137.102 243.093 135.994 223.526 137.102 220.942C138.209 218.357 138.209 196.206 131.933 185.13C127.488 177.287 128.316 154.544 130.747 145.555C132.789 138.006 133.305 132.197 132.108 124.469C130.828 116.205 127.006 111.885 122.334 107.969H95.3829Z" fill="#2F2E41"/>
<path d="M106.274 52.4051C113.615 52.4051 119.565 46.4546 119.565 39.1142C119.565 31.7738 113.615 25.8232 106.274 25.8232C98.9339 25.8232 92.9834 31.7738 92.9834 39.1142C92.9834 46.4546 98.9339 52.4051 106.274 52.4051Z" fill="#A0616A"/>
<path d="M102.768 48.5281C102.768 48.5281 106.829 60.3423 106.46 62.5574C106.09 64.7726 118.274 58.1271 118.274 58.1271C118.274 58.1271 113.474 46.313 114.951 42.9902L102.768 48.5281Z" fill="#A0616A"/>
<path d="M117.535 54.0664L104.613 59.2351L105.351 63.6654C105.351 63.6654 104.244 65.1422 104.613 65.8806C104.982 66.619 99.8135 69.5725 100.552 70.6801C101.29 71.7876 96.1216 76.218 96.4908 77.3255C96.86 78.4331 84.6766 85.0786 91.3221 98.0003C91.3221 98.0003 94.7676 102.479 94.3358 107.776C94.3207 107.963 94.3006 108.15 94.2757 108.338C93.5373 113.876 122.334 107.599 122.334 107.599V101.323C122.334 101.323 124.919 100.215 124.549 95.416C124.18 90.6165 121.965 92.8316 124.549 90.2473C127.134 87.6629 127.134 88.0321 126.765 85.817C126.617 84.9324 126.587 81.7518 126.605 78.2499C126.639 70.8509 124.229 63.6476 119.75 57.7584L117.535 54.0664Z" fill="#FF008D"/>
<path d="M110.52 63.6656L86.5225 88.7707L51.4492 116.46L59.2023 122.736L123.811 79.5408C123.811 79.5408 129.349 55.9125 110.52 63.6656Z" fill="#FF008D"/>
<path d="M73.2321 182.546C73.2321 182.546 70.6477 178.116 68.8018 179.592L55.88 189.93C55.88 189.93 32.9901 196.575 55.1417 201.744C55.1417 201.744 67.325 203.59 69.9094 201.744C72.4937 199.898 76.5549 200.267 77.6624 201.006C78.77 201.744 92.7993 200.636 92.7993 197.683C92.7993 194.729 85.0617 181.821 85.0617 181.821C85.0617 181.821 80.6159 186.976 73.2321 182.546Z" fill="#2F2E41"/>
<path d="M125.657 246.416C125.657 246.416 123.073 241.986 121.227 243.463L108.305 253.8C108.305 253.8 85.4149 260.445 107.566 265.614C107.566 265.614 119.75 267.46 122.334 265.614C124.918 263.768 128.98 264.137 130.087 264.876C131.195 265.614 145.224 264.507 145.224 261.553C145.224 258.599 137.486 245.691 137.486 245.691C137.486 245.691 133.041 250.846 125.657 246.416Z" fill="#2F2E41"/>
<path d="M90.3457 33.8432C90.3457 33.8432 92.593 14.089 111.813 19.6979C111.813 19.6979 125.41 16.9322 130.212 33.9143L135.087 51.7187L132.856 50.5592L131.869 52.8292L128.309 53.8041L126.719 50.7943L126.049 54.4993L101.458 59.4711C101.458 59.4711 109.775 49.9688 109.716 36.0518L107.266 38.742L90.3457 33.8432Z" fill="#2F2E41"/>
<path d="M194.285 250.108H165.699V253.423H194.285V250.108Z" fill="#2F2E41"/>
<path d="M194.285 261.708C195.657 261.708 196.77 257.256 196.77 251.765C196.77 246.274 195.657 241.822 194.285 241.822C192.912 241.822 191.799 246.274 191.799 251.765C191.799 257.256 192.912 261.708 194.285 261.708Z" fill="#2F2E41"/>
<path d="M165.699 261.708C167.071 261.708 168.184 257.256 168.184 251.765C168.184 246.274 167.071 241.822 165.699 241.822C164.326 241.822 163.213 246.274 163.213 251.765C163.213 257.256 164.326 261.708 165.699 261.708Z" fill="#2F2E41"/>
<defs>
<linearGradient id="paint0_linear" x1="115.112" y1="255.249" x2="115.112" y2="269.843" gradientUnits="userSpaceOnUse">
<stop stop-color="#FFF0EE"/>
<stop offset="1" stop-color="#FFDFDC"/>
</linearGradient>
<linearGradient id="paint1_linear" x1="179.858" y1="126.464" x2="179.858" y2="262.85" gradientUnits="userSpaceOnUse">
<stop stop-color="#FFF0EE"/>
<stop offset="1" stop-color="#FFDFDC"/>
</linearGradient>
<linearGradient id="paint2_linear" x1="192.246" y1="188.414" x2="192.246" y2="262.851" gradientUnits="userSpaceOnUse">
<stop stop-color="#FFF0EE"/>
<stop offset="1" stop-color="#FFDFDC"/>
</linearGradient>
<linearGradient id="paint3_linear" x1="46.6409" y1="193.622" x2="46.6409" y2="262.85" gradientUnits="userSpaceOnUse">
<stop stop-color="#FFF0EE"/>
<stop offset="1" stop-color="#FFDFDC"/>
</linearGradient>
<linearGradient id="paint4_linear" x1="40.3539" y1="225.067" x2="40.3539" y2="262.85" gradientUnits="userSpaceOnUse">
<stop stop-color="#FFF0EE"/>
<stop offset="1" stop-color="#FFDFDC"/>
</linearGradient>
</defs>
</svg>
