<svg width="253" height="249" viewBox="0 0 253 249" fill="none" xmlns="http://www.w3.org/2000/svg">
<path fill-rule="evenodd" clip-rule="evenodd" d="M124.304 8.95963C146.133 2.40544 169.99 14.1241 188.833 26.9079C206.816 39.1078 217.038 58.8644 226.588 78.3515C235.84 97.2313 251.087 118.361 243.203 137.855C234.992 158.156 202.922 155.569 188.635 172.19C175.693 187.248 182.321 213.606 167.111 226.382C150.701 240.166 127.297 243.666 105.941 241.652C83.0176 239.491 60.9322 230.181 43.873 214.764C26.2434 198.831 9.089 177.94 9.18521 154.21C9.27965 130.917 30.3227 114.026 44.357 95.4016C54.8173 81.52 68.8256 72.1609 80.6309 59.3967C96.0447 42.7307 102.536 15.4958 124.304 8.95963Z" fill="#FB7161" fill-opacity="0.6"/>
<path fill-rule="evenodd" clip-rule="evenodd" d="M144.407 25.6749C165.586 21.0372 189.492 13.1899 207.846 24.7904C226.21 36.3974 229.333 61.5034 234.557 82.6544C239.129 101.163 241.915 120.353 235.919 138.44C230.179 155.756 213.47 165.423 202.339 179.845C186.72 200.08 182.986 237.018 157.647 239.844C132.714 242.625 123.687 204.69 102.638 190.966C81.9132 177.453 44.3869 184.631 36.7601 161.025C28.978 136.939 60.1937 118.311 71.9261 95.9087C80.1606 80.1853 82.4596 61.7939 95.1882 49.4598C108.619 36.4451 126.171 29.6682 144.407 25.6749Z" fill="#FB7161"/>
<path fill-rule="evenodd" clip-rule="evenodd" d="M123.759 3.01283C148.386 3.59681 162.931 29.8162 183.58 43.2491C205.872 57.7507 239.792 59.9657 249.417 84.7567C259.032 109.52 240.786 136.009 228.799 159.715C218.49 180.102 210.642 208.894 192.567 222.864C173.955 237.25 147.227 242.518 123.759 240.903C100.643 239.311 78.0208 227.393 61.8409 210.807C48.1351 196.757 43.6264 172.242 38.3405 153.34C33.2352 135.083 34.5668 116.42 38.4275 97.8596C42.7475 77.0912 47.653 56.1323 61.8409 40.3624C78.3666 21.9939 99.0578 2.4271 123.759 3.01283Z" fill="#FFD12F"/>
<path d="M205.17 87.9238C205.253 87.5498 205.233 87.1602 205.112 86.7969C203.64 65.53 186.042 48.9817 164.725 48.8183C157.61 24.969 132.509 11.4026 108.659 18.5174C84.8097 25.6322 71.2436 50.7337 78.3582 74.583C82.1042 87.1398 91.1301 97.4442 103.084 102.811C98.8564 105.073 94.9287 107.856 91.3928 111.094L85.2691 116.707C82.6472 119.11 82.4696 123.183 84.8725 125.805C85.1411 126.098 85.4362 126.366 85.7541 126.604L92.657 131.781C102.593 139.202 114.656 143.223 127.058 143.248H133.201C145.6 143.222 157.662 139.201 167.597 131.781L170.027 129.959C190.223 127.224 205.28 109.968 205.253 89.5872C205.253 89.0249 205.191 88.4797 205.17 87.9238ZM193.914 68.1231C197.799 73.4151 200.173 79.6636 200.782 86.2002L198.962 87.1103L188.423 80.0851L191.847 68.1231H193.914ZM179.391 56.3286C183.45 58.1464 187.143 60.6885 190.291 63.8303H190.229C189.27 63.8311 188.429 64.467 188.166 65.3886L184.143 79.4648L177.247 82.6458L166.618 75.5604V67.095L178.582 58.724C179.343 58.1861 179.67 57.2183 179.391 56.3286ZM130.908 66.4768C130.678 66.6649 130.489 66.8989 130.354 67.1637C130.329 67.2404 130.309 67.3185 130.292 67.3976L124.578 61.6839L131.398 54.8648C133.211 56.5137 135.156 58.0125 137.212 59.3465H137.208C134.838 61.4709 132.724 63.8636 130.908 66.4768ZM128.084 71.2569C125.649 76.0732 124.204 81.3276 123.831 86.7111C121.846 81.091 118.756 75.9248 114.744 71.5166L121.539 64.7125L128.084 71.2569ZM133.151 70.9607L134.868 71.8193L138.333 80.4779L129.7 89.1215L128.043 88.293C128.253 82.1768 130.011 76.2135 133.151 70.9607ZM129.167 93.644C129.994 94.0563 130.992 93.894 131.644 93.2404L141.376 83.5108L149.818 86.8871L153.821 100.897C153.86 101.005 153.909 101.11 153.967 101.21C146.486 97.7892 138.355 96.0211 130.129 96.0265C129.622 96.0265 129.118 96.0479 128.612 96.0608L128.607 96.0501C128.436 95.0885 128.272 94.1183 128.178 93.1481L129.167 93.644ZM151.342 82.8819L142.512 79.3489L138.562 69.4754C138.367 68.9863 137.999 68.586 137.528 68.3507L135.596 67.3805C139.268 62.6018 144.061 58.8021 149.552 56.3179C149.273 57.2073 149.6 58.1753 150.361 58.7133L162.325 67.095V75.5604L151.342 82.8819ZM164.472 79.2845L174.633 86.0736C174.65 86.1187 174.646 86.1659 174.667 86.2109C174.706 86.2853 174.751 86.3572 174.8 86.4256L171.439 98.1729H157.504L154.087 86.2109L164.472 79.2845ZM174.244 54.4677V54.4784L174.802 56.1333L164.472 63.356L154.141 56.1226L154.699 54.4677C161.086 52.6419 167.857 52.6419 174.244 54.4677ZM160.312 49.0201C153.25 49.7504 146.505 52.3239 140.752 56.4831C138.502 55.1373 136.388 53.5783 134.437 51.8276L151.846 34.4245C155.656 38.6457 158.54 43.6173 160.312 49.0201ZM148.786 31.4045L131.4 48.7904C125.322 42.052 121.674 33.4742 121.035 24.4222L120.786 20.9579C131.107 20.7559 141.119 24.4912 148.786 31.4045ZM116.506 21.2713L116.753 24.727C117.461 34.8111 121.55 44.3613 128.358 51.834L121.543 58.6489L94.3012 31.4045C100.485 25.8252 108.239 22.2868 116.506 21.2713ZM91.2661 34.4395L118.508 61.6839L111.711 68.4816C104.231 61.6761 94.6746 57.5923 84.5865 56.891L81.1286 56.6441C82.1455 48.3767 85.6852 40.6233 91.2661 34.4395ZM80.8174 60.9262L84.2817 61.1731C93.3361 61.8057 101.919 65.4482 108.665 71.5209L91.2597 88.9283C84.3482 81.2597 80.6146 71.248 80.8174 60.9262ZM94.2711 91.9934L111.711 74.5624C117.242 80.7253 120.756 88.4319 121.782 96.6489C117.202 97.32 112.721 98.545 108.437 100.298C103.202 98.516 98.3831 95.6911 94.2711 91.9934ZM172.227 122.904C172.137 123.002 172.039 123.091 171.933 123.17L165.019 128.35C155.828 135.212 144.671 138.931 133.201 138.955H127.058C115.587 138.931 104.43 135.212 95.2391 128.35L88.3341 123.17C87.3857 122.459 87.1933 121.114 87.9046 120.165C87.984 120.059 88.0733 119.961 88.171 119.871L94.284 114.258C98.6538 110.276 103.66 107.053 109.094 104.724C109.42 104.663 109.727 104.527 109.991 104.327C128.997 96.4772 150.829 100.35 165.974 114.258L172.096 119.871C172.969 120.672 173.028 122.03 172.227 122.904ZM168.865 111.094C165.146 107.688 160.993 104.787 156.515 102.466H172.169L176.891 107.188L173.023 114.915L168.865 111.094ZM176.507 124.018C177.374 122.152 177.246 119.974 176.165 118.223L180.823 108.905H193.195L194.15 110.815C189.777 116.936 183.612 121.549 176.507 124.018ZM196.79 106.507L196.453 105.799C196.088 105.068 195.339 104.608 194.521 104.612H180.385L175.468 99.6947L179.252 86.4492L185.745 83.4549L197.623 91.3731C198.263 91.7991 199.081 91.8506 199.769 91.5083L200.892 90.9459C200.704 96.3745 199.302 101.692 196.79 106.507Z" fill="black"/>
<path d="M99.1206 166.389C98.9415 166.19 98.5633 165.932 97.9861 165.613C97.4089 165.275 96.7123 164.976 95.8963 164.718C95.1002 164.439 94.2742 164.3 93.4184 164.3C91.1693 164.3 90.0448 165.096 90.0448 166.688C90.0448 167.265 90.2239 167.723 90.5822 168.061C90.9404 168.4 91.4778 168.688 92.1943 168.927C92.9108 169.166 93.8065 169.425 94.8812 169.703C96.2745 170.061 97.4786 170.479 98.4937 170.957C99.5286 171.435 100.315 172.072 100.852 172.868C101.409 173.644 101.688 174.679 101.688 175.973C101.688 177.485 101.32 178.709 100.583 179.645C99.867 180.56 98.9116 181.227 97.7174 181.645C96.5233 182.063 95.2296 182.272 93.8363 182.272C92.2441 182.272 90.6618 182.033 89.0895 181.556C87.537 181.058 86.1537 180.381 84.9397 179.525L86.7608 175.973C86.9399 176.152 87.2584 176.391 87.7161 176.689C88.1739 176.968 88.7312 177.256 89.388 177.555C90.0448 177.834 90.7613 178.072 91.5375 178.272C92.3137 178.471 93.0999 178.57 93.896 178.57C96.165 178.57 97.2995 177.844 97.2995 176.391C97.2995 175.774 97.0706 175.276 96.6128 174.898C96.155 174.52 95.5082 174.201 94.6723 173.943C93.8562 173.684 92.9009 173.395 91.8062 173.077C90.4528 172.699 89.3283 172.281 88.4326 171.823C87.5569 171.345 86.9001 170.758 86.4622 170.061C86.0244 169.345 85.8054 168.439 85.8054 167.345C85.8054 165.892 86.1438 164.678 86.8205 163.702C87.5171 162.707 88.4526 161.961 89.6268 161.463C90.8011 160.946 92.1048 160.687 93.5378 160.687C95.0106 160.687 96.3839 160.926 97.6577 161.404C98.9315 161.881 100.026 162.429 100.942 163.046L99.1206 166.389ZM113.7 182.332C112.466 182.332 111.391 182.053 110.476 181.496C109.56 180.939 108.844 180.202 108.326 179.287V188.392H104.326V166.389H107.819V169.076C108.396 168.161 109.142 167.444 110.058 166.927C110.993 166.389 112.048 166.121 113.222 166.121C114.636 166.121 115.889 166.489 116.984 167.225C118.079 167.942 118.945 168.917 119.582 170.151C120.218 171.365 120.537 172.709 120.537 174.181C120.537 175.714 120.238 177.097 119.641 178.331C119.064 179.545 118.258 180.521 117.223 181.257C116.208 181.973 115.034 182.332 113.7 182.332ZM112.357 178.928C113.173 178.928 113.879 178.709 114.476 178.272C115.093 177.814 115.571 177.227 115.909 176.51C116.268 175.774 116.447 174.997 116.447 174.181C116.447 173.306 116.258 172.52 115.88 171.823C115.501 171.106 114.984 170.549 114.327 170.151C113.69 169.733 112.954 169.524 112.118 169.524C111.362 169.524 110.605 169.773 109.849 170.27C109.093 170.768 108.585 171.395 108.326 172.151V175.823C108.685 176.699 109.232 177.436 109.968 178.033C110.705 178.63 111.501 178.928 112.357 178.928ZM130.472 182.332C128.76 182.332 127.288 181.964 126.054 181.227C124.84 180.471 123.904 179.476 123.247 178.242C122.591 177.008 122.262 175.674 122.262 174.241C122.262 172.788 122.591 171.445 123.247 170.211C123.924 168.977 124.869 167.992 126.084 167.255C127.318 166.499 128.78 166.121 130.472 166.121C132.164 166.121 133.617 166.499 134.831 167.255C136.065 167.992 137.01 168.977 137.667 170.211C138.324 171.445 138.652 172.788 138.652 174.241C138.652 175.674 138.324 177.008 137.667 178.242C137.01 179.476 136.065 180.471 134.831 181.227C133.617 181.964 132.164 182.332 130.472 182.332ZM126.382 174.241C126.382 175.157 126.561 175.973 126.919 176.689C127.278 177.386 127.765 177.933 128.382 178.331C128.999 178.729 129.696 178.928 130.472 178.928C131.228 178.928 131.915 178.729 132.532 178.331C133.149 177.913 133.637 177.356 133.995 176.659C134.373 175.943 134.562 175.127 134.562 174.211C134.562 173.316 134.373 172.52 133.995 171.823C133.637 171.106 133.149 170.549 132.532 170.151C131.915 169.733 131.228 169.524 130.472 169.524C129.696 169.524 128.999 169.733 128.382 170.151C127.765 170.549 127.278 171.106 126.919 171.823C126.561 172.52 126.382 173.326 126.382 174.241ZM150.667 169.853C149.453 169.853 148.368 170.091 147.413 170.569C146.458 171.027 145.771 171.694 145.353 172.569V182.033H141.353V166.389H145.025V169.733C145.562 168.658 146.259 167.812 147.114 167.195C147.99 166.578 148.906 166.24 149.861 166.18C150.279 166.18 150.548 166.19 150.667 166.21V169.853ZM162.272 181.227C161.735 181.466 161.068 181.705 160.272 181.944C159.496 182.182 158.69 182.302 157.854 182.302C157.117 182.302 156.441 182.173 155.824 181.914C155.207 181.655 154.709 181.247 154.331 180.69C153.973 180.113 153.794 179.366 153.794 178.451V169.464H151.734V166.389H153.794V161.314H157.794V166.389H161.078V169.464H157.794V177.107C157.794 177.645 157.933 178.033 158.212 178.272C158.511 178.51 158.869 178.63 159.287 178.63C159.705 178.63 160.113 178.56 160.511 178.421C160.909 178.281 161.227 178.162 161.466 178.063L162.272 181.227ZM170.118 182.332C168.784 182.332 167.51 182.113 166.296 181.675C165.082 181.237 164.037 180.59 163.162 179.734L164.595 177.137C165.53 177.893 166.446 178.451 167.341 178.809C168.237 179.167 169.113 179.346 169.968 179.346C170.745 179.346 171.362 179.207 171.819 178.928C172.297 178.65 172.536 178.232 172.536 177.674C172.536 177.097 172.247 176.709 171.67 176.51C171.093 176.291 170.287 176.022 169.252 175.704C168.098 175.346 167.132 174.978 166.356 174.599C165.58 174.221 164.993 173.763 164.595 173.226C164.216 172.689 164.027 171.992 164.027 171.136C164.027 169.604 164.605 168.38 165.759 167.464C166.913 166.549 168.446 166.091 170.357 166.091C171.471 166.091 172.526 166.27 173.521 166.628C174.516 166.967 175.422 167.524 176.238 168.3L174.626 170.838C173.093 169.644 171.61 169.046 170.177 169.046C169.541 169.046 168.973 169.166 168.476 169.405C167.998 169.644 167.759 170.061 167.759 170.659C167.759 171.216 167.988 171.614 168.446 171.853C168.924 172.092 169.64 172.35 170.595 172.629C171.829 173.007 172.874 173.375 173.73 173.734C174.606 174.092 175.263 174.55 175.701 175.107C176.158 175.664 176.387 176.421 176.387 177.376C176.387 178.928 175.82 180.142 174.685 181.018C173.551 181.894 172.028 182.332 170.118 182.332ZM78.4696 195.896H82.291L84.7092 202.912L87.1573 195.896H90.9488L87.3066 205.539L89.9935 212.286L95.9943 195.836H100.472L91.9937 217.033H88.441L84.7092 208.137L81.0072 217.033H77.4545L69.0057 195.836H73.4242L79.4548 212.286L82.082 205.539L78.4696 195.896ZM99.4609 212.406C99.4609 211.391 99.7395 210.505 100.297 209.749C100.874 208.972 101.67 208.375 102.685 207.957C103.7 207.539 104.865 207.33 106.178 207.33C106.835 207.33 107.502 207.39 108.178 207.51C108.855 207.609 109.442 207.758 109.94 207.957V207.121C109.94 206.126 109.641 205.36 109.044 204.823C108.467 204.285 107.601 204.017 106.447 204.017C105.591 204.017 104.775 204.166 103.999 204.464C103.223 204.763 102.407 205.201 101.551 205.778L100.267 203.151C101.302 202.474 102.357 201.967 103.432 201.628C104.526 201.29 105.671 201.121 106.865 201.121C109.094 201.121 110.826 201.678 112.06 202.793C113.313 203.907 113.94 205.499 113.94 207.569V212.555C113.94 212.993 114.01 213.301 114.149 213.481C114.289 213.64 114.537 213.739 114.896 213.779V217.033C114.537 217.113 114.209 217.163 113.911 217.182C113.632 217.222 113.393 217.242 113.194 217.242C112.398 217.242 111.791 217.063 111.373 216.705C110.955 216.347 110.706 215.909 110.627 215.391L110.537 214.585C109.84 215.481 108.985 216.167 107.969 216.645C106.974 217.103 105.949 217.332 104.894 217.332C103.84 217.332 102.904 217.123 102.088 216.705C101.272 216.267 100.625 215.68 100.148 214.943C99.6898 214.187 99.4609 213.341 99.4609 212.406ZM109.194 213.212C109.691 212.734 109.94 212.276 109.94 211.838V210.256C108.905 209.838 107.86 209.629 106.805 209.629C105.75 209.629 104.894 209.858 104.238 210.316C103.581 210.754 103.252 211.341 103.252 212.077C103.252 212.674 103.491 213.212 103.969 213.689C104.447 214.167 105.133 214.406 106.029 214.406C106.626 214.406 107.203 214.297 107.76 214.078C108.338 213.859 108.815 213.57 109.194 213.212ZM126.993 204.853C125.779 204.853 124.695 205.091 123.739 205.569C122.784 206.027 122.097 206.694 121.679 207.569V217.033H117.679V201.389H121.351V204.733C121.888 203.658 122.585 202.812 123.441 202.195C124.316 201.578 125.232 201.24 126.187 201.18C126.605 201.18 126.874 201.19 126.993 201.21V204.853ZM153.526 217.033H149.525V208.256C149.525 207.022 149.306 206.116 148.868 205.539C148.45 204.942 147.863 204.644 147.107 204.644C146.311 204.644 145.565 204.952 144.868 205.569C144.171 206.166 143.674 206.952 143.375 207.928V217.033H139.375V208.256C139.375 207.002 139.156 206.087 138.718 205.509C138.3 204.932 137.713 204.644 136.956 204.644C136.18 204.644 135.434 204.942 134.717 205.539C134.021 206.136 133.523 206.922 133.225 207.898V217.033H129.224V201.389H132.836V204.285C133.414 203.27 134.2 202.494 135.195 201.957C136.21 201.399 137.364 201.121 138.658 201.121C139.952 201.121 140.957 201.439 141.673 202.076C142.41 202.713 142.878 203.499 143.077 204.435C143.694 203.36 144.5 202.544 145.495 201.986C146.49 201.409 147.605 201.121 148.839 201.121C149.814 201.121 150.6 201.3 151.197 201.658C151.814 201.996 152.292 202.464 152.63 203.061C152.968 203.638 153.197 204.295 153.317 205.032C153.456 205.768 153.526 206.514 153.526 207.271V217.033ZM156.859 211.182V201.389H160.86V210.316C160.86 212.724 161.726 213.928 163.457 213.928C164.234 213.928 164.98 213.699 165.696 213.242C166.433 212.764 167.03 212.047 167.488 211.092V201.389H171.488V212.555C171.488 212.993 171.558 213.301 171.697 213.481C171.837 213.64 172.085 213.739 172.444 213.779V217.033C172.045 217.113 171.707 217.163 171.428 217.182C171.17 217.202 170.931 217.212 170.712 217.212C169.995 217.212 169.408 217.053 168.951 216.735C168.513 216.396 168.254 215.939 168.174 215.361L168.085 214.107C167.388 215.182 166.493 215.988 165.398 216.526C164.303 217.063 163.099 217.332 161.785 217.332C160.173 217.332 158.949 216.814 158.113 215.779C157.277 214.724 156.859 213.192 156.859 211.182ZM184.838 217.332C183.604 217.332 182.529 217.053 181.614 216.496C180.698 215.939 179.982 215.202 179.464 214.287V223.392H175.464V201.389H178.957V204.076C179.534 203.161 180.28 202.444 181.196 201.927C182.131 201.389 183.186 201.121 184.36 201.121C185.774 201.121 187.027 201.489 188.122 202.225C189.217 202.942 190.083 203.917 190.719 205.151C191.356 206.365 191.675 207.709 191.675 209.181C191.675 210.714 191.376 212.097 190.779 213.331C190.202 214.545 189.396 215.521 188.361 216.257C187.346 216.973 186.172 217.332 184.838 217.332ZM183.495 213.928C184.311 213.928 185.017 213.709 185.614 213.272C186.231 212.814 186.709 212.227 187.047 211.51C187.406 210.774 187.585 209.997 187.585 209.181C187.585 208.306 187.396 207.52 187.018 206.823C186.639 206.106 186.122 205.549 185.465 205.151C184.828 204.733 184.092 204.524 183.256 204.524C182.5 204.524 181.743 204.773 180.987 205.27C180.231 205.768 179.723 206.395 179.464 207.151V210.823C179.823 211.699 180.37 212.436 181.106 213.033C181.843 213.63 182.639 213.928 183.495 213.928Z" fill="black"/>
</svg>
