<svg width="37" height="36" viewBox="0 0 37 36" fill="none" xmlns="http://www.w3.org/2000/svg">
<path fill-rule="evenodd" clip-rule="evenodd" d="M15.6744 0.0770369C14.7709 0.241482 14.6388 0.269149 13.3747 0.557635C13.0476 0.632286 11.59 1.12689 11.4996 1.19397C11.4607 1.22277 11.2378 1.32078 11.0043 1.41163C10.3254 1.67577 9.04892 2.3569 8.33638 2.83524C6.72936 3.91397 5.62926 4.87559 4.42076 6.25808C2.51875 8.43394 1.12069 11.144 0.4968 13.8647C0.2248 15.0509 0.163381 15.4712 0.0467697 16.9428C-0.0818001 18.565 0.0587281 20.5421 0.418823 22.179C0.560554 22.8231 0.598622 22.9707 0.820665 23.7357C1.00464 24.3694 0.850597 24.2973 2.40702 24.4784C2.6989 24.5123 3.14469 24.5759 3.39765 24.6194C4.37725 24.7884 4.45904 24.7912 4.45904 24.6555C4.45904 24.5869 4.36571 24.2564 4.25158 23.921C3.83268 22.6894 3.1812 20.2672 2.83158 18.641C2.79811 18.4853 2.73223 18.2058 2.68525 18.0198C2.63826 17.8338 2.61937 17.6621 2.64336 17.6381C2.68921 17.5922 3.1241 17.7421 3.71607 18.0078C3.91066 18.0952 4.19723 18.2188 4.3529 18.2827C5.35811 18.6945 8.03041 20.0359 8.95913 20.5946C9.07963 20.6672 9.199 20.7057 9.22448 20.6803C9.24988 20.6549 9.27068 20.4579 9.27068 20.2427C9.27068 19.5668 9.47199 17.0253 9.62597 15.7573C9.88544 13.6204 9.9112 13.4836 10.0601 13.4549C10.1281 13.4418 10.8246 14.0817 11.831 15.0819C13.4584 16.6994 13.8373 17.0956 14.6781 18.0595C14.9084 18.3234 15.1182 18.5145 15.1446 18.484C15.1709 18.4536 15.2666 18.2377 15.3572 18.0041C15.4478 17.7706 15.615 17.3732 15.7287 17.121L15.9354 16.6623L15.8551 15.8473C15.7072 14.3482 15.5026 13.2219 15.2056 12.2726C14.9288 11.3878 14.5785 10.3405 14.3653 9.76067C13.9354 8.59145 13.8096 8.17354 13.5772 7.14258C13.4582 6.61407 13.458 5.02284 13.5771 4.45372C13.8913 2.95178 14.5297 1.78227 15.7032 0.558909C16.1194 0.124941 16.2192 -0.0260595 16.0695 0.00422551C16.0467 0.00882487 15.869 0.0415864 15.6744 0.0770369Z" fill="#E50000"/>
<path fill-rule="evenodd" clip-rule="evenodd" d="M18.1362 19.83C17.8237 20.4052 17.2461 21.5517 17.0571 21.9721C16.9525 22.2047 16.7694 22.6108 16.6503 22.8744C16.5311 23.1381 16.4336 23.3693 16.4336 23.3882C16.4336 23.4071 16.3673 23.5735 16.2863 23.7579C16.2053 23.9423 16.0944 24.1967 16.0398 24.3232C15.9853 24.4498 15.9073 24.5532 15.8667 24.5532C15.826 24.5532 15.6265 24.3703 15.4233 24.1468C14.4094 23.0315 12.5405 21.1511 12.1071 20.8101L11.9231 20.6654L11.8748 20.9642C11.7088 21.9903 11.5563 23.6552 11.5057 24.9938C11.4777 25.7343 11.4349 26.1304 11.3776 26.1779C11.3165 26.2287 10.8331 26.0193 9.7055 25.4535C8.8331 25.0158 7.97607 24.5977 7.80094 24.5242C7.48096 24.3901 7.02556 24.1928 6.63624 24.0195C6.52111 23.9683 6.40655 23.9389 6.38179 23.9542C6.32688 23.9881 6.42063 24.5158 6.65796 25.5085C6.69518 25.6641 6.75858 25.9348 6.79877 26.1099C6.83903 26.2851 6.90583 26.5478 6.9473 26.6937C6.98869 26.8397 7.05619 27.0785 7.09731 27.2244C7.13842 27.3704 7.20472 27.6012 7.2447 27.7374C7.28461 27.8736 7.33421 28.073 7.35501 28.1805C7.37574 28.288 7.42089 28.3934 7.45528 28.4146C7.48974 28.4359 7.5179 28.5247 7.5179 28.6119C7.5179 28.6992 7.54698 28.8008 7.58257 28.8377C7.61817 28.8746 7.65793 29.0004 7.67102 29.1172C7.69225 29.3068 7.67216 29.3321 7.48252 29.3544C7.36577 29.368 7.06327 29.3456 6.81031 29.3044C6.55734 29.2632 6.06379 29.1948 5.71353 29.1521C5.36328 29.1095 4.84949 29.0405 4.57183 28.9988C4.29417 28.9571 4.02861 28.9358 3.9817 28.9515C3.76383 29.0241 5.43998 30.8574 6.53541 31.7447C7.31963 32.3799 8.18608 32.9889 8.89771 33.4049C9.59667 33.8135 11.1589 34.6011 11.2705 34.6011C11.3092 34.6011 11.3962 34.6291 11.4637 34.6635C12.316 35.0971 14.2331 35.6149 15.9736 35.8816C16.7285 35.9972 19.6343 36.0436 20.2192 35.9493C20.4916 35.9054 20.9215 35.8367 21.1745 35.7967C22.3612 35.6088 24.0194 35.1724 24.8893 34.819C24.9672 34.7874 25.1105 34.7289 25.2078 34.6891C25.5264 34.5585 27.288 33.685 27.6006 33.5025C28.1869 33.1602 29.422 32.3099 29.9486 31.8859C30.6339 31.3342 32.1699 29.7901 32.5212 29.2999L32.794 28.9191L32.3796 28.972C32.1517 29.0011 31.7265 29.0546 31.4346 29.0909C31.1427 29.1272 30.6492 29.1891 30.3378 29.2283C29.0764 29.3873 28.958 29.3908 28.958 29.2687C28.958 29.2065 29.0328 28.924 29.1242 28.6411C29.2156 28.3581 29.3307 27.9833 29.3799 27.8081C29.4292 27.633 29.4953 27.426 29.5268 27.3482C29.5584 27.2704 29.6003 27.1271 29.62 27.0298C29.6396 26.9325 29.6918 26.7255 29.736 26.5699C29.7801 26.4142 29.8491 26.1435 29.8894 25.9684C29.9296 25.7933 29.993 25.5226 30.0302 25.3669C30.1697 24.7837 30.2419 24.4393 30.2792 24.1806L30.3175 23.9141L30.1165 23.9906C29.8497 24.092 29.3833 24.2965 28.4273 24.7311C27.7477 25.04 26.6363 25.5893 25.9898 25.9356C25.661 26.1118 25.3547 26.2415 25.3092 26.2241C25.2545 26.203 25.211 25.8592 25.1815 25.2135C25.1303 24.0929 25.0329 22.8773 24.9244 22.0059C24.8833 21.6751 24.8307 21.2372 24.8076 21.0329C24.7845 20.8287 24.7387 20.6614 24.7058 20.6614C24.6249 20.6614 22.0443 23.2346 21.3705 23.9871C20.7385 24.6931 20.7436 24.694 20.3948 23.8102C20.2718 23.4989 20.114 23.1168 20.0441 22.9611C19.9742 22.8055 19.8471 22.5189 19.7618 22.3243C19.4505 21.6144 18.3962 19.5293 18.3485 19.5293C18.3217 19.5293 18.2261 19.6647 18.1362 19.83Z" fill="#FFD12F"/>
<path fill-rule="evenodd" clip-rule="evenodd" d="M21.2641 0.0765486C22.1676 0.240993 22.2997 0.26866 23.5637 0.557146C23.8909 0.631798 25.3485 1.12641 25.4389 1.19349C25.4778 1.22228 25.7007 1.32029 25.9342 1.41114C26.6131 1.67529 27.8896 2.35642 28.6021 2.83475C30.2091 3.91348 31.3092 4.8751 32.5177 6.2576C34.4197 8.43345 35.8178 11.1435 36.4417 13.8642C36.7137 15.0504 36.7751 15.4708 36.8917 16.9423C37.0203 18.5645 36.8797 20.5417 36.5197 22.1785C36.3779 22.8226 36.3399 22.9702 36.1178 23.7352C35.9338 24.369 36.0879 24.2969 34.5315 24.4779C34.2396 24.5118 33.7938 24.5754 33.5408 24.619C32.5612 24.7879 32.4794 24.7907 32.4794 24.655C32.4794 24.5864 32.5728 24.2559 32.6869 23.9205C33.1058 22.6889 33.7573 20.2668 34.1069 18.6405C34.1404 18.4848 34.2062 18.2053 34.2532 18.0193C34.3002 17.8333 34.3191 17.6616 34.2951 17.6376C34.2493 17.5917 33.8144 17.7416 33.2224 18.0073C33.0278 18.0947 32.7412 18.2183 32.5856 18.2822C31.5804 18.6941 28.9081 20.0354 27.9793 20.5942C27.8588 20.6667 27.7395 20.7052 27.714 20.6798C27.6886 20.6544 27.6678 20.4575 27.6678 20.2422C27.6678 19.5663 27.4665 17.0248 27.3125 15.7568C27.053 13.6199 27.0273 13.4831 26.8784 13.4544C26.8104 13.4413 26.1139 14.0812 25.1075 15.0814C23.48 16.6989 23.1012 17.0951 22.2604 18.059C22.0301 18.3229 21.8202 18.514 21.7939 18.4835C21.7676 18.4531 21.6719 18.2372 21.5813 18.0037C21.4907 17.7702 21.3235 17.3727 21.2098 17.1205L21.003 16.6618L21.0834 15.8468C21.2312 14.3477 21.4359 13.2215 21.7328 12.2721C22.0097 11.3873 22.36 10.3401 22.5732 9.76019C23.0031 8.59096 23.1289 8.17305 23.3612 7.14209C23.4803 6.61359 23.4805 5.02235 23.3614 4.45323C23.0472 2.95129 22.4088 1.78178 21.2353 0.55842C20.8191 0.124453 20.7193 -0.0265478 20.869 0.00373722C20.8917 0.00833659 21.0695 0.0410981 21.2641 0.0765486Z" fill="#E50000"/>
<path d="M17.1562 9.26948C13.9936 5.81681 15.1041 0 18.501 0C21.7555 0 22.6402 5.75557 19.5624 9.26948C22.534 3.53797 14.3255 2.9719 17.1562 9.26948Z" fill="white"/>
</svg>
