<svg width="208" height="256" viewBox="0 0 208 256" fill="none" xmlns="http://www.w3.org/2000/svg">
<path d="M103.976 255.87C161.18 255.87 207.552 252.236 207.552 247.753C207.552 243.271 161.18 239.637 103.976 239.637C46.7729 239.637 0.400391 243.271 0.400391 247.753C0.400391 252.236 46.7729 255.87 103.976 255.87Z" fill="url(#paint0_linear)"/>
<path d="M132.539 14.3926H99.2559V57.0358H132.539V14.3926Z" fill="#2F2E41"/>
<path d="M71.771 213.309L67.2324 230.47L74.7973 236.19L76.8141 234.63L80.3443 216.949L71.771 213.309Z" fill="#FFB8B8"/>
<path d="M128.757 211.748L127.244 232.549H136.826V213.308L128.757 211.748Z" fill="#FFB8B8"/>
<path d="M98.5 80.1777V92.6588L117.159 95.7788L133.297 89.0186L130.271 81.2176L98.5 80.1777Z" fill="#FFB8B8"/>
<path d="M113.629 90.5787L97.4914 87.4585L93.4571 121.261L83.3711 163.384C83.3711 163.384 68.2422 199.267 70.2594 207.588L71.268 210.188L70.2594 214.868L80.3453 219.029L84.3797 212.268C84.3797 212.268 87.4055 216.948 92.4485 207.068C97.4915 197.187 118.672 135.822 118.672 135.822L122.202 146.223C121.289 149.432 121.116 152.815 121.698 156.104C122.706 161.304 123.715 177.425 123.715 177.425C123.715 177.425 118.168 205.507 125.732 207.588L127.245 213.828L137.835 214.868L139.852 208.628C139.852 208.628 149.938 204.987 147.417 186.786C144.895 168.585 143.887 108.78 143.887 108.78L133.952 83.5195L113.629 90.5787Z" fill="#2F2E41"/>
<path d="M70.2594 229.429C70.2594 229.429 67.7379 227.349 66.7293 227.869C65.7207 228.389 55.1305 242.43 55.1305 242.43C55.1305 242.43 44.0359 251.27 52.1047 252.311C60.1735 253.351 82.3625 241.91 82.3625 239.31C82.3625 236.709 77.7001 230.197 77.7001 230.197C77.7001 230.197 74.2938 233.069 70.2594 229.429Z" fill="#2F2E41"/>
<path d="M126.236 227.869C126.236 227.869 135.313 227.288 136.826 228.879C138.339 230.47 137.835 238.27 137.835 238.27C137.835 238.27 138.843 252.311 130.775 252.311C122.706 252.311 124.723 242.951 124.723 242.951L126.236 227.869Z" fill="#2F2E41"/>
<path d="M117.159 34.4141C124.122 34.4141 129.767 28.5934 129.767 21.4131C129.767 14.2329 124.122 8.41211 117.159 8.41211C110.196 8.41211 104.552 14.2329 104.552 21.4131C104.552 28.5934 110.196 34.4141 117.159 34.4141Z" fill="#FFB8B8"/>
<path d="M108.838 29.4746C108.838 29.4746 115.898 38.3153 101.778 45.0758C87.6579 51.8363 111.864 79.9185 111.864 79.9185C111.864 79.9185 140.105 68.9976 137.583 47.676C137.583 47.676 120.437 44.5558 124.472 29.9946L108.838 29.4746Z" fill="#FFB8B8"/>
<path d="M101.274 44.5567C101.274 44.5567 89.6752 42.9965 89.1709 52.8773C88.6666 62.7581 89.1709 86.6799 89.1709 86.6799C89.1709 86.6799 84.1279 107.481 86.6494 125.683C86.6494 125.683 83.6236 147.004 91.6923 145.964C99.7611 144.924 93.7095 124.123 93.7095 124.123L97.2396 90.3202L95.7267 65.3583L102.283 50.2771L101.274 44.5567Z" fill="#FFB8B8"/>
<path d="M134.655 46.8521C134.655 46.8521 145.652 46.6348 146.156 54.9555C146.661 63.2761 142.626 88.758 142.626 88.758L136.575 91.8783L131.027 74.1969L134.655 46.8521Z" fill="#FFB8B8"/>
<path d="M137.835 89.5392L136.827 92.1394L139.853 99.94C139.853 99.94 127.749 109.821 128.758 111.901C129.767 113.981 135.314 109.301 135.314 109.301L143.383 113.461C143.383 113.461 149.938 106.18 146.913 99.4199C145.236 95.7855 143.834 92.0243 142.718 88.1694C142.718 88.1694 138.34 87.9791 137.835 89.5392Z" fill="#FFB8B8"/>
<path d="M99.0038 42.7354L97.4909 59.8967C97.4909 59.8967 90.4307 67.1772 98.4995 77.058L97.4909 84.8586C97.4909 84.8586 116.15 83.8185 119.68 84.8586C123.21 85.8987 134.112 84.0212 134.112 84.0212L134.305 78.098C134.305 78.098 139.348 70.8175 137.835 59.8967C136.322 48.9758 137.835 45.3356 137.835 45.3356L134.305 44.8155C134.305 44.8155 132.035 60.6767 116.402 62.2368C116.402 62.2368 96.9866 64.057 102.534 42.7354L99.0038 42.7354Z" fill="url(#paint1_linear)"/>
<path d="M118.419 0.351897C118.419 0.351897 105.308 -0.486317 102.282 7.92171C99.2561 16.3297 93.961 20.7439 93.961 20.7439C93.961 20.7439 85.6199 26.7229 89.7905 37.3964C89.7905 37.3964 76.8149 46.3883 85.388 54.3759C85.388 54.3759 84.8837 62.3634 89.9266 67.8286C89.9266 67.8286 93.961 69.9306 92.4481 71.1918C90.9353 72.453 102.534 71.6122 101.525 60.2614C100.517 48.9107 107.325 40.915 107.325 40.915C107.325 40.915 100.769 26.1983 103.795 21.1535C105.632 18.0906 106.421 15.8065 107.946 14.4846C108.795 13.7657 109.583 12.973 110.3 12.1153C110.976 11.2317 111.897 10.5792 112.941 10.2434C113.985 9.90757 115.104 9.90427 116.15 10.2339C120.689 11.4951 121.697 15.2787 121.697 15.2787C121.697 15.2787 124.975 24.3173 130.523 28.5213C136.07 32.7253 126.236 40.0822 126.236 40.0822C126.236 40.0822 127.945 48.744 132.386 53.8721C136.826 59.0002 131.106 63.4703 130.775 64.045C130.018 65.3569 126.997 73.6408 139.476 73.6775C139.476 73.6775 142.374 67.4082 146.408 63.6246C150.442 59.8411 147.417 48.9106 147.417 48.9106C147.417 48.9106 153.468 45.127 146.912 35.8783C146.912 35.8783 148.929 27.4703 143.382 22.0051C143.382 22.0051 135.566 -2.59089 118.419 0.351897Z" fill="#2F2E41"/>
<path d="M103.543 23.2336C104.239 23.2336 104.804 22.3022 104.804 21.1534C104.804 20.0046 104.239 19.0732 103.543 19.0732C102.847 19.0732 102.282 20.0046 102.282 21.1534C102.282 22.3022 102.847 23.2336 103.543 23.2336Z" fill="#FFB8B8"/>
<path d="M43.3259 235.66H12.3779V239.347H43.3259V235.66Z" fill="#2F2E41"/>
<path d="M43.3259 248.563C44.8122 248.563 46.017 243.611 46.017 237.503C46.017 231.395 44.8122 226.443 43.3259 226.443C41.8396 226.443 40.6348 231.395 40.6348 237.503C40.6348 243.611 41.8396 248.563 43.3259 248.563Z" fill="#2F2E41"/>
<path d="M12.3777 248.563C13.8639 248.563 15.0688 243.611 15.0688 237.503C15.0688 231.395 13.8639 226.443 12.3777 226.443C10.8914 226.443 9.68652 231.395 9.68652 237.503C9.68652 243.611 10.8914 248.563 12.3777 248.563Z" fill="#2F2E41"/>
<path d="M35.9792 235.66H5.03125V239.347H35.9792V235.66Z" fill="#2F2E41"/>
<path d="M35.9792 248.563C37.4655 248.563 38.6704 243.611 38.6704 237.503C38.6704 231.395 37.4655 226.443 35.9792 226.443C34.4929 226.443 33.2881 231.395 33.2881 237.503C33.2881 243.611 34.4929 248.563 35.9792 248.563Z" fill="#2F2E41"/>
<defs>
<linearGradient id="paint0_linear" x1="103.976" y1="239.637" x2="103.976" y2="255.87" gradientUnits="userSpaceOnUse">
<stop stop-color="#FFF0EE"/>
<stop offset="1" stop-color="#FFDFDC"/>
</linearGradient>
<linearGradient id="paint1_linear" x1="116.375" y1="42.7354" x2="116.375" y2="85.1725" gradientUnits="userSpaceOnUse">
<stop stop-color="#FFF0EE"/>
<stop offset="1" stop-color="#FFDFDC"/>
</linearGradient>
</defs>
</svg>
